<?xml version="1.0" encoding="UTF-8"?>
<svg id="Capa_1" data-name="Capa 1" xmlns="http://www.w3.org/2000/svg" viewBox="0 0 541.86 434.5">
  <defs>
    <style>
      .cls-1 {
        fill: #f7b468;
      }

      .cls-2 {
        fill: #f7c53a;
      }

      .cls-3 {
        fill: #ed8575;
      }

      .cls-4 {
        fill: #ea812a;
      }

      .cls-5 {
        fill: #fff;
      }

      .cls-6 {
        fill: #edb221;
      }

      .cls-7 {
        fill: #fae1ca;
      }

      .cls-8 {
        fill: #f0a55a;
      }

      .cls-9 {
        fill: #a2483c;
      }

      .cls-10 {
        fill: #b56a4d;
      }

      .cls-11 {
        fill: #cba153;
      }

      .cls-12 {
        fill: #141011;
      }

      .cls-13 {
        fill: #543434;
      }

      .cls-14 {
        fill: #54794a;
      }
    </style>
  </defs>
  <path class="cls-14" d="M385.86,177.07c.68,5.84-.05,11.52-1.87,17.09-.45,1.36-.8,2.76-1.19,4.14-3.3,6.06-6.6,12.11-9.89,18.18-.08,.15-.04,.36-.05,.54-3.75,4.36-6.29,9.54-9.69,14.14-.11,.5-.23,1-.34,1.5l.07-.1c-1.99,1.67-3.27,3.8-4.04,6.26-1.45,1.06-2.17,2.56-2.6,4.24-2.72,3.04-4.6,6.55-5.76,10.45-2.22-1.25-3.93-3.35-6.46-4.06-1.19-.34-2.55-.81-3.28,.85l.02-.02c-1.02-.06-1.76,.3-2,1.37-.18,.79,.14,1.45,.67,1.97,1.37,1.33,3.11,1.86,4.94,2.05,1.81,.18,3.63,.24,5.44,.35-.41,3.74-.83,7.48-1.24,11.21-.37,3.08-.93,6.15-1.06,9.23-.21,4.93-.14,9.87-.19,14.81-.59,2.88-.82,5.79-.83,8.72-.04,12.47-.14,24.95-.13,37.42,0,3-.67,3.31-3.06,3.23-.9-.03-1.81,.2-2.71,.31-6.93-.32-13.87-.36-20.8-.03-9.58-.34-19.16-.47-28.73,.08-2.56-.1-5.12-.19-7.68-.31-1.02-.05-1.71-.6-1.87-1.64-.14-.9-.23-1.82-.29-2.73-1.18-17.2-2.46-34.4-2.7-51.65-.07-4.98-.21-9.95-.31-15.07-1.1,.51-1.29,1.22-1.42,1.94-.77,4.33-1.68,8.64-2.25,12.99-1.32,10.02-1.5,20.11-1.89,30.19-.04,1.09,.06,2.22-.91,3.25h-8.09c-1.2-1.6-2.49-3.15-3.59-4.82-7.78-11.76-15.51-23.56-23.28-35.33-5.35-8.1-10.72-16.19-16.12-24.26-.83-1.24-1.65-2.43-1.68-3.97,1.24-7.46,3.53-14.6,6.57-21.51,2.94-6.68,7.23-12.3,12.77-17.03,3.78-3.22,7.78-6.14,11.92-8.87,1.99-1.31,4-2.6,6-3.9,1.45,.14,2.96,.08,4.34,.47,6.5,1.83,12.98,3.71,19.42,5.72,5.22,1.63,10.38,3.47,15.56,5.22-.9,3.43-2.97,6.29-4.54,9.39-3.75,7.37-7.59,14.7-9.44,22.85-1.51,6.64-2.68,13.32-2.59,20.15,0,.73,.06,1.47,.21,2.18,.05,.25,.45,.48,.75,.6,.4,.17,.74-.05,.81-.5,.12-.9,.25-1.81,.26-2.72,.02-12.54,3.03-24.31,8.65-35.52,5.35-10.7,11.21-21.1,17.31-31.37,2.35-3.95,4.74-7.87,7.04-11.85,.77-1.33,.06-2.81-1.37-2.87-2.75-.1-5.5-.04-8.25,.02-.53,.01-1.12,.29-1.2,.92-.1,.74,.54,.8,1.04,.82,2.34,.1,4.69,.16,6.93,.23,.49,1.52-.29,2.41-.82,3.33-1.18,2.07-2.37,4.15-3.68,6.15-3.03,4.6-5.26,9.69-8.7,14.03-9.37-3.55-18.85-6.76-28.49-9.48-1.72-.49-3.59-.68-5.04-1.92,2.06-1.16,4.09-2.39,6.19-3.46,11.72-5.96,23.83-11.02,36.05-15.83,14.48,.59,28.97,.36,43.45,1.18,9.15,.52,18.35,.28,27.52,.47,2.74,.06,5.48,.39,8.21,.6Zm-17.83,15.83c.11,0,1.2-.04,2.28-.17,.27-.03,.64-.36,.73-.62,.22-.69-.39-1.07-.86-1.07-3.67,.02-7.25-.29-10.54-2.16-.18-.1-.8,.15-.87,.35-.09,.28,.05,.76,.27,.99,2.21,2.24,5.03,2.73,9,2.69Zm-12.42-7.03c.12-.13,.37-.3,.34-.39-.42-1.55-.89-3.08-2.29-4.07-.09-.06-.31-.02-.41,.05-.13,.1-.3,.28-.29,.43,.02,1.72,.78,3.06,2.2,4.01,.1,.07,.3-.02,.45-.03Zm1.31,1.63l-.22,.35,.37,.04-.15-.38Z"/>
  <path class="cls-2" d="M248.43,103.41c1.6-1.93,3.76-1.29,5.66-.97,5.46,.9,10.96,1.05,16.47,1.18,2.57,.06,5.14-.03,7.71-.06,1.1-.01,2.22-.15,3.03,.85,.46,1.33,.82,2.71,1.41,3.98,.48,1.04,.72,2.7,2.32,2.29,.4-.1,.37-1.9,.54-2.92v.02c1.48,.42,2.22,1.81,3.4,2.65,.52,.37,1.03,.41,1.38-.13,.15-.23,.12-.76-.05-.98-1.64-2.22-3.63-4.04-6.3-4.97-.07-.52-.32-1.41-.17-1.49,9.21-4.64,15.52-12.52,22.32-19.85,.55,7.41,1.1,14.82,1.65,22.22-.04,1.13,.13,2.52,1.57,2.06,2.29-.74,4.58-.51,6.87-.66,4.26,1.97,8.74,2.67,13.39,2.3,.96-.08,1.77-.52,2.12-1.49,.42-1.17,0-2.13-.84-2.97-.98-.98-2.23-1.17-3.53-1.27-3.36-.27-6.56,.57-9.77,1.35-.25-2.23,.52-4.37,1.57-6.1,1.61-2.68,2.09-5.58,2.78-8.48,.03-.7,.07-1.4,.1-2.1l-.06,.04c1.42-1.03,1.73-2.73,2.53-4.13,2.19-3.85,4.88-7.24,8.45-9.9,6.14-4.57,12.66-6.23,19.96-2.83,1.99,.93,3.95,1.84,5.61,3.29,.26,1.17,1.13,1.41,2.15,1.4h-.01c-.51,2.71,1.5,4.42,2.73,6.36,3.96,6.23,6.93,12.85,8.8,19.99,1.45,5.54,1.68,11.15,1.79,16.84,.12,5.99-.74,11.71-3.45,17.02-2.66,5.21-5.7,10.11-10.91,13.44-3.57,2.28-7.53,3.66-11.11,5.82l-1.95,.19c-.54,.04-1.15-.07-1.62,.15-6.72,3.14-14.03,3.4-21.19,4.05-5.6,.5-11.28,.08-16.93,.06-8.46-.34-16.86-1.35-25.24-2.48-5.27-.71-10.48-1.91-15.71-2.9-.88-.17-2.04-.16-2.27-1.21-.45-2.11-2.25-2.2-3.73-2.79-2.56-1.02-5.18-1.9-7.7-3.02-4.88-2.18-9.48-4.89-13.88-7.92-1.33-.92-2.07-2.02-1.53-3.73,.22-.69,.24-1.45,.36-2.18,2.08-.54,3.89-.37,5.54,1.33,1.39,1.44,3.06,2.63,4.71,3.79,4.39,3.09,9.16,5.39,14.48,6.42,1.72,.33,2.41-.02,2.72-1.76,.79-4.32,1.49-8.66,2.16-13,.45-2.89,.79-5.8,1.2-8.7,.29-2.07-.52-3.38-2.36-4.46-5.08-2.96-10.24-5.75-15.64-8.1-2.01-.88-2.03-.96-1.88-3.36,.05-.73,.24-1.45,.36-2.17Z"/>
  <path class="cls-4" d="M202.68,372.49c-4.71,9.64-10.38,18.64-17.61,26.61-17.21,19-38.5,30.69-63.84,34.27-55.79,7.87-104.36-27.91-117.62-77.44-9.83-36.71,.73-75.55,26.94-101.95,15.5-15.62,33.99-25.71,55.56-29.76,21.13-3.97,41.77-1.86,61.65,6.59,1.68,.71,3.23,1.8,5.14,1.88,1.16,1.33,2.66,1.98,4.35,2.3,1.34,1.59,3.29,2.31,4.96,3.41,29.67,19.56,46.52,46.82,49.55,82.41,.11,1.25-.17,2.61,.84,3.66,.26,7.63-.79,15.13-2.03,22.65-.83,5.01-2.17,9.87-3.39,14.77-1.5,3.54-3,7.08-4.5,10.62ZM54.19,242.07c1.89-.86,3.91-1.52,5.21-3.51q-2.74,.17-6.03,2.63c-.77,.43-1.56,.82-2.29,1.31-.23,.16-.46,.68-.36,.87,.28,.58,.91,.56,1.36,.29,.75-.46,1.42-1.05,2.12-1.59Zm148.23,88.52c.03-.89,.05-1.79,.08-2.68,.28-1.29,.29-2.57-.06-3.85-.04-.43-.09-.86-.13-1.29,.19-4.57-.55-9.01-1.95-13.34-.1-.32-.43-.57-.65-.85,.27-1.88-.24-3.66-.74-5.43-6.97-24.43-21.28-43.34-42.75-56.88-1.24-.78-2.46-1.64-4.03-1.64-1.02-1.54-2.52-2.21-4.32-2.3-1.18-1.58-3.04-2.05-4.71-2.74-18.37-7.64-37.38-9.49-56.79-5.41C34.13,245.17-.85,297.32,12.78,351.88c11.97,47.95,58.92,79.76,108.71,71.49,28.98-4.82,51.28-20.25,66.88-45.22,1.07-1.71,2.28-3.36,2.7-5.39,2.81-3.06,3.6-7.03,4.9-10.78,2.41-5.11,3.3-10.65,4.53-16.09,.72-3.16,1.54-6.33,1-9.63,.15-.99,.3-1.98,.45-2.98,.8-.78,.76-1.71,.47-2.69Zm-119.57-100.68c-.22-.2-.46-.6-.65-.58-6.09,.65-11.79,2.58-17.16,5.49-.16,.08-.23,.74-.12,.81,.27,.18,.71,.34,1,.24,3.47-1.18,6.91-2.46,10.4-3.6,1.91-.63,3.89-1.02,5.83-1.57,.28-.08,.46-.5,.71-.79Zm-21.56,7.66c-.11-.11-.24-.32-.33-.3-.24,.04-.46,.19-.69,.29,.11,.11,.24,.32,.33,.3,.24-.04,.46-.19,.69-.29Zm2.07-1.17c-.13-.14-.24-.37-.37-.38-.13,0-.27,.21-.4,.33,.2,.13,.39,.25,.59,.38,.07-.12,.14-.24,.19-.33Z"/>
  <path class="cls-9" d="M346.57,155.39c.65-.06,1.3-.13,1.95-.19,8.29-.47,16.23-2.53,24.08-5.17,5.51-1.85,9.42-5.5,12.61-10.15,.64-.94,1.01-1.95,.98-3.09-.15-4.58-.16-9.15-.63-13.73-.56-5.46-1.83-10.85-1.74-16.38,11.58-.02,23.15-.04,34.73-.08,.16,0,.33-.15,.47-.26,.09-.07,.15-.2,.26-.37-1.77-.79-3.63-.39-5.43-.41-10.29-.11-20.58-.16-30.86-.23-.19-.9-.45-1.79-.55-2.7-.87-7.37-5.15-12.81-10.17-17.76-3.52-3.46-7.07-6.94-11.58-9.17,0,0,.01,.01,.01,.01-.42-.92-1.27-1.19-2.15-1.4-1.67-1.45-3.62-2.37-5.61-3.29-7.31-3.4-13.82-1.74-19.96,2.83-3.57,2.66-6.26,6.06-8.45,9.9-.8,1.4-1.12,3.11-2.53,4.13-.32-1.85-.03-3.63,.52-5.41,1.38-4.39,3.28-8.55,5.72-12.44,1.96-3.12,4.28-5.94,7.54-7.85,.77-.45,1.61-.9,1.7-1.97l-.03,.02c3.72-.5,7.43-1,11.15-1.5,3.1,.33,6.21,.55,9.25,1.41,1.73,.49,3.64,.52,5.46,.52,16.19,.02,32.39,0,48.58-.02,1.29,0,2.58-.09,3.86,.02,6.22,.57,10.5,4.86,11.04,11.07,.11,1.28,.05,2.57,.05,3.86,0,26.32,0,52.63,0,78.95,0,1.1,0,2.21-.02,3.31-.15,7.11-6.1,11.8-12.14,11.69-9.38-.16-18.77-.04-28.15-.04-.44-2.4,.04-4.75,.35-7.12,.26-1.93-.62-2.75-2.5-2.62-.55,.04-1.1,.09-1.64,.18-11.67,2.01-23.03,.11-34.3-2.75-.95-.24-1.58-.89-1.85-1.84Z"/>
  <path class="cls-4" d="M369.32,245.94c12.45-10.58,26.8-17.43,42.64-20.94,53.39-11.81,102.61,16.77,121.76,62.78,16.29,39.13,7.65,83.9-21.66,114.15-16.4,16.93-36.26,27.39-59.52,31.18-44.57,7.26-87.77-14.86-108.53-51.78,1.77-2.96,4.64-4.36,7.73-5.45,.83,1.21,1.71,2.39,2.49,3.63,21.36,33.89,61.51,51.13,100.61,43.21,38.96-7.89,73.04-41.01,76.82-86.64,1.71-20.59-2.77-39.96-13.72-57.55-16.25-26.1-39.77-41.6-70.21-45.62-23.66-3.12-45.71,2.25-65.66,15.61-1.68,1.12-3.38,2.21-5.08,3.31-2.98-1.42-5.66-3.23-7.68-5.91Zm131.08,3.74c-.35-.36-.71-.72-1.06-1.08-1.01-1.28-2.11-2.44-3.69-3.01-.62-.49-1.24-.98-1.86-1.48-.87-1.07-2.02-1.72-3.27-2.25-1.17-.8-2.31-1.63-3.51-2.37-.42-.27-1.03-.49-1.45,0-.44,.53,.03,.97,.42,1.21,1.2,.74,2.45,1.39,3.68,2.08,.86,1.1,1.97,1.81,3.29,2.24,.61,.49,1.23,.98,1.84,1.47,1.03,1.22,2.16,2.31,3.65,2.95,.37,.36,.74,.73,1.12,1.09,.37,.37,.74,.73,1.11,1.1l1.11,1.1c.37,.22,.93,.72,1.09,.62,.86-.57,.1-1.02-.24-1.48-.37-.37-.73-.74-1.11-1.1-.37-.37-.74-.74-1.11-1.1Zm-26.64-15.5c1.52,1.98,4,2.25,6,3.26,1.38,.7,2.61,2.06,4.44,1.52-.15-2.36-2.42-2.19-3.76-3.05-1.36-.88-2.95-1.41-4.46-2.03-.67-.28-1.4-.39-2.21,.31Z"/>
  <path class="cls-1" d="M319.82,340.91c6.93-.34,13.87-.29,20.8,.03,.29,5.22,1.65,10.1,4.15,14.73,1.21,2.24,2.65,4.45,2.84,7.12-1.95,2.81-5.11,4.09-7.74,6.02-11.66,8.56-23.46,16.94-35.1,25.53-2.83,2.09-5.72,2.86-9.18,2.83-13.02-.13-26.04-.04-39.07-.06-2.93,0-5.86-.12-8.8-.18,3.36-4.19,7.44-7.6,11.67-10.85,1.89-1.45,3.74-2.95,5.57-4.39-.28-1.46-1.36-1.1-2.16-1.1-11.4-.03-22.81,0-34.21-.05-1.79,0-3.67,.52-5.39-.51,11.86-.03,23.75-.44,35.59,.04,7,.29,12.87-1.32,18.01-5.95,1.34-.73,2.68-1.47,4.02-2.2,1.28-1.77,2.63-3.51,2.93-5.77,.24-.35,.48-.69,.72-1.04,0,0-.09,.06-.09,.06,.78-.11,1.5-1.26,2.36-.14,.35,.45,.86,.86,1.35,.48,.5-.39,.17-1-.05-1.51-.58-1.34-1.15-2.68-1.72-4.02,1.09-1.7,1.56-3.56,1.42-5.58q2.22-4.11,4.45-5.69c1.63-.1,3.22-.29,4.82-.79,6.41-2,12.88-3.84,19.32-5.73,1.19-.35,2.6-.08,3.48-1.28Z"/>
  <path class="cls-9" d="M287.74,354.4c.14,2.02-.33,3.88-1.42,5.58-.65-.11-1.29-.21-1.94-.32l.04,.04c-.01-2.59-.11-2.74-2.24-3.37l.04,.05c.35-1.54-.31-2.76-1.3-3.84-1.19-1.3-2.4-2.59-3.6-3.89-.44-.63-.67-1.56-1.78-1.2l.1,.04c.1-.32,.38-.77,.26-.96-4.57-7.03-9.18-14.04-13.8-21.05-.46-.69-1.18-.76-1.93-.73,.14-.08,.41-.18,.4-.23-.05-.28-.18-.55-.27-.83,.1-1.76-.83-2.89-2.26-3.73-.17-1.27-1.14-1.85-2.11-2.42,.1-2.01-1.17-3.41-2.18-4.93-6.61-9.93-13.19-19.88-19.82-29.8-5.5-8.24-11.05-16.44-16.58-24.66-.23-.5-.41-1.04-.71-1.49-12.57-19.01-25.14-38.02-37.72-57.02-.5-.76-.97-1.59-2.4-1.56-6.37,12.2-12.83,24.55-19.28,36.9-1.69-.32-3.2-.97-4.35-2.3,8.69-16.82,17.37-33.65,26.07-50.47,9.88-19.11,19.77-38.22,29.7-57.3,.92-1.77,1.48-3.79,3.1-5.14,1.68-.1,3.08,.47,4.19,1.74-.29,.67-.53,1.37-.86,2.01-6.59,12.74-13.19,25.46-19.79,38.2-3.81,7.35-7.61,14.69-11.41,22.04-.34,.65-.68,1.3-.97,1.98-.43,1.01,.11,1.88,1.17,1.79,4.58-.38,9.15-1,13.73-1.2,19.61-.84,38.89,1.67,57.96,6.07,2.85,.66,5.63,1.75,8.63,1.71,1.45,1.24,3.32,1.44,5.04,1.92,9.64,2.72,19.12,5.94,28.49,9.48-.3,1.67-.92,3.15-2.38,4.16-5.18-1.75-10.34-3.59-15.56-5.22-6.44-2.01-12.93-3.89-19.42-5.72-1.38-.39-2.89-.32-4.34-.47-.46-.28-.89-.7-1.39-.82-20.7-4.84-41.64-7.08-62.91-5.57-2.93,.21-5.84,.71-8.75,1.12-1.4,.2-1.69,1.01-.93,2.36,.18,.32,.37,.64,.57,.94,11.26,17.02,22.52,34.03,33.77,51.05,.63,.95,1.33,1.74,2.38,2.21,.04,1.55,.85,2.74,1.68,3.97,5.4,8.07,10.77,16.15,16.12,24.26,7.77,11.77,15.5,23.56,23.28,35.33,1.1,1.67,2.39,3.22,3.59,4.82,1.12,1.88,2.16,3.8,3.36,5.62,5.21,7.91,10.46,15.8,15.72,23.68,1.61,2.41,3.33,4.76,4.99,7.14Z"/>
  <path class="cls-10" d="M247.73,396.93c2.93,.06,5.86,.18,8.8,.18,13.02,.02,26.05-.07,39.07,.06,3.46,.03,6.35-.74,9.18-2.83,11.64-8.59,23.44-16.97,35.1-25.53,2.63-1.93,5.79-3.21,7.73-6.02,1.66,1.22,1.79,3.44,3.15,4.86,.25,1.78,.85,3.37,2.46,4.38-.5,1.29-.99,2.58-1.49,3.87-3.09,1.09-5.96,2.5-7.73,5.46-1.14,.08-2.04,.67-2.92,1.32-6.71,4.94-13.42,9.86-20.12,14.81-.69,.51-1.59,.94-1.39,2.07-2.33,.6-4.41,1.63-6.3,3.16-2,1.61-4.22,2.96-6.19,4.62-1.66,1.4-3.42,1.91-5.57,1.89-6.99-.08-13.99-.06-20.98-.02-5.15,.03-10.3,.15-15.45,.23-4.71-.04-9.42-.03-14.12-.13-4.06-.09-6.9-3.8-5.95-7.79,.42-1.76,1.1-3.46,2.71-4.57Z"/>
  <path class="cls-6" d="M346.57,155.39c.28,.96,.9,1.6,1.85,1.84,11.28,2.86,22.63,4.76,34.3,2.75,.54-.09,1.09-.14,1.64-.18,1.88-.13,2.76,.69,2.5,2.62-.32,2.37-.79,4.71-.35,7.12-.22,2.51-.43,5.02-.65,7.53-2.74-.21-5.47-.54-8.21-.6-9.17-.19-18.37,.05-27.52-.47-14.48-.82-28.97-.59-43.45-1.18,.05-5.06,.1-10.12,.15-15.18,5.65,.01,11.33,.44,16.93-.06,7.16-.64,14.47-.91,21.19-4.05,.46-.22,1.07-.11,1.62-.15Z"/>
  <path class="cls-3" d="M248.43,103.41c-.13,.72-.32,1.44-.36,2.17-.15,2.4-.13,2.48,1.88,3.36,5.4,2.35,10.56,5.14,15.64,8.1,1.84,1.07,2.65,2.39,2.36,4.46-.41,2.9-.75,5.81-1.2,8.7-.68,4.34-1.38,8.68-2.16,13-.32,1.74-1,2.09-2.72,1.76-5.32-1.03-10.08-3.32-14.48-6.42-1.65-1.16-3.32-2.35-4.71-3.79-1.65-1.7-3.46-1.87-5.54-1.33-1.44-.05-2.89-.01-4.32-.18-1.15-.14-2.24-.89-2.05-2.09,.36-2.26-.78-2.14-2.43-2.18-2.13-.05-2.12-.24-2.2-3.24,1.58-2.23,3.29-4.26,5.7-5.76,2.31-1.44,4.34-3.34,6.46-5.08,.17-.14,.2-.73,.06-.92-.18-.22-.64-.37-.94-.32-.33,.05-.63,.35-.93,.57-1.59,1.16-1.45,.31-1.55-1.05-.08-1.11-1.22-2.36,1.12-1.92,.17,.03,.39,.05,.54-.02,.31-.14,.59-.35,.88-.53-.15-.24-.26-.65-.46-.7-1.24-.29-2.49-.57-3.75-.73-2.54-.31-5.13-.33-7.51-1.45-.16-.98,.03-1.85,1.09-2.17,2.25-.68,4.52-1.27,6.77-1.96,.24-.07,.5-.55,.5-.84,0-.23-.39-.65-.6-.65-3.64,.02-7.25,.17-9.78,3.39-.8,.52-1.6,.7-2.53,.24-2.75-1.36-5.54-2.66-8.31-3.98,1.24-1.08,2.48-2.15,3.71-3.25,1.23-1.1,2.38-2.3,3.67-3.32,2.92-2.32,6.01-3.12,9.71-1.58,6.45,2.7,12.65,5.79,18.45,9.71Zm-5.35,17.85c.04-.34,.14-.63,.07-.68-.28-.2-.6-.43-.93-.46-.33-.03-.72,.09-1,.27-2.43,1.59-4.85,3.2-7.27,4.81-.64,.43-1.15,1.03-.59,1.75,.6,.77,1.3,.22,1.89-.16,2.29-1.48,4.57-2.96,6.83-4.48,.42-.29,.72-.76,.99-1.06Z"/>
  <path class="cls-9" d="M369.32,245.94c2.02,2.67,4.69,4.49,7.68,5.9,.27,1.85,1.86,2.63,3.06,3.7,13.44,12,25.68,25.11,36.66,39.39,4.91,6.39,9.78,12.81,13.76,19.85-.79,1.73-2.41,2.27-4.02,2.84-14.02-22.03-31-41.52-50.47-58.88-1.22-1.09-2.34-2.37-4.05-2.78-1.78-2.78-4.17-4.78-7.34-5.8-.06-.76-.4-1.45-1.19-1.39-.34,.03-.68,.75-.91,1.21-.23,.47-.33,1.01-.49,1.53-2.39,6.72-4.76,13.44-7.18,20.14-.5,1.39-1.12,2.72-.56,4.23l.04-.1c-1.32,.28-1.36,1.24-1.22,2.3l.06-.16c-1.09,.46-1.27,1.36-1.18,2.4-1.54,3.65-3.07,7.29-4.61,10.94,.05-4.94-.02-9.88,.19-14.81,.13-3.09,.69-6.16,1.06-9.24,2.33-1.62,3.71-3.94,4.67-6.53,1.65-4.42,3.19-8.89,4.89-13.3,.84-2.18,.05-3.47-1.89-4.35,.43-1.68,1.15-3.18,2.6-4.24,1.06,.53,2.21,.78,2.67-.59,.61-1.84,1.8-3.57,1.37-5.66l-.07,.1c1.12-.27,.82-.87,.34-1.5,3.4-4.6,5.94-9.78,9.69-14.14,.39,.11,.78,.22,1.16,.33-1.99,5.81-3.97,11.63-5.96,17.44-.65,1.88-1.38,3.74-2.01,5.62-.9,2.73-.89,2.75,1.37,4.49,.57,.43,1.26,.7,1.89,1.04Z"/>
  <path class="cls-3" d="M317.14,54.45c-.64-.61-1.18-1.48-1.95-1.79-3.6-1.43-5.12-4.5-6.28-7.8-1.42-4.03-1.31-8.25-.95-12.42,.22-2.52,.83-5,1.27-7.5,1.26-.12,2.52-.31,3.79-.32,.74,0,1.44,.14,1.84-.68,.25-.53-.86-1.7-1.81-1.66-1.07,.04-2.13,.37-3.19,.57,.03-.72,.07-1.44,.1-2.16,1.38-.57,2.75-1.14,4.13-1.71,3.24,.57,6.1,2.16,9.06,3.48-.88,.15-1.75,.28-2.62,.46-.44,.09-.62,.42-.45,.82,.13,.31,.3,.77,.53,.83,1.21,.31,2.44,.64,3.68,.72,.87,.05,1.04-.79,1.08-1.53,1.96-.27,3.57,.75,5.27,1.44-.06,.73-.24,1.48-.17,2.19,.32,3.12,1.59,4.12,4.32,3,2.1-.87,4.21-1.22,6.42-1.33,.96,.22,1.91,.45,2.87,.67,.37,1.21,.87,2.4,1.1,3.64,.95,5.1-1.12,8.83-5.91,10.86-.33,.14-.68,.27-1.03,.34-1.69,.3-1.85,1.5-1.67,2.86,.17,1.26,.39,2.51,.6,3.76-3.43,1.31-6.63,3.24-10.37,3.68,1.25-1.6,3.51-2.29,4.06-4.52,.18-.24,.37-.47,.55-.71-.17,0-.38-.07-.49,0-.42,.26-.38,.54,.06,.78-.45-.27-.87-.53-1.44-.24-3.36,1.69-6.87,2.9-10.65,3.16-.81,.05-1.23,.63-1.71,1.14Zm-4.01-21.75c-.13-1.25-.23-2.5-.44-3.73-.03-.21-.54-.46-.83-.46-.26,0-.68,.3-.73,.53-.14,.7-.18,1.43-.18,2.14,0,1.63,1.17,1.5,2.27,1.44-.03,1.63-.12,3.27-.05,4.9,.03,.69,.33,1.39,.63,2.02,.12,.26,.59,.49,.89,.48,.23-.01,.64-.42,.64-.65,0-2.36-.02-4.7,.68-7,.21-.68-.66-1.02-1.57-.56-.47,.23-.87,.6-1.3,.9Zm28.76,3.15c-.17-.77-1.25-1.31-.71-2.37,.33-.65,.56-1.36-.36-1.76-.63-.27-1.05,.19-1.37,.61-1.19,1.6-2.34,3.23-3.49,4.86-.36,.51-.32,1.05,.2,1.4,.25,.16,.82,.24,.96,.09,1.04-1.15,2.3-1.68,3.85-1.7,.54,0,.95-.43,.92-1.13Zm-17.77,5.96c-.13-.33-.23-.67-.4-.97-.05-.09-.35-.14-.45-.08-1.69,1.05-3.37,2.11-5.04,3.19-.08,.05-.09,.38-.01,.47,.23,.25,.51,.62,.78,.63,2.61,.11,4.06-.83,5.12-3.24Zm-.91-12.22c-.1-.44-.22-.96-.35-1.47-.11-.47-.41-.63-.83-.39-.29,.17-.69,.37-.78,.64-.36,1.04-.35,2.14,.01,3.18,.1,.27,.48,.52,.78,.63,.79,.29,.87-.42,1-.88,.14-.51,.12-1.07,.17-1.7Z"/>
  <path class="cls-2" d="M344.05,29.7c-.96-.22-1.91-.45-2.87-.67-3.34-1.78-6.82-3.2-10.57-3.86-1.7-.68-3.31-1.7-5.27-1.44,0,0,.02,.08,.02,.08-.06-.66-.5-.92-1.08-1.03-.39-.12-.77-.23-1.16-.35-2.96-1.31-5.81-2.9-9.06-3.47-3.57-2.39-7.47-4.05-11.6-5.19-.65-1.15-3.08-1.37-2.1-3.28,.68-1.32,2.3-.74,3.54-.7,.54,.02,1.08,.19,1.61,.34,3.54,1,5.88,.16,8.24-3.16,4.15-5.84,10.29-8.01,17.48-6.51,1.07,.22,2.14,.49,3.19,.8,10.25,3.04,14.19,11.56,12.41,20.9-.5,2.63-.48,5.55-2.8,7.54Z"/>
  <path class="cls-6" d="M326.76,54.84c3.74-.43,6.95-2.37,10.37-3.68,1.04-.25,2.07-.56,3.12-.74,3.41-.57,3.82-.07,3.22,3.74-1.23,1.47-2.96,2.04-4.67,2.69-2.38,.91-4.75,1.85-7.1,2.83-.51,.21-.76,.77-.48,1.28,.12,.21,.65,.31,.97,.28,1.78-.18,3.32-1.61,5.26-1-.09,1.07-.93,1.52-1.7,1.97-3.26,1.9-5.58,4.73-7.54,7.85-2.44,3.89-4.33,8.05-5.72,12.44-.56,1.77-.85,3.56-.52,5.41,0,0,.06-.04,.06-.04-1.35,.64-1.27,1.34-.1,2.1-.69,2.9-1.16,5.8-2.78,8.48-1.04,1.74-1.82,3.87-1.57,6.1-.46,.7-.91,1.39-1.37,2.09-2.29,.15-4.58-.08-6.87,.66-1.44,.46-1.6-.92-1.57-2.05,1.55-3.19,1.71-6.66,1.92-10.11,.14-2.38,0-4.82,.42-7.15,.88-4.92,.9-9.87,.83-14.83,.28-1.95,.76-3.9,.78-5.85,.02-2.76,.7-4.93,3.44-6.09,1.36-.57,2.3-1.68,3.16-2.85,2.81-1.17,5.62-2.34,8.42-3.51Z"/>
  <path class="cls-10" d="M202.68,372.49c1.5-3.54,3-7.08,4.49-10.62,17.57,0,35.14-.02,52.72-.03,.13,1.01,.26,2.01,.39,3.02-1.05,1-.88,2.33-1,3.6-.28,3.19-.31,3.2-3.68,3.33-1.47,.05-2.94,.04-4.41,.04-8.83,.02-17.66,.04-26.49,.07-2.02,0-4.05,.07-6.07,.15-1.09,.04-1.45,.97-1.93,1.74-.92-.94-2-1.31-3.34-1.29-3.56,.05-7.12,0-10.69-.01Z"/>
  <path class="cls-12" d="M225.77,107.82c2.38,1.12,4.97,1.14,7.51,1.45,1.26,.16,2.51,.44,3.75,.73,.2,.05,.31,.46,.46,.7-.29,.18-.57,.38-.88,.53-.15,.07-.36,.05-.54,.02-2.34-.44-1.19,.81-1.12,1.92,.09,1.36-.04,2.21,1.55,1.05,.3-.22,.59-.51,.93-.57,.3-.05,.76,.09,.94,.32,.15,.19,.12,.78-.06,.92-2.12,1.74-4.15,3.64-6.46,5.08-2.41,1.49-4.11,3.53-5.7,5.75-3.5-1.14-6.44-3.63-10.18-4.21-1.11-1.27-2.51-1.84-4.19-1.74-.96-1.78-2.96-1.96-4.47-2.9-.92-.57-2-.89-2.89-1.5-1.39-.96-2.28-2.34-2.64-4-1.1-5.17,3.79-10.68,9.04-10.17,.7,.07,1.37,.43,2.07,.66,2.78,1.32,5.56,2.62,8.32,3.98,.94,.46,1.73,.28,2.53-.24,1.03,.41,.84,1.95,2.03,2.22Z"/>
  <path class="cls-12" d="M265.09,409.42c5.15-.08,10.3-.2,15.45-.23,6.99-.04,13.99-.06,20.98,.02,2.14,.03,3.9-.49,5.57-1.89,1.97-1.65,4.19-3,6.19-4.62,1.89-1.52,3.97-2.56,6.3-3.16,1.04,.33,2.16,.51,3.11,1.01,3.36,1.79,4.69,4.91,3.9,8.82-.62,3.09-3.06,5.28-6.54,5.71-1.45,.18-2.93,.19-4.39,.19-13.2,.01-26.4,0-39.6,0-1.1,0-2.2,0-3.3-.04-3.89-.17-6.61-1.91-7.67-5.82Z"/>
  <path class="cls-12" d="M216.71,373.79c.47-.77,.84-1.7,1.93-1.74,2.02-.08,4.04-.15,6.07-.15,8.83-.04,17.66-.05,26.49-.07,1.47,0,2.94,.01,4.41-.04,3.36-.12,3.39-.14,3.68-3.33,.11-1.27-.06-2.6,.99-3.6,1.07,.59,2.14,1.18,3.22,1.76,.6,.96,1.52,1.49,2.5,2.01,2.57,1.38,5.31,2.32,8.08,3.13,1.32,.39,2.29,1.04,2.73,2.36-5.13,4.62-11.01,6.24-18.01,5.95-11.85-.49-23.73-.08-35.59-.04-3.39-.8-5.82-2.6-6.5-6.23Z"/>
  <path class="cls-12" d="M374.02,217.34c-.39-.11-.78-.22-1.16-.33,.01-.18-.03-.4,.05-.54,3.29-6.06,6.59-12.12,9.89-18.18,4.2,.04,8.41,.04,12.61,.13,5.56,.12,8.29,2.91,8.43,8.5,.02,.73,.02,1.46,0,2.19-.22,4.91-2.97,7.8-7.89,7.94-5.11,.15-10.24,.01-15.35,.05-2.19,.02-4.38,.16-6.56,.24Z"/>
  <path class="cls-9" d="M310.96,73.14c.07,4.96,.05,9.9-.83,14.83-.42,2.33-.28,4.76-.42,7.15-.21,3.45-.36,6.91-1.92,10.11-.55-7.41-1.1-14.82-1.65-22.23,.31-3.92,1.34-7.49,4.82-9.86Z"/>
  <path class="cls-12" d="M302.48,13.77c4.13,1.14,8.03,2.8,11.6,5.19-1.38,.57-2.75,1.14-4.13,1.71-2.16-.32-4.26-.81-6.17-1.93-2.08-1.23-2.24-1.77-1.3-4.97Z"/>
  <path class="cls-12" d="M326.76,54.84c-2.81,1.17-5.61,2.34-8.42,3.51-1.53-.96-.99-2.55-1.2-3.91,.49-.51,.91-1.08,1.71-1.14,3.78-.26,7.29-1.47,10.65-3.16,.57-.29,.99-.03,1.44,.24l-.12-.07c-.56,2.22-2.82,2.91-4.06,4.52Z"/>
  <path class="cls-7" d="M285.56,107.76c-.17,1.02-.14,2.82-.54,2.92-1.6,.41-1.84-1.26-2.32-2.29-.59-1.27-.95-2.65-1.41-3.98,.9-.02,1.8-.05,2.69-.07,2.67,.94,4.66,2.75,6.3,4.97,.17,.23,.2,.75,.05,.98-.35,.54-.86,.49-1.38,.13-1.17-.84-1.92-2.23-3.41-2.65-.08-.15-.14-.33-.25-.44-.06-.06-.34-.01-.34,.01-.06,.41,.16,.55,.61,.41Z"/>
  <path class="cls-7" d="M337.46,60.24c-1.94-.61-3.48,.82-5.26,1-.32,.03-.85-.06-.97-.28-.28-.51-.03-1.07,.48-1.28,2.35-.98,4.72-1.92,7.1-2.83,1.71-.65,3.44-1.22,4.67-2.69,.2,.93,.39,1.86,.59,2.79-2.36,.8-4.95,1.15-6.64,3.3l.03-.02Z"/>
  <path class="cls-6" d="M337.43,60.26c1.69-2.16,4.28-2.5,6.64-3.3,1.5,.6,3.01,1.2,4.51,1.8-3.72,.5-7.43,1-11.15,1.5Z"/>
  <path class="cls-13" d="M309.85,22.83c1.06-.2,2.12-.53,3.19-.57,.95-.04,2.06,1.14,1.81,1.66-.4,.82-1.1,.68-1.84,.68-1.26,.01-2.52,.2-3.79,.32,.21-.7,.42-1.4,.63-2.1Z"/>
  <path class="cls-5" d="M371.93,255.97c1.7,.41,2.82,1.69,4.05,2.78,19.47,17.36,36.46,36.85,50.47,58.88-3.41,3.88-5.36,8.23-4.49,13.54,.08,.5-.2,1.07-.31,1.61-1.34,.59-2.7,1.12-4.01,1.77-13.59,6.77-27.16,13.58-40.76,20.33-8.68,4.31-17.41,8.52-26.12,12.77-1.37-1.41-1.49-3.63-3.15-4.86-.2-2.67-1.64-4.88-2.84-7.12-2.5-4.63-3.86-9.51-4.15-14.73,.9-.11,1.81-.34,2.71-.31,2.39,.08,3.06-.23,3.06-3.23,0-12.47,.09-24.95,.13-37.42,.01-2.94,.24-5.85,.83-8.72,1.54-3.64,3.07-7.29,4.61-10.94,.9-.55,1.29-1.35,1.18-2.4,0,0-.06,.16-.06,.16,1.03-.44,1.5-1.17,1.22-2.3,0,0-.04,.1-.04,.1,1.27-.18,1.62-1.34,2.27-2.17,2.14-2.73,4.14-5.58,6.42-8.18,2.88-3.29,5.98-6.39,8.98-9.56Z"/>
  <path class="cls-11" d="M295.59,209.67c1.46-1.01,2.08-2.5,2.38-4.16,3.45-4.33,5.68-9.43,8.71-14.02,1.31-1.99,2.5-4.07,3.68-6.15,.53-.92,1.31-1.81,.82-3.33-2.24-.07-4.58-.13-6.93-.23-.5-.02-1.14-.08-1.04-.82,.08-.63,.67-.91,1.2-.92,2.75-.05,5.51-.11,8.25-.02,1.43,.05,2.14,1.53,1.37,2.87-2.3,3.98-4.69,7.9-7.04,11.85-6.1,10.27-11.95,20.68-17.31,31.37-5.61,11.21-8.63,22.98-8.65,35.52,0,.91-.13,1.82-.26,2.72-.06,.46-.41,.67-.81,.5-.29-.12-.69-.36-.75-.6-.15-.71-.2-1.45-.21-2.18-.09-6.84,1.08-13.52,2.59-20.15,1.85-8.16,5.7-15.49,9.44-22.85,1.58-3.1,3.64-5.96,4.54-9.39Z"/>
  <path class="cls-3" d="M292.19,348.71c-.37-2.57-.74-5.15-1.11-7.72,9.58-.55,19.15-.42,28.73-.08-.88,1.2-2.29,.93-3.48,1.28-6.45,1.89-12.91,3.73-19.32,5.73-1.6,.5-3.19,.69-4.82,.79Z"/>
  <path class="cls-11" d="M350.51,253.5c.25,.96,.3,1.87-.66,2.5-1.82-.11-3.64-.17-5.44-.35-1.83-.19-3.58-.71-4.94-2.05-.53-.52-.85-1.18-.67-1.97,.24-1.07,.98-1.43,2-1.37q.89,3.23,5.1,2.86c-1.25-1.98-3.21-2.36-5.11-2.84,.73-1.66,2.09-1.19,3.28-.85,2.53,.72,4.24,2.81,6.46,4.06Z"/>
  <path class="cls-11" d="M368.03,192.9c-3.97,.05-6.79-.45-9-2.69-.22-.22-.36-.71-.27-.99,.07-.2,.69-.45,.87-.35,3.29,1.87,6.87,2.18,10.54,2.16,.47,0,1.08,.38,.86,1.07-.08,.27-.45,.59-.73,.62-1.08,.13-2.17,.16-2.28,.17Z"/>
  <path class="cls-11" d="M355.61,185.86c-.15,.01-.35,.1-.45,.03-1.42-.95-2.18-2.29-2.2-4.01,0-.15,.16-.33,.29-.43,.1-.07,.33-.11,.41-.05,1.4,.99,1.87,2.52,2.29,4.07,.03,.09-.22,.26-.34,.39Z"/>
  <path class="cls-7" d="M363.17,231.15c.48,.63,.78,1.23-.34,1.5,.11-.5,.23-1,.34-1.5Z"/>
  <polygon class="cls-11" points="356.93 187.5 357.08 187.88 356.7 187.84 356.93 187.5"/>
  <path class="cls-6" d="M360.67,75.71c4.51,2.23,8.06,5.71,11.58,9.17,5.03,4.95,9.3,10.39,10.17,17.76,.11,.91,.37,1.8,.55,2.7,0,.63,.28,1.07,.84,1.35-.09,5.53,1.17,10.92,1.74,16.38,.47,4.58,.48,9.15,.63,13.73,.04,1.14-.33,2.15-.98,3.09-3.19,4.65-7.09,8.29-12.61,10.15-7.84,2.64-15.78,4.7-24.08,5.17,3.58-2.16,7.54-3.55,11.11-5.83,5.21-3.33,8.25-8.23,10.91-13.44,2.71-5.3,3.56-11.02,3.45-17.02-.11-5.69-.34-11.3-1.79-16.84-1.87-7.14-4.84-13.77-8.8-19.99-1.23-1.94-3.24-3.65-2.73-6.38Z"/>
  <path class="cls-7" d="M316.22,106.62c.46-.7,.91-1.39,1.37-2.09,3.21-.77,6.41-1.62,9.77-1.35,1.31,.1,2.56,.29,3.53,1.27,.83,.84,1.26,1.8,.84,2.97-.35,.97-1.16,1.41-2.12,1.49-4.65,.37-9.13-.33-13.39-2.3Zm4.81-.36c3.05,.36,5.08,1.54,7.41,1.15,.53-.09,1-.46,.93-1.08-.03-.3-.27-.69-.52-.85-2.44-1.43-4.72-.84-7.82,.77Z"/>
  <path class="cls-6" d="M358.53,74.32c.88,.21,1.73,.48,2.15,1.4-1.03,0-1.89-.23-2.15-1.4Z"/>
  <path class="cls-9" d="M321.94,89.95c-1.17-.76-1.25-1.46,.1-2.1-.03,.7-.07,1.4-.1,2.1Z"/>
  <path class="cls-5" d="M191.07,372.75c-.42,2.04-1.64,3.69-2.7,5.39-15.6,24.97-37.9,40.4-66.88,45.22-49.78,8.27-96.73-23.54-108.71-71.49-13.62-54.56,21.35-106.7,73.59-117.7,19.41-4.09,38.43-2.23,56.79,5.41,1.67,.69,3.53,1.16,4.7,2.74-.85,1.62-1.72,3.23-2.56,4.86-11.72,22.55-23.43,45.11-35.15,67.66-1.64-.13-3.3-.44-4.93-.35-9.26,.52-15.49,10.06-12.17,18.65,2.03,5.24,5.84,8.37,11.49,8.94,5.85,.59,10.49-1.64,13.45-6.72,2.95-5.07,2.59-10.18-.64-15.06-.81-1.22-1.76-2.34-2.65-3.5,.72-1.27,1.49-2.51,2.17-3.81,8.78-16.91,17.56-33.82,26.32-50.75,3.03-5.86,5.99-11.75,8.99-17.63,1.56,0,2.79,.87,4.02,1.65,21.46,13.53,35.78,32.45,42.75,56.88,.5,1.76,1.01,3.55,.74,5.43-2.06,1.41-1.74,3.5-1.26,5.38,.8,3.12,1.63,6.29,3.86,8.81,.04,.43,.09,.86,.13,1.29-1.45,.42-2.36-.58-3.39-1.27-1.64-1.12-3.26-2.3-5.25-2.74-1.13-.25-2.19-.01-2.92,.94-.73,.96-.69,2.15-.1,3.07,.76,1.21,1.72,2.34,2.77,3.3,2.54,2.32,5.34,4.32,8.4,5.92-.15,.99-.3,1.98-.45,2.98-9.34,3.14-18.53,6.67-27.57,10.59-3.18,1.38-6.32,2.84-9.3,4.64-3.98,2.41-6.46,5.8-7.25,10.4-1.67,2.67-1.24,5.61-1.01,8.5,.08,1.05,.89,1.57,1.87,1.65,2.73,.2,5.46,.43,8.19,.47,8.21,.13,16.43,.17,24.65,.25Z"/>
  <path class="cls-8" d="M212.6,324.45c.25-.25,.56-.47,.74-.77,1.83-3.1,4.56-4.29,8.08-3.83,2.82,.9,5.71,1.23,8.68,1.14,2.2-.07,4.51-.3,6.58,.26,3.46,.94,6.92,.94,10.38,.78,3.72-.17,7.18,1.65,10.9,1.06l2.36,.6c.1,.27,.22,.54,.27,.82,0,.05-.26,.15-.4,.23,.06,2.37,.18,4.75,.17,7.12-.03,9.33-.09,18.67-.14,28-.11,.66-.22,1.32-.32,1.97-17.57,0-35.14,.02-52.71,.03,1.22-4.9,2.56-9.76,3.39-14.77,1.24-7.51,2.3-15.01,2.03-22.65Z"/>
  <path class="cls-8" d="M157.38,361.88c.79-4.6,3.28-7.99,7.25-10.4,2.98-1.8,6.11-3.26,9.3-4.64,9.04-3.92,18.23-7.45,27.57-10.59,.54,3.3-.28,6.47-1,9.63-1.23,5.44-2.12,10.98-4.53,16.09-12.86-.03-25.73-.06-38.59-.09Z"/>
  <path class="cls-9" d="M110.16,314.85c11.72-22.56,23.43-45.11,35.15-67.66,.84-1.62,1.7-3.24,2.56-4.86,1.8,.09,3.29,.75,4.32,2.29-2.99,5.87-5.95,11.77-8.99,17.62-8.76,16.93-17.54,33.84-26.32,50.75-.67,1.29-1.44,2.54-2.16,3.8-1.7-.22-3.16-1.02-4.56-1.95Z"/>
  <path class="cls-10" d="M157.38,361.88c12.86,.03,25.73,.06,38.59,.09-1.3,3.75-2.09,7.72-4.9,10.78-8.21-.08-16.43-.12-24.64-.25-2.73-.04-5.46-.27-8.19-.47-.97-.07-1.78-.59-1.87-1.65-.23-2.89-.66-5.83,1.01-8.5Z"/>
  <path class="cls-11" d="M201.95,333.28c-3.06-1.61-5.85-3.6-8.4-5.92-1.05-.96-2.01-2.09-2.77-3.3-.58-.92-.63-2.11,.1-3.07,.73-.95,1.78-1.2,2.92-.94,1.99,.44,3.61,1.62,5.25,2.74,1.02,.7,1.94,1.7,3.39,1.27,.34,1.28,.33,2.57,.06,3.86-1.71-1.33-3.37-2.73-5.14-3.97-1.02-.71-2.2-1.19-3.35-1.69-.26-.11-.73,.02-.99,.2-.55,.39-.36,1.02-.04,1.38,2.63,2.96,5.32,5.86,9.43,6.77,.29,.97,.33,1.9-.47,2.69Z"/>
  <path class="cls-5" d="M202.42,330.59c-4.11-.9-6.8-3.81-9.43-6.77-.32-.36-.52-.98,.04-1.38,.26-.18,.73-.31,.99-.2,1.15,.5,2.33,.98,3.35,1.69,1.77,1.24,3.43,2.64,5.14,3.97-.03,.89-.05,1.79-.08,2.68Z"/>
  <path class="cls-7" d="M82.85,229.91c-.25,.29-.43,.7-.71,.79-1.93,.56-3.92,.95-5.83,1.57-3.48,1.14-6.92,2.42-10.4,3.6-.28,.1-.73-.06-1-.24-.1-.07-.03-.73,.12-.81,5.37-2.91,11.07-4.84,17.16-5.49,.19-.02,.43,.38,.65,.58Z"/>
  <path class="cls-11" d="M202.31,322.77c-2.23-2.52-3.07-5.69-3.86-8.81-.48-1.88-.8-3.98,1.26-5.38,.22,.28,.55,.53,.65,.85,1.4,4.34,2.15,8.77,1.95,13.34Z"/>
  <path class="cls-7" d="M53.36,241.19q3.29-2.46,6.03-2.63c-1.29,1.99-3.32,2.65-5.21,3.51-.28-.29-.55-.59-.83-.88Z"/>
  <path class="cls-7" d="M54.19,242.07c-.7,.54-1.37,1.13-2.12,1.59-.45,.27-1.08,.29-1.36-.29-.1-.2,.14-.72,.36-.87,.73-.49,1.52-.88,2.29-1.31,.27,.29,.55,.59,.83,.88Z"/>
  <path class="cls-7" d="M61.29,237.57c-.23,.1-.45,.25-.69,.29-.09,.02-.22-.19-.33-.3,.23-.1,.45-.25,.69-.29,.09-.02,.22,.19,.33,.3Z"/>
  <path class="cls-7" d="M63.37,236.41c-.05,.09-.12,.21-.19,.33-.2-.13-.39-.25-.59-.38,.14-.12,.28-.34,.4-.33,.13,0,.24,.24,.37,.38Z"/>
  <path class="cls-4" d="M383.81,106.68c-.55-.28-.84-.72-.84-1.35,10.29,.07,20.58,.12,30.87,.23,1.8,.02,3.65-.39,5.43,.41-.11,.17-.16,.3-.26,.37-.14,.11-.31,.26-.47,.26-11.58,.03-23.15,.06-34.73,.08Z"/>
  <path class="cls-5" d="M430.48,314.79c-3.98-7.04-8.85-13.47-13.76-19.85-10.98-14.28-23.22-27.39-36.66-39.39-1.2-1.07-2.79-1.85-3.06-3.7,1.69-1.1,3.4-2.18,5.07-3.31,19.95-13.37,42-18.74,65.66-15.61,30.44,4.02,53.97,19.52,70.21,45.62,10.95,17.59,15.43,36.97,13.72,57.55-3.79,45.63-37.87,78.75-76.82,86.64-39.09,7.92-79.25-9.32-100.61-43.21-.78-1.24-1.66-2.42-2.49-3.63,.49-1.29,.99-2.58,1.49-3.87,1.51-.65,3.04-1.24,4.51-1.96,10.98-5.44,21.96-10.88,32.92-16.36,11.12-5.56,22.21-11.18,33.32-16.77,1.31,.98,2.58,2.04,3.95,2.94,4.14,2.71,8.6,3.08,13.13,1.3,6.09-2.4,9.42-8.67,8.29-15.12-1.18-6.71-6.65-11.48-13.39-11.59-1.82-.03-3.65,.22-5.47,.33Z"/>
  <path class="cls-7" d="M473.76,234.18c.81-.69,1.54-.59,2.21-.31,1.51,.63,3.1,1.16,4.46,2.03,1.34,.87,3.62,.7,3.76,3.05-1.83,.53-3.06-.83-4.44-1.52-2-1.01-4.47-1.28-6-3.26Z"/>
  <path class="cls-7" d="M489.65,242.81c-1.23-.69-2.48-1.34-3.68-2.08-.38-.24-.86-.68-.42-1.21,.41-.5,1.02-.27,1.45,0,1.2,.75,2.34,1.58,3.5,2.38-.29,.31-.57,.62-.85,.92Z"/>
  <path class="cls-7" d="M495.64,245.6c1.58,.57,2.69,1.73,3.69,3.01-.3,.29-.6,.57-.9,.86-1.5-.64-2.62-1.74-3.65-2.95,.29-.3,.58-.61,.86-.91Z"/>
  <path class="cls-7" d="M492.93,245.05c-1.31-.43-2.43-1.14-3.29-2.24,.28-.31,.57-.61,.85-.92,1.25,.52,2.4,1.17,3.27,2.25-.28,.31-.56,.61-.84,.92Z"/>
  <path class="cls-7" d="M494.77,246.51c-.61-.49-1.23-.98-1.84-1.47,.28-.3,.56-.61,.84-.92,.62,.49,1.25,.98,1.87,1.47-.29,.3-.57,.61-.86,.91Z"/>
  <path class="cls-7" d="M502.61,251.89c.34,.47,1.1,.92,.24,1.49-.16,.1-.72-.39-1.09-.62,.28-.29,.57-.58,.85-.87Z"/>
  <path class="cls-7" d="M501.76,252.76l-1.11-1.1c.28-.29,.57-.59,.85-.88,.37,.37,.73,.74,1.1,1.11-.28,.29-.56,.58-.85,.87Z"/>
  <path class="cls-7" d="M500.65,251.66c-.37-.37-.74-.73-1.11-1.1,.28-.29,.57-.59,.85-.88,.37,.37,.74,.74,1.11,1.11-.28,.29-.57,.58-.85,.88Z"/>
  <path class="cls-7" d="M499.33,248.61c.35,.36,.71,.72,1.06,1.07-.28,.29-.57,.58-.85,.88-.37-.36-.74-.73-1.12-1.09,.3-.28,.6-.57,.9-.86Z"/>
  <path class="cls-13" d="M264.23,364.36c1.81-.06,3.61-.17,5.42-.15,3.92,.04,7.06,1.38,8.57,5.33,.46,1.21,1.05,2.34,2.6,2.38-1.34,.73-2.68,1.47-4.02,2.2-.45-1.33-1.41-1.98-2.73-2.36-2.78-.81-5.51-1.75-8.08-3.13-.97-.52-1.89-1.06-2.5-2.02,.24-.75,.49-1.5,.74-2.26Z"/>
  <path class="cls-14" d="M284.38,365.17v-5.51c.65,.11,1.3,.21,1.94,.32,.57,1.34,1.14,2.69,1.72,4.03,.22,.51,.56,1.12,.05,1.51-.49,.38-1.01-.03-1.35-.48-.86-1.12-1.58,.03-2.36,.14Z"/>
  <path class="cls-14" d="M283.75,366.15c0-.52,.1-.96,.72-1.04-.24,.35-.48,.69-.72,1.04Z"/>
  <path class="cls-14" d="M221.84,316.58c-2-.21-4-.37-5.99-.64-1.72-.24-2.05-.69-2.19-2.54-.01-.18-.01-.37-.02-.55-.15-18.33,.45-36.61,3.72-54.7,5.53,8.22,11.08,16.42,16.58,24.66,6.63,9.92,13.21,19.87,19.82,29.8,1.01,1.52,2.28,2.92,2.18,4.93-3.86-.08-7.73,.04-11.56-.29-7.51-.64-15.02-.77-22.54-.67Z"/>
  <path class="cls-3" d="M221.84,316.58c7.52-.1,15.04,.03,22.54,.67,3.83,.33,7.7,.2,11.56,.29,.97,.58,1.94,1.15,2.11,2.42-.04,1.04-.07,2.09-.1,3.13-3.72,.59-7.18-1.23-10.9-1.06-3.46,.16-6.92,.15-10.38-.78-2.07-.56-4.38-.32-6.58-.26-2.97,.09-5.85-.24-8.68-1.14,.14-1.09,.28-2.18,.42-3.27Z"/>
  <path class="cls-14" d="M273.81,359.23c-.69-1.44-1.42-2.86-2.06-4.32-.67-1.51-.91-3.1-.3-4.67,.6-1.55,2.06-1.78,3.48-2.05,.27-.05,.48-.46,.72-.7,0,0-.1-.04-.1-.04-.01,1.29,1.04,1.01,1.78,1.2,1.2,1.3,2.41,2.58,3.6,3.89,.99,1.09,1.65,2.3,1.3,3.84-1.14-.37-1.5-1.52-2.24-2.29-1.01-1.05-1.94-2.2-3.05-3.12-.95-.78-2.07-1.65-3.44-.73-.96,.65-1.12,1.85-.54,3.45,1.08,2.97,3.01,5.39,4.92,7.84,.96,1.23,2.49,2.1,2.72,3.85-1.03,.82-1.77-.03-2.54-.35-2.85-1.21-5.64-2.55-8.51-3.71-1.86-.76-3.83-1.22-5.86-1.08-.89,.06-1.86,.38-2.06,1.46-.22,1.22,.24,2.12,1.54,2.43,.36,.08,.71,.16,1.06,.24-.25,.75-.49,1.5-.74,2.26-1.07-.58-2.14-1.17-3.22-1.76-.13-1.01-.25-2.01-.38-3.02,.11-.66,.21-1.31,.32-1.97,2.13-1.48,4.45-1.55,6.85-.91,1.94,.51,3.88,1.07,5.81,1.61,.47,.11,1.17,.47,1.36,.29,.69-.65,.13-1.18-.43-1.62Z"/>
  <path class="cls-14" d="M284.42,359.7c-1.33-.74-2.01-1.9-2.24-3.37,2.13,.63,2.22,.78,2.24,3.37Z"/>
  <path class="cls-7" d="M257.95,323.09c.03-1.04,.07-2.09,.1-3.13,1.43,.83,2.36,1.97,2.26,3.73-.79-.2-1.58-.39-2.36-.59Z"/>
  <path class="cls-9" d="M423.97,336.93c-11.1,5.59-22.2,11.2-33.32,16.77-10.96,5.48-21.94,10.92-32.92,16.36-1.47,.73-3.01,1.31-4.51,1.96-1.62-1.01-2.22-2.6-2.46-4.38,8.71-4.25,17.44-8.47,26.12-12.77,13.6-6.75,27.17-13.56,40.76-20.33,1.31-.65,2.67-1.18,4.01-1.76,1.41,1.03,2.02,2.51,2.33,4.15Z"/>
  <path class="cls-13" d="M243.08,121.26c-.27,.29-.57,.77-.99,1.06-2.26,1.52-4.54,3.01-6.83,4.48-.59,.38-1.3,.94-1.89,.16-.56-.72-.06-1.32,.59-1.75,2.42-1.61,4.83-3.23,7.27-4.81,.28-.18,.68-.3,1-.27,.33,.03,.65,.26,.93,.46,.07,.05-.03,.34-.07,.68Z"/>
  <path class="cls-13" d="M225.77,107.82c-1.19-.27-1-1.81-2.03-2.22,2.53-3.23,6.14-3.37,9.78-3.39,.21,0,.6,.42,.6,.65,0,.29-.26,.76-.5,.84-2.25,.69-4.52,1.28-6.77,1.96-1.06,.32-1.24,1.19-1.09,2.17Z"/>
  <path class="cls-4" d="M423.97,336.93c-.31-1.65-.92-3.12-2.33-4.15,.12-.54,.39-1.1,.31-1.61-.87-5.31,1.08-9.66,4.49-13.54,1.61-.57,3.24-1.11,4.02-2.84,1.83-.11,3.65-.36,5.48-.33,6.75,.11,12.21,4.88,13.39,11.59,1.14,6.45-2.2,12.72-8.29,15.12-4.53,1.79-8.99,1.42-13.13-1.3-1.37-.9-2.64-1.95-3.95-2.94Z"/>
  <path class="cls-4" d="M371.93,255.97c-3,3.18-6.1,6.28-8.98,9.56-2.28,2.61-4.28,5.46-6.42,8.18-.65,.83-1,1.98-2.27,2.17-.56-1.51,.06-2.84,.56-4.23,2.42-6.7,4.79-13.43,7.18-20.14,.86-.45,1.73-.9,2.59-1.35,3.17,1.02,5.56,3.03,7.34,5.8Z"/>
  <path class="cls-4" d="M354.3,275.79c.28,1.13-.19,1.86-1.22,2.3-.14-1.06-.11-2.02,1.22-2.3Z"/>
  <path class="cls-4" d="M353.14,277.93c.11,1.05-.28,1.85-1.18,2.4-.09-1.03,.09-1.94,1.18-2.4Z"/>
  <path class="cls-12" d="M330.62,25.17c3.75,.66,7.23,2.07,10.57,3.86-2.21,.12-4.32,.47-6.42,1.33-2.72,1.12-4,.12-4.32-3-.07-.72,.11-1.46,.17-2.19Z"/>
  <path class="cls-13" d="M341.89,35.85c.03,.7-.38,1.12-.92,1.13-1.55,.02-2.81,.55-3.85,1.7-.13,.15-.71,.07-.96-.09-.52-.35-.55-.89-.2-1.4,1.15-1.63,2.3-3.26,3.49-4.86,.31-.42,.74-.88,1.37-.61,.92,.39,.69,1.11,.36,1.76-.54,1.06,.54,1.6,.71,2.37Z"/>
  <path class="cls-13" d="M313.13,32.7c.43-.3,.83-.67,1.3-.9,.91-.46,1.79-.12,1.57,.56-.71,2.3-.69,4.64-.68,7,0,.23-.41,.64-.64,.65-.3,.01-.76-.22-.89-.48-.3-.63-.6-1.34-.63-2.02-.07-1.63,.02-3.26,.05-4.9l-.09,.09Z"/>
  <path class="cls-13" d="M324.11,41.81c-1.07,2.41-2.52,3.35-5.12,3.24-.27-.01-.56-.38-.78-.63-.08-.09-.07-.42,.01-.47,1.67-1.08,3.35-2.14,5.04-3.19,.1-.06,.4-.01,.45,.08,.17,.3,.27,.64,.4,.97Z"/>
  <path class="cls-13" d="M323.2,29.59c-.06,.63-.03,1.19-.17,1.7-.13,.46-.2,1.17-1,.88-.3-.11-.68-.36-.78-.63-.37-1.04-.37-2.13-.01-3.18,.09-.27,.49-.47,.78-.64,.42-.24,.72-.08,.83,.39,.13,.52,.25,1.03,.35,1.47Z"/>
  <path class="cls-13" d="M323.14,22.44c.39,.12,.77,.23,1.16,.34,.36,.34,.72,.69,1.08,1.03,0,0-.02-.08-.02-.08-.05,.74-.22,1.59-1.08,1.53-1.24-.08-2.47-.41-3.68-.72-.24-.06-.41-.52-.53-.83-.16-.4,.01-.73,.45-.82,.87-.18,1.75-.31,2.62-.46Z"/>
  <path class="cls-13" d="M313.21,32.61c-1.1,.06-2.26,.19-2.27-1.44,0-.72,.04-1.44,.18-2.14,.05-.23,.47-.53,.73-.53,.29,0,.8,.25,.83,.46,.21,1.23,.3,2.49,.44,3.73,0,0,.09-.09,.09-.09Z"/>
  <path class="cls-12" d="M330.94,50.39c-.44-.24-.48-.52-.06-.78,.12-.07,.33,0,.49,0-.19,.24-.37,.47-.55,.71,0,0,.12,.07,.12,.07Z"/>
  <path class="cls-3" d="M325.37,23.82c-.36-.34-.72-.69-1.08-1.03,.58,.12,1.02,.38,1.08,1.03Z"/>
  <path class="cls-2" d="M285.56,107.76c-.45,.14-.66,0-.61-.41,0-.02,.28-.07,.34-.01,.12,.11,.17,.29,.25,.44v-.02Z"/>
  <path class="cls-14" d="M340.77,250.28c1.9,.48,3.86,.86,5.11,2.84q-4.21,.36-5.1-2.86l-.02,.02Z"/>
  <path class="cls-2" d="M321.04,106.26c3.1-1.61,5.38-2.2,7.82-.77,.26,.15,.49,.54,.52,.85,.07,.62-.4,.99-.93,1.08-2.33,.39-4.36-.79-7.41-1.15Z"/>
  <path class="cls-4" d="M110.16,314.85c1.4,.93,2.86,1.72,4.56,1.95,.89,1.17,1.84,2.29,2.65,3.51,3.23,4.88,3.6,9.99,.64,15.06-2.96,5.09-7.6,7.31-13.45,6.72-5.65-.57-9.47-3.71-11.49-8.94-3.32-8.59,2.9-18.13,12.17-18.65,1.63-.09,3.29,.23,4.93,.35Z"/>
  <path class="cls-5" d="M273.81,359.23c.56,.44,1.12,.97,.43,1.62-.19,.18-.89-.18-1.36-.29,.31-.44,.62-.89,.93-1.33Z"/>
</svg>