<?xml version="1.0" encoding="UTF-8"?>
<svg id="Capa_1" data-name="Capa 1" xmlns="http://www.w3.org/2000/svg" viewBox="0 0 570.7 457.66">
  <defs>
    <style>
      .cls-1 {
        fill: #f7b468;
      }

      .cls-2 {
        fill: #f7c53a;
      }

      .cls-3 {
        fill: #ed8575;
      }

      .cls-4 {
        fill: #f49b44;
      }

      .cls-5 {
        fill: #fff;
      }

      .cls-6 {
        fill: #edb221;
      }

      .cls-7 {
        fill: #fae1ca;
      }

      .cls-8 {
        fill: #a2483c;
      }

      .cls-9 {
        fill: #b56a4d;
      }

      .cls-10 {
        fill: #cba153;
      }

      .cls-11 {
        fill: #141011;
      }

      .cls-12 {
        fill: #543434;
      }

      .cls-13 {
        fill: #54794a;
      }
    </style>
  </defs>
  <path class="cls-8" d="M486.32,183.45c2.53,14.16,8.01,27.44,12.26,41.09,6.75,21.68,13.66,43.31,19.3,65.32,3.19,12.43,5.11,25.06,6.49,37.77,1.61,14.8,2.94,29.64,4.3,44.47,.4,4.37,.53,8.77,.72,13.16,.07,1.72-.52,2.33-2.33,2.54-4.36,.51-8.73,.98-13.09,1.47-2.72-.46-5.27,.64-7.92,.87-10.62,.89-21.25,1.75-31.88,2.62-2.86,.13-5.72,.4-8.57,.34-2.25-.05-2.9-.78-3.21-3.17-.71-5.49-1.41-10.99-1.94-16.5-.96-9.89-1.71-19.79-2.68-29.68-1.86-18.81-3.69-37.63-6.96-56.28-.26-1.5-.61-2.99-.98-4.47-.16-.65,.02-1.66-.92-1.76-1-.1-1.11,.85-1.26,1.57-.82,3.92-1.58,7.86-2.41,11.78-6.28,29.51-13.5,58.79-21.94,87.76-.85,2.93-1.95,5.78-2.9,8.69-.63,1.95-1.98,2.71-3.93,2.47-3.98-.48-7.95-1.01-11.93-1.5-1.32-.16-2.64-.28-3.96-.41-1.47-.4-2.92-.94-4.42-1.17-11.3-1.69-22.41-4.32-33.56-6.74-3.88-1-7.78-1.93-11.63-3.05-1.99-.58-2.46-1.5-1.9-3.45,1.57-5.51,3.2-10.99,4.86-16.48,6.05-20.1,12.38-40.13,18.11-60.33,4.84-17.07,8.89-34.37,13.46-51.52,6.05-22.69,12.25-45.33,18.41-67.98,.25-.91,.71-1.75,1.08-2.62-.15,2.5,1.06,4.01,3.44,4.53,2.98,.65,5.98,1.17,8.97,1.77,7.71,1.54,15.57,1.33,23.36,1.96,8.94,.72,17.9-.59,26.84-1.22,5.5-.39,10.97-1.34,16.45-2.04,.77,.06,1.53,.13,2.3,.19Zm-72.7,17.54c-2.87,2.45-6.42,3.83-10.69,6.45,5.59-.23,8.78-2.28,11.4-5.48,.6-.34,1.27-.72,.53-1.45-.13-.13-.82,.31-1.24,.48Zm34.21,75.21c1.56-1.78,1.49-3.36,1.65-4.79,.93-8.16,1.75-16.33,2.64-24.49,1.21-11.2,2.44-22.39,3.67-33.59,.02-.19,.06-.38,.08-.57,.14-1.91,1.06-3.22,2.92-3.81,2.54-.81,5.07-1.69,7.63-2.43,5.5-1.59,11.01-3.11,16.52-4.67,.55-.16,1.1-.45,.81-1.13-.09-.22-.67-.42-.97-.35-3.34,.79-6.7,1.51-9.99,2.47-5.12,1.5-10.21,3.12-15.29,4.78-1.95,.64-3.04,1.95-3.25,4.2-.59,6.27-1.43,12.52-2.13,18.78-1.44,12.9-2.87,25.81-4.27,38.72-.22,2.07-.73,4.15-.01,6.88Zm-31.71-76.29c.53-.48,1.14-.9,1.6-1.46,2.29-2.85,3.14-5.54,1.99-5.16-1.71,.56-2.06,2.47-3.09,3.72-.47,.57-.78,1.27-1.13,1.94-.06,.11,.05,.34,.14,.48,.08,.13,.23,.23,.5,.48Z"/>
  <path class="cls-1" d="M316.33,189.19c-1.49-.33-2.96-.83-4.46-.97-9.29-.91-18.6-1.68-27.88-2.62-9.28-.94-18.55-2.07-27.83-3.04-5.31-.55-10.63-.92-15.94-1.45-5.88-.58-11.75-1.19-17.61-1.9-3.97-.48-7.97-.73-11.95-1.1-7.2-.67-14.38-1.92-21.65-1.79-.84-1.1-2.06-.89-3.21-.97-.24-.19-.36-.45-.36-.75,.09-1.23-.13-2.41-1.58-2.53-1.95-.15-3.72-.39-4.78-2.37-.35-.65-1.26-1.04-2-.74-3.06,1.22-6.39,.31-9.53,1.44-2.63,.94-5.48,.46-8.84-.51,1.29-1.91,3.07-3.46,3.64-5.7,.13-.51,.09-1.2-.17-1.63-.4-.7-1.19-.92-1.98-.7-4.22,1.19-8.2,2.95-11.85,5.4-.98,.66-1.91,1.23-3.13,1.06-.11-2.89,.54-5.79-.17-8.67,1.78-1.38,1.48-3.38,1.41-5.22-.22-5.86,1.73-11.54,1.33-17.41,1.37-4.02,1.02-8.19,1.02-12.32,.32-1.29,.81-2.56,.94-3.87,.92-9.5,1.7-19.02,2.66-28.52,.93-9.31,2.04-18.6,3.02-27.9,.5-4.75,.91-9.51,1.35-14.26,.07-.76,.05-1.54,.16-2.29,.56-3.65,2.91-5.88,6.56-5.9,3.05-.02,6.12,.2,9.16,.49,6.65,.63,13.29,1.35,19.93,2.06,5.69,.61,11.38,1.28,17.07,1.89,4.37,.47,8.74,.91,13.11,1.32,13.11,1.25,26.23,2.43,39.34,3.75,9.3,.93,18.58,2.11,27.89,3.05,9.5,.96,19.02,1.71,28.52,2.65,4.73,.46,9.44,1.12,14.16,1.69,1.99,5.98,1.29,12.1,.65,18.13-.24,2.25-.66,4.49-.71,6.78-.03,1.34,.2,2.77-.21,3.99-1.74,5.15-.1,10.7-2.05,15.79,.45,5.37-1.8,10.53-1.22,15.91,.08,.74,0,1.58-.28,2.25-1,2.38-.77,4.87-.84,7.35-.04,1.33,.15,2.78-.29,3.97-.97,2.61-.85,5.26-.84,7.92,.01,4.96-1.64,9.77-1.35,14.75,.01,.18-.05,.38-.13,.55-1.07,2.36-.77,4.87-.83,7.34-.04,1.53,.25,3.18-.23,4.55-1.23,3.55-.76,7.18-1,10.78q-4.35,1.15-4.58,5.57c-.04,.73-.08,1.46-.12,2.19-1.52,.14-2.09,1.15-2.31,2.5Z"/>
  <path class="cls-13" d="M112.07,193.26c1.44,4.41,1.23,9.07,1.84,13.59,1.13,8.32,1.81,16.7,2.68,25.05,1.4,13.48,2.81,26.96,4.19,40.44,.93,9.11,1.82,18.23,2.74,27.35,1.35,13.29,2.75,26.58,4.04,39.88,1.18,12.15,2.23,24.32,3.33,36.48-.95,.07-1.9,.17-2.86,.19-14.33,.35-28.67-.19-42.98,.91-1.05,.08-1.79-.72-1.67-1.79,.09-.76,.22-1.51,.4-2.25,1.66-6.86,3.43-13.7,4.99-20.58,2.78-12.28,5.52-24.58,6.76-37.14,.15-1.51,.24-3.1-.08-4.56-.53-2.46-.46-4.94-.63-7.42-.48-6.86-.92-13.72-1.51-20.57-.51-5.89-1.29-11.76-1.81-17.65-.56-6.27-.65-12.6-1.51-18.83-.71-5.13-.64-10.3-1.32-15.4-.28-2.1-.84-4.1,.17-6.15,.09-.18-.22-.78-.46-.85-.3-.1-.77,.04-1.07,.23-1.09,.68-1.4,1.7-1.29,2.95,1.08,12.16,2.14,24.33,3.21,36.49,.07,.76,.15,1.52,.22,2.28,.61,6.07,1.3,12.14,1.8,18.22,.59,7.23,.53,14.55,1.63,21.69,1.02,6.6,.31,12.97-.73,19.35-2.05,12.62-4.92,25.08-7.88,37.52-.93,3.9-1.96,7.77-3.06,11.63-.59,2.05-1.29,2.36-3.4,1.95-.75-.15-1.46-.44-2.2-.62-17.59-4.37-35.18-8.73-52.78-13.1,3.5-15.18,6.99-30.37,10.52-45.54,.99-4.26,2.15-8.47,3.23-12.71,5.13-.33,10.11-1.41,14.87-3.35,2.07-.84,3.1-2.15,2.71-3.17-.6-1.56-1.92-2.31-3.46-2.63-.73-.15-1.53-.2-2.25-.05-2.25,.46-4.36,1.3-6.1,2.85-.33,.3-.29,1.01-.42,1.53,0,0,.03-.03,.03-.03-1.93-.82-3.14,1.19-4.85,1.24-1.06-7.57-2.18-15.13-3.17-22.72-1.04-7.96-1.97-15.94-2.93-23.92-2.58-21.51-1.24-42.76,4.32-63.72,10.77,1.71,21.65,2.58,32.52,3.06,14.72,.65,29.46,.34,44.19-.13Zm-8.11,20.02c-.19,.01-.42-.05-.56,.04-3.38,2.24-7.42,3.61-9.69,7.31-.01,.02,.3,.35,.42,.33,3.8-.82,6.31-3.8,9.49-5.68,.44-.26,.68-.85,.98-1.31,.05-.07-.07-.31-.18-.41-.12-.13-.31-.19-.46-.28Zm-11.5,8.73c-.44-.16-.77-.4-1.05-.36-.55,.08-1.07,.44-1,1.06,.07,.62,.65,.82,1.13,.5,.39-.26,.61-.77,.92-1.2Z"/>
  <path class="cls-2" d="M484.02,183.26c-5.48,.7-10.94,1.65-16.45,2.04-8.94,.63-17.9,1.94-26.84,1.22-7.78-.63-15.65-.42-23.36-1.96-2.99-.6-5.99-1.12-8.97-1.77-2.38-.52-3.59-2.03-3.44-4.53,.02-3.37,.05-6.74,.07-10.1-.04-6.8-.07-13.6-.1-20.4,1.88-4.45,2.3-9.23,2.92-13.94,.17-1.25-.33-2.63-.68-3.91-.27-.99-1.08-1.55-2.14-1.57-1.06-.02-1.8,.53-2.29,1.43-.95,1.74-1.2,3.64-1,5.56,.44,4.17,.7,8.37,2.12,12.37-4.19,6.69-8.38,13.38-12.55,20.08-1.99,3.19-4.07,6.34-4.66,10.16-2.31,2.12-3.39,4.97-4.65,7.73-.55,1.21-1.05,2.45-1.7,3.61-.52,.92-1.34,1.26-2.37,.63-1.62-.98-3.25-1.94-4.88-2.9-.21-.31-.35-.72-.63-.93-7.17-5.28-14.35-10.55-21.56-15.78-.58-.42-1.41-.48-2.13-.71-1.03-2.23-3.22-3.14-5.05-4.44-2.61-1.86-3.55-4.34-2.97-7.44,.42-2.23,.72-4.49,1.36-6.66,3.21-10.9,6.36-21.83,11.72-31.96,1.41-2.67,2.45-5.53,3.66-8.3,.81-1.05,1.72-2.04,2.4-3.17,14.11-23.47,35.03-38.2,60.44-47.17,7.21-2.54,14.61-4.28,22.18-5.28,.09,1,.18,2,.27,3-.91,.83-.82,1.79,.08,2.39,6.04,4.07,12.6,5.26,19.64,3.24,1.29-.37,.95-1.39,.26-2.22-.04-1.48-.09-2.95-.13-4.43,4.14,1.58,8.3,3.14,11.35,6.59-.07,1.4,.68,2.53,1.15,3.77,.8,2.12,1.91,4.25,2.12,6.45,.68,7.14,2.79,14.12,2.46,21.37-.03,.56-.04,1.19,.16,1.69,1.34,3.29,.94,6.74,.94,10.14,0,2.31,.16,4.55,1.3,6.62-.33,4.95-.07,9.88,.4,14.82,.29,3.03,.41,6.07,.54,9.12,.51,12.36,1,24.72,1.5,37.07-.17,2.82-.33,5.64-.49,8.46Zm-62.41-72.23s0,0,0,0c1.9,0,3.81,.16,5.68-.04,2.48-.26,4.05-2.18,4.1-4.64,.06-2.55-1.38-4.43-4.02-4.59-3.59-.21-7.21-.2-10.8-.02-2.42,.12-4.14,2.24-4.19,4.59-.05,2.3,1.69,4.42,4.11,4.68,1.69,.18,3.41,.03,5.11,.03Z"/>
  <path class="cls-2" d="M112.07,193.26c-14.73,.47-29.48,.78-44.19,.13-10.87-.48-21.74-1.35-32.52-3.06-2.17-18.02-3.03-36.11-2.46-54.25,.3-9.73,1.27-19.4,3.44-28.92,4.11-18.03,15.79-28.61,33.18-33.41,2.55-.7,5.27-.78,7.91-1.15,.53,1.76-.31,3.82,1.21,5.35,.09,.98,.38,1.84,1.33,2.35,3.04,1.62,6.23,2.79,9.66,3.14,2.69,.27,5.41,.03,7.54-1.8,1.18-1.02-.03-1.48-.95-1.77-.17-1.35-.13-2.65,.81-3.76,5.3,1.5,9.23,4.75,13.05,8.73,8.29,8.65,16.83,17.13,27.24,23.37,.65,.39,1.34,.73,1.98,1.14,1.64,1.06,1.86,1.65,1.16,3.26-.61,1.39-1.29,2.76-1.94,4.13-.56,.74-1.2,1.43-1.65,2.23-3.28,5.73-6.69,11.38-9.71,17.24-2.41,4.68-5.79,8.86-7.33,13.99-.81,.73-1.51,1.69-2.46,2.12-1.17,.52-1.91-.76-2.82-1.29-.87-.51-1.31-.02-1.73,.63-2.04-.2-3.49-1.45-4.87-2.79-2.61-2.52-5.19-5.08-7.8-7.6-1.51-1.46-2.05-1.49-3.21-.05-7.32,9.04-14.62,18.11-21.91,27.18-.85,1.06-.66,1.78,.78,2.75,5.41,3.64,11.34,6.27,17.28,8.9,6.14,2.72,12.69,4.06,19.12,5.82l-.13,7.4Zm-55.41-27.98c2.65,4.33,6.51,7.44,10.49,10.43,.48,.36,1.06,.56,1.52,.12,.49-.45,.33-1.07-.12-1.48-3.69-3.31-7.41-6.6-11.11-9.89-.46-1.73-1.67-2.98-2.76-4.31-4.42-5.38-7.67-11.43-9.91-17.99-2.04-5.98-3.5-12.11-3.98-18.44-.03-.38-.01-.77-.09-1.14-.14-.71-.08-1.64-1.04-1.77-1.24-.18-1,.95-1.01,1.55-.04,1.33,0,2.69,.24,4,.61,3.38,1.15,6.8,2.05,10.11,2.95,10.84,7.48,20.85,15.74,28.81Zm46.11-45.19s0,.02,0,.03c1.34,0,2.68,0,4.02,0,.38,0,.77-.03,1.14-.1,2.49-.48,4.1-2.35,4.12-4.77,.02-2.45-1.51-4.66-3.98-4.84-3.61-.26-7.26-.25-10.87,.01-2.43,.18-4.25,2.52-4.28,4.7-.03,2.44,1.99,4.67,4.69,4.93,1.71,.16,3.44,.03,5.16,.03Z"/>
  <path class="cls-2" d="M99.4,446.47c-.1,2.48-.08,4.98-.32,7.45-.27,2.75-.88,4.51-4.81,3.42-10.5-2.92-20.9-6.11-31.28-9.43-19.29-6.18-38.57-12.38-57.85-18.57-1.27-.41-2.54-.83-3.81-1.26-1.04-.36-1.56-1.02-1.22-2.16,.6-2.02,1.21-4.03,1.79-6.05,.35-1.23,1.05-2.05,2.4-2,1.92,.07,2.56-1.19,3.2-2.7,2.08-4.93,4.21-9.84,6.42-14.72,.86-1.91,1.98-3.71,2.98-5.56,.91-1.66,2.33-2.46,4.2-2.55,3.58,1.79,7.21,3.49,10.74,5.39,5.9,3.17,11.87,3.66,18.16,1.19,2.64-1.04,5.47-1.61,8.21-2.39,2.15,1.08,3.34,3.06,4.51,5.02,1.47,2.44,2.87,4.93,4.26,7.41,1.61,2.87,3.77,5.23,6.39,7.2,.93,.7,1.74,.48,2.56-.15,.51,1.64,1.15,3.08,2.77,4.1,2.87,1.8,5.61,3.83,8.33,5.86,6.9,5.15,12.12,11.33,12.37,20.5Z"/>
  <path class="cls-6" d="M99.4,446.47c-.25-9.17-5.48-15.35-12.37-20.5-2.72-2.03-5.46-4.06-8.33-5.86-1.62-1.02-2.26-2.45-2.77-4.1,.27-1.84,.44-3.71,.83-5.52,.41-1.86,1.18-3.56,3.19-4.27,4.39,.17,8.65,1.21,12.94,2.02,3.85,.73,7.7,.73,11.18-1.07,3.87-2,7.75-4.13,10.56-7.66,1.4-.01,2.81-.03,4.21-.04,2.43,2.14,4.96,4.18,7.28,6.44,4.18,4.06,8.79,7.26,14.54,8.73,3.32,.85,6.56,2.04,9.81,3.14,2.35,.8,4.66,1.69,6.98,2.57,6.51,2.47,10.67,7.2,12.97,13.66,1.09,3.05,2.22,6.11,2.53,9.37,.18,1.95-.53,2.92-2.53,2.97-6.68,.17-13.36,.31-20.04,.3-16.99-.01-33.99-.11-50.98-.18Z"/>
  <path class="cls-4" d="M357.46,110.79c-1.21,2.77-2.25,5.64-3.66,8.3-5.36,10.13-8.51,21.05-11.72,31.96-.64,2.17-.94,4.43-1.36,6.66-.58,3.09,.35,5.58,2.97,7.44,1.83,1.3,4.03,2.21,5.05,4.44-1.93,3.24-4.61,5.37-8.47,5.78-3.71,.4-7.42,.81-11.14,1.19-1.93,.19-3.12,1.13-3.44,3.09-.28,.21-.6,.35-.96,.39-.47-.37-.93-.74-1.4-1.1,.23-3.6-.24-7.23,1-10.78,.48-1.38,.19-3.03,.23-4.55,.07-2.47-.24-4.98,.83-7.34,.08-.17,.14-.37,.13-.55-.29-4.99,1.36-9.79,1.35-14.75,0-2.66-.13-5.31,.84-7.92,.44-1.2,.25-2.64,.29-3.97,.07-2.47-.16-4.96,.84-7.35,.28-.68,.36-1.52,.28-2.25-.57-5.38,1.67-10.54,1.22-15.91,1.95-5.09,.31-10.65,2.05-15.79,.41-1.21,.18-2.65,.21-3.99,.04-2.29,.47-4.53,.71-6.78,.64-6.03,1.34-12.16-.65-18.13,6.85,.6,13.7,1.18,20.54,1.81,1.13,.1,2.29,.24,3.38,.56,3.22,.94,4.77,2.92,4.87,6.23,.05,1.52-.07,3.06-.22,4.58-.98,9.49-2.02,18.98-2.98,28.48-.35,3.42-.53,6.86-.78,10.28Z"/>
  <path class="cls-3" d="M112.2,185.86c-6.43-1.76-12.98-3.1-19.12-5.82-5.94-2.63-11.87-5.26-17.28-8.9-1.43-.96-1.62-1.69-.78-2.75,7.29-9.07,14.59-18.13,21.91-27.18,1.17-1.44,1.7-1.4,3.21,.05,2.61,2.52,5.19,5.07,7.8,7.6,1.38,1.34,2.83,2.59,4.87,2.78,.66,1.72,2.18,2.53,3.62,3.43,9.03,5.63,18.52,10.25,28.76,13.23,1.22,.17,2.15-.4,3.13-1.06,3.65-2.45,7.63-4.21,11.85-5.4,.79-.22,1.58,0,1.98,.7,.25,.44,.3,1.13,.17,1.63-.57,2.24-2.36,3.79-3.64,5.7,3.36,.98,6.21,1.46,8.84,.51,3.13-1.13,6.46-.22,9.53-1.44,.75-.3,1.66,.09,2,.74,1.06,1.98,2.83,2.22,4.78,2.37,1.46,.11,1.67,1.29,1.58,2.53-5.6,3.6-11.49,6.47-18.26,7.06-.25,.02-.55,.48-.67,.79-.32,.83,.45,1,.9,1,6.68-.04,12.62-2.12,17.64-6.6,.39-.34,.51-.99,.75-1.49,1.14,.08,2.37-.12,3.21,.97-6.5,8.27-14.86,12.83-25.53,13.02-13.37,.23-26.69-.1-39.93-2.17-3.76-.59-7.56-.89-11.34-1.32Zm51.72-9.01c.2,.22,.42,.65,.65,.66,4.82,.14,9.29-1.2,13.49-3.47,.38-.2,.71-1.02,.61-1.44-.12-.5-.83-.67-1.39-.41-3.81,1.73-7.78,2.81-11.94,3.3-.5,.06-.97,.49-1.41,.8-.09,.06-.01,.36-.01,.57Z"/>
  <path class="cls-13" d="M539.22,413.22c.77,.56,1.63,1.03,2.31,1.69,2.22,2.17,4.64,2.81,7.81,2.27,3.56-.61,7.23-.19,10.86,.35,2.67,.4,4.66,1.65,6.16,3.77,1.66,2.36,3.11,4.84,3.2,7.86-13.33,1.25-26.67,2.15-40.07,2.33-14.55,.2-29.07-.44-43.59-1.12-3.62-.17-7.24-.53-10.86-.8-1.05-4.73-.63-9.5-.35-14.26,.28-4.77,.67-9.54-.12-14.29-.28-1.67,.05-3.02,1.56-3.95,2.82-.37,5.62-.82,8.45-1.08,9.82-.92,19.65-1.78,29.47-2.67,4.29,3.42,8.58,6.84,12.87,10.26-.05,.53-.11,1.06-.16,1.59,0,0,.03-.03,.03-.03-1.23,.36-1.63,1.14-1.17,2.34l.04-.05c-.9-.11-1.26,.32-1.19,1.19l.03-.04c-1.35-.14-2.22,.47-2.28,1.81-.05,1.18,.92,1.57,1.89,1.59,5.07,.11,10.02,1.77,15.14,1.23Z"/>
  <path class="cls-13" d="M400.21,396.84c3.57,3.08,7.68,5.56,10.54,9.44l-.04,.04c-2.14,.17-3.25,1.36-3.47,3.46l.03-.04c-1.41,.35-2.14,1.49-2.9,2.57-.59,.84-.14,1.83,.92,2.12,4.97,1.39,10.13,1.02,15.2,1.56,.48,.05,1.01-.47,1.52-.72,.61,.44,1.34,.78,1.82,1.33,2.34,2.67,5.18,3.23,8.65,2.92,3.16-.28,6.39,.34,9.6,.54,3.09,.19,5.31,1.77,6.96,4.28,1.47,2.23,2.6,4.59,2.85,7.3-7.32,1.42-14.77,1.72-22.16,1.98-24.18,.86-48.37,.63-72.52-1.17-.92-7.35,.58-14.5,2.05-21.61,.7-3.4,1.28-6.74,1-10.21-.1-1.3-.26-2.72,1.05-3.66,6.67-.11,13.34-.29,20.02-.31,6.29-.02,12.58,.11,18.87,.18Z"/>
  <path class="cls-13" d="M118.85,399.48c-1.4,.01-2.81,.03-4.21,.04-6.61-.04-13.22-.1-19.82-.1-4.9,0-9.81,.08-14.71,.12-3.06-.18-5.98-1.06-8.93-1.81-4.24-1.09-8.28-2.95-12.73-3.2-.86-.37-1.7-.83-2.59-1.08-7.87-2.28-15.74-4.56-23.63-6.76-2.92-.81-5.71-2.18-8.82-2.24-.16-.11-.3-.24-.47-.31-5.59-2.26-4.94-.59-3.61-7.22,.82-4.07,2.05-8.05,3.09-12.08,.94,.13,1.91,.16,2.83,.39,16.45,4.11,32.9,8.23,49.34,12.37,1.29,.33,2.56,.74,3.84,1.13,1.1,.33,1.51,1.16,1.27,2.19-.52,2.22-1.17,4.42-1.7,6.64-.4,1.66-.73,3.34-1.01,5.03-.02,.14,.5,.42,.81,.56,.12,.06,.45-.02,.49-.12,.53-1.21,1.13-2.41,1.49-3.68,.73-2.56,1.25-5.19,2-7.74,.72-2.45,.99-2.63,3.64-2.69,4.2-.1,8.4-.1,12.6-.16,11.06-.15,22.12-.1,33.16-.94,.54,5.86,1.15,11.71,1.6,17.57,.16,2.14-.38,2.64-2.57,2.9-3.77,.44-7.55,.79-11.33,1.18Z"/>
  <path class="cls-3" d="M323.33,178.93c.47,.37,.93,.74,1.4,1.1,.15,.8,.58,1.47,1.29,1.78,4.7,2,9.58,2.29,14.53,1.29,1.07-.21,2.05-.94,3.01-1.52,.24-.15,.4-.72,.31-1.01-.08-.25-.63-.58-.85-.51-3.29,1.07-6.64,1.71-10.09,1.12-2.43-.42-4.83-1.01-7.24-1.53,.32-1.95,1.52-2.9,3.44-3.09,3.72-.37,7.43-.79,11.14-1.19,3.86-.41,6.54-2.55,8.47-5.78,.72,.23,1.55,.29,2.13,.71,7.21,5.22,14.39,10.5,21.56,15.78,.29,.21,.42,.62,.63,.93-3.26,4.03-7.04,7.5-11.18,10.62-4.69,3.53-9.83,4.95-15.62,4.07-8.53-1.29-16.87-3.31-24.75-6.92-2.46-1.13-4.84-2.44-5.18-5.59,.22-1.34,.79-2.36,2.31-2.5,7.9,3.22,16.08,4.66,24.61,3.81,.74-.07,1.49-.25,2.18-.51,.21-.08,.39-.62,.33-.89-.07-.29-.41-.64-.69-.71-.54-.14-1.13-.17-1.69-.12-8.12,.68-15.97-.38-23.51-3.58-.34-.14-.75-.13-1.12-.18q.23-4.42,4.58-5.57Z"/>
  <path class="cls-3" d="M442.75,58.17c-.09-1-.18-2-.27-3,.23-2.46,.16-4.89-.29-7.33-.51-2.78-.44-2.79-3.31-3.41-4.62-1.01-7.58-4.6-7.41-9.25,.05-1.47,.61-2.93,.93-4.4,.55-.05,1.18,.07,1.63-.17,3.36-1.73,6.42-1.51,9.25,1.13,.33,.31,.95,.31,1.62,.5,.66-2.65-.9-4.85-.95-7.23,1.98-.56,3.95-1.13,5.93-1.69,.91,.21,2,.95,2.22-.78l-.1,.08c.69-.03,1.38-.09,2.07-.08,1.21,.01,1.36-.77,1.34-1.71,1.64-.32,3.28-.63,4.92-.95-.03,.84,.34,1.48,1.18,1.52,1.65,.08,3.3,.02,4.95,.01,2.07,4.93,2.85,10.09,3.09,15.42,.29,6.44-1.73,11.46-7.75,14.43-4.35-.32-8.66-.84-12.79-2.37-.45-.17-1.07,.11-1.62,.18,.23-.4,.14-.62-.29-.63-.01,0-.08,.26-.04,.3,.12,.11,.28,.17,.43,.25,.81,2.64,3.21,3.5,5.33,4.51,2.88,1.38,6,2.01,9.19,2.26,.19,.46,.37,.92,.56,1.39,.04,1.48,.09,2.95,.13,4.43-1.39,.66-2.84,1.03-4.4,1.11-5.73,.29-10.92-1.16-15.57-4.52Zm20.85-28.65c-.18-.05-.38-.06-.55-.15-.63-.32-1.1-1.15-1.96-.81-1.05,.42-.53,1.22-.29,1.86,.68,1.78,1.28,3.56,1.22,5.52-.01,.44,.55,1.28,.81,1.27,.85-.05,1.3-.85,1.26-1.6-.11-2.07-.38-4.13-.58-6.19,1.2,.13,2.25,.02,2.2-1.56-.02-.54-.12-1.09-.29-1.61-.17-.5-.4-1.01-1.07-1.07-.8-.07-.85,.57-.87,1.03-.03,1.1,.07,2.19,.12,3.29Zm-2.91,11.35c-.05-.11-.09-.34-.22-.43-2.21-1.51-4.78-2.08-7.32-2.66-.59-.14-1.3,.98-1.09,1.62,1.26,3.86,4.67,5.11,7.99,2.91,.44-.29,.9-.71,.64-1.44Zm-19.2-2.87c0-.19,.05-.42-.04-.55-1.36-2.03-3.03-3.78-4.96-5.27-.2-.15-.76-.06-.99,.12-.23,.18-.45,.73-.34,.93,.62,1.08,.48,2.05-.05,3.13-.25,.5,.22,1.17,.81,1.13,1.74-.11,3.26,.48,4.81,1.12,.14,.06,.5-.39,.75-.61Zm11.6-10.34c.07,.48,.08,1.06,.24,1.59,.16,.5,.36,1.12,1.12,.95,.61-.13,.88-.57,.92-1.18,.05-.96,0-1.91-.72-2.62-.23-.23-.66-.29-1.01-.36-.07-.01-.24,.28-.29,.46-.1,.35-.16,.72-.25,1.16Z"/>
  <path class="cls-1" d="M357.22,432.45c24.15,1.8,48.34,2.03,72.52,1.17,7.39-.26,14.84-.56,22.16-1.98,.34,.89,.86,1.75,.98,2.67,1.05,7.84-.33,7.42-6.14,7.49-4.39,.05-8.78,.04-13.16,.23-18.48,.8-36.97,1.08-55.46,.87-5.34-.06-10.67-.28-15.97-.9-3.66-.43-3.89-.66-4.74-4.48-.37-1.69-.74-3.36-.2-5.07Z"/>
  <path class="cls-3" d="M78.65,77.95c-1.52-1.53-.69-3.59-1.21-5.35,.02-2.15,.04-4.31,.06-6.46q-.06-2.93-2.33-3.26c-.37-.05-.76,0-1.13-.07-3.98-.76-6.66-3.76-6.98-7.81-.17-2.13,.15-4.15,1.34-5.97,2.13-1.9,4.7-1.87,6.99-.86,4.09,1.81,7.41,.23,10.8-1.69,1.14-.65,1.77-2.07,3.5-2.2,.11,.89,.2,1.78,.35,2.66,.12,.72,.23,1.58,1.24,1.47,.67-.07,.83-.76,.85-1.32,.13-2.84,.22-5.67,.32-8.51,1.34-1.38,2.99-1.38,4.7-1.04,.14,1-.1,2.3,1.55,2.2,1.11-.07,2.14,.11,3.09,.7,0,0-.04-.12-.04-.12-1.39,1.9-1.94,3.97-1.3,6.28,.16,.57,.54,1.09,1.1,.91,.4-.13,.69-.72,.94-1.16,.18-.31,.21-.71,.31-1.06,2.43,4.75,2.62,9.8,1.74,14.9-.8,4.64-3.38,7.97-7.98,9.53-4.75,.21-9.24-1.19-14.21-2.76,3.16,3.75,5.19,5.07,9.17,6.12,1.46,.39,2.94,.7,4.41,1.05,.37,.67,.74,1.33,1.11,2-.95,1.1-.98,2.41-.82,3.75-.63,.38-1.23,.98-1.9,1.09-3.17,.49-6.33,.57-9.4-.65-2.08-.82-4.19-1.57-6.28-2.35Zm-5.12-22.1c1.57-.02,2.58,1.09,3.1-.38,.3-.85-.39-1.4-.9-1.91-1.19-1.2-2.43-2.35-3.7-3.47-.18-.16-.75-.13-.95,.04-.22,.18-.34,.64-.29,.95,.15,.98,1.55,1.83,.23,2.96-.52,.44-1.57,.64-1.28,1.57,.42,1.39,1.5,.6,2.34,.49,.74-.1,1.48-.25,1.46-.24Zm19.62,1.27c-1.52,.05-2.12,1.12-1.79,1.71,1.61,2.83,4.93,3.37,7.17,1.09,.37-.38,.52-1.15-.14-1.44-1.93-.85-3.96-1.33-5.24-1.36Zm7.52-4.26c-.38-2.66-.89-5.2-2.26-7.49-.32-.53-.84-.76-1.37-.48-.24,.13-.47,.67-.41,.95,.66,2.7,1.38,5.39,2.1,8.07,.04,.16,.22,.37,.37,.4,.33,.07,.89,.19,.98,.04,.29-.45,.4-1.01,.57-1.49Z"/>
  <path class="cls-1" d="M475.02,429.58c3.62,.27,7.24,.63,10.86,.8,14.52,.68,29.04,1.33,43.59,1.12,13.4-.19,26.74-1.08,40.07-2.33,1.48,2.22,1.14,4.74,1.07,7.19-.04,1.3-.88,2.06-2.2,2.16-4.18,.3-8.35,.74-12.54,.83-24.02,.49-48.03,.84-72.05,.28-1.9-.04-3.8-.06-5.66-.62-1.65-.5-2.7-1.5-2.86-3.16-.21-2.08-.2-4.17-.29-6.26Z"/>
  <path class="cls-2" d="M449.9,23.33c-1.98,.56-3.95,1.13-5.93,1.69-4.37,.36-8.23,2.49-12.39,3.56-2.42-3.82-3.5-8.04-3.45-12.52,.05-5.39,2.37-9.57,6.99-12.41C439.13,1.18,443.61-.05,448.23,0c5.4,.06,10.05,2.21,13.17,6.93,.42,.64,.94,1.24,1.23,1.93,.93,2.23,2.61,2.52,4.68,1.99,.74-.19,1.48-.43,2.24-.51,1.52-.17,3.05-.3,4.57-.32,.89-.01,2.12-.33,2.46,.83,.43,1.45-.92,1.94-1.87,2.44-1.69,.88-3.44,1.68-5.22,2.38-1.79,.71-3.54,1.44-4.83,2.94-1.53,.1-3.06,.2-4.31,1.26-1.64,.32-3.28,.63-4.92,.95-1.22,.44-2.79,.22-3.41,1.79,0,0,.1-.08,.1-.08-1.03-.55-1.59,.21-2.22,.78Z"/>
  <path class="cls-2" d="M97.16,37.53c-1.72-.34-3.36-.34-4.7,1.04-1.17-.11-2.23,.21-3.31,.65-5.81,2.38-11.67,4.65-17.46,7.07-1.12,.47-2.14,.7-3.29,.49-1.12-1.97-1.47-4.33-3.05-6.06-.16-2.28-.39-4.55-.48-6.84-.2-5.02,2.06-8.85,6.09-11.6,3.84-2.62,8.12-4.12,12.83-4.3,5.78-.23,10.36,2.01,13.79,6.64,.45,.61,.91,1.24,1.25,1.91,.85,1.72,2.17,1.79,3.83,1.37,2.03-.51,4.1-.86,6.16-1.22,.74-.13,1.53-.2,2.26-.09,.51,.08,1.15,.39,1.4,.81,.51,.85-.26,1.42-.84,1.79-1.44,.92-2.95,1.73-4.45,2.55-2,1.09-4.02,2.15-6.03,3.23-.57,.14-1.15,.28-1.73,.42-1.1,.37-2.17,.77-2.28,2.18l.04-.04Z"/>
  <path class="cls-3" d="M119.83,150.2c1.54-5.13,4.92-9.31,7.33-13.99,3.02-5.86,6.43-11.52,9.71-17.24,.46-.8,1.1-1.49,1.65-2.23,3.3,2.81,6.36,5.93,10.27,7.96,0,4.13,.35,8.3-1.02,12.32,.4,5.86-1.55,11.55-1.33,17.41,.07,1.83,.38,3.84-1.41,5.21-8.94-1.71-17.31-4.96-25.21-9.44Z"/>
  <path class="cls-10" d="M131.15,377.83c-11.04,.84-22.1,.79-33.16,.94-4.2,.06-8.4,.06-12.6,.16-2.65,.06-2.91,.24-3.64,2.69-.75,2.56-1.27,5.18-2,7.74-.36,1.27-.97,2.46-1.49,3.68-.04,.1-.37,.18-.49,.12-.3-.14-.83-.42-.81-.56,.29-1.69,.61-3.37,1.01-5.03,.54-2.22,1.19-4.41,1.7-6.64,.24-1.04-.17-1.86-1.27-2.19-1.28-.39-2.55-.81-3.84-1.13-16.44-4.14-32.89-8.26-49.34-12.37-.92-.23-1.89-.27-2.83-.39-.26-.84-.23-1.62,.44-2.27,17.59,4.36,35.18,8.73,52.78,13.1,.74,.18,1.46,.48,2.2,.62,2.12,.42,2.82,.1,3.4-1.95,1.1-3.85,2.13-7.73,3.06-11.63,2.97-12.43,5.84-24.9,7.88-37.52,1.03-6.38,1.75-12.75,.73-19.35-1.11-7.14-1.05-14.46-1.63-21.69-.5-6.08-1.19-12.15-1.8-18.22-.08-.76-.16-1.52-.22-2.28-1.07-12.16-2.13-24.33-3.21-36.49-.11-1.25,.2-2.27,1.29-2.95,.3-.19,.76-.33,1.07-.23,.23,.08,.55,.67,.46,.85-1.01,2.04-.45,4.04-.17,6.15,.68,5.1,.61,10.27,1.32,15.4,.86,6.23,.95,12.56,1.51,18.83,.52,5.89,1.3,11.76,1.81,17.65,.59,6.85,1.03,13.71,1.51,20.57,.17,2.47,.11,4.95,.63,7.42,.31,1.46,.23,3.05,.08,4.56-1.25,12.56-3.99,24.86-6.76,37.14-1.56,6.88-3.33,13.72-4.99,20.58-.18,.74-.31,1.49-.4,2.25-.12,1.07,.62,1.88,1.67,1.79,14.31-1.1,28.66-.56,42.98-.91,.95-.02,1.91-.13,2.86-.19,.08,.59,.17,1.18,.25,1.77Z"/>
  <path class="cls-11" d="M65.34,40.71c1.58,1.74,1.93,4.09,3.05,6.06,0,.75,0,1.5,0,2.24-1.19,1.82-1.51,3.85-1.34,5.97,.32,4.05,3,7.05,6.98,7.81,.37,.07,.76,.02,1.13,.07q2.27,.32,2.33,3.26c-2.28,1.37-4.46,2.94-6.85,4.07-4.47,2.11-9.13,2.63-13.86,.75-8.27-3.28-11.4-11.97-7.17-19.78,1.89-3.49,4.81-5.9,8.23-7.71,2.36-1.25,4.86-2.2,7.49-2.75Z"/>
  <path class="cls-3" d="M400.21,396.84c-6.29-.07-12.58-.2-18.87-.18-6.67,.03-13.34,.2-20.02,.31,.33-2.02,.73-4.03,.97-6.07,.28-2.4,.92-4.79,.29-7.22,11.16,2.42,22.26,5.05,33.56,6.74,1.5,.22,2.95,.77,4.42,1.17-.12,1.75-.24,3.5-.36,5.25Z"/>
  <path class="cls-3" d="M23.4,384.44c3.11,.06,5.9,1.43,8.82,2.24,7.89,2.19,15.76,4.48,23.63,6.76,.89,.26,1.73,.72,2.59,1.09-.08,.67-.15,1.34-.23,2.01-2.74,.78-5.57,1.35-8.21,2.39-6.29,2.47-12.26,1.98-18.16-1.19-3.53-1.9-7.16-3.6-10.74-5.39,.77-2.63,1.53-5.27,2.3-7.9Z"/>
  <path class="cls-6" d="M482.08,113.79c-1.14-2.07-1.31-4.31-1.3-6.62,0-3.4,.4-6.85-.94-10.14-.2-.5-.19-1.13-.16-1.69,.32-7.25-1.79-14.23-2.46-21.37-.21-2.2-1.32-4.33-2.12-6.45-.47-1.24-1.22-2.37-1.15-3.77,8.14,6.1,12.72,14.32,13.13,24.38,.36,8.84-1.42,17.48-5,25.66Z"/>
  <path class="cls-6" d="M404.94,147.75c.03,6.8,.07,13.6,.1,20.4-2.15,.27-3.74,1.7-5.56,2.67-4.32,2.29-8.25,5.29-12.83,7.12,.6-3.83,2.67-6.98,4.66-10.16,4.18-6.7,8.37-13.39,12.55-20.08,.35,.05,.71,.07,1.07,.06Z"/>
  <path class="cls-3" d="M514.02,393.33c-9.82,.88-19.65,1.74-29.47,2.67-2.82,.27-5.63,.72-8.45,1.08,.03-1.74-.25-3.35-1.94-4.32,10.63-.87,21.26-1.73,31.88-2.62,2.65-.22,5.2-1.32,7.92-.87,.01,1.35,.03,2.71,.05,4.06Z"/>
  <path class="cls-10" d="M37.14,300.69c1.71-.05,2.92-2.05,4.85-1.24,.07,.67-.6,1.97-.01,1.91,2.94-.33,5.97-.58,8.52-2.38,.22-.15,.34-.69,.25-.96-.1-.28-.48-.55-.8-.63-1.13-.3-2.22-.07-3.3,.33-1.57,.58-2.87,1.85-4.68,1.76,.13-.52,.09-1.24,.42-1.53,1.73-1.55,3.85-2.38,6.1-2.85,.72-.15,1.53-.1,2.25,.05,1.54,.33,2.85,1.07,3.46,2.63,.39,1.02-.64,2.33-2.71,3.17-4.76,1.94-9.74,3.02-14.87,3.35-.18-1.26-.04-2.48,.54-3.63Z"/>
  <path class="cls-13" d="M410.76,406.28c3.66,1.66,6.24,4.69,9.2,7.24-1.59,1.07-3.3,.63-4.99,.41-1.69-.23-3.38-.54-5.07-.77-2.09-.29-2.1-.27-2.61-3.41l-.03,.04c2.5,.2,3.2-1.42,3.47-3.46l.04-.04Z"/>
  <path class="cls-12" d="M462.04,55.77c-3.19-.26-6.31-.88-9.19-2.26-2.12-1.02-4.52-1.88-5.33-4.51l-.1,.08c.54-.07,1.16-.35,1.62-.18,4.13,1.53,8.44,2.05,12.79,2.37,.42,1.48,.72,2.98,.22,4.51Z"/>
  <path class="cls-12" d="M431.58,28.58c4.16-1.07,8.02-3.2,12.39-3.56,.05,2.38,1.61,4.58,.95,7.23-.67-.2-1.29-.2-1.62-.5-2.83-2.64-5.89-2.86-9.25-1.13-.45,.23-1.09,.12-1.63,.17-.28-.73-.56-1.47-.84-2.21Z"/>
  <path class="cls-11" d="M95.93,74.11c-1.47-.35-2.95-.66-4.41-1.05-3.98-1.05-6.01-2.37-9.17-6.12,4.98,1.57,9.47,2.97,14.21,2.76,.14,1.52,.28,3.04-.64,4.4Z"/>
  <path class="cls-13" d="M528.49,404.86c2.66,1.78,5.32,3.56,7.43,6.02-3.05-.07-6.09-.16-9.14-.22-1.38-.03-2.01-.86-2.32-2.07l-.03,.04c.74-.05,1.11-.47,1.19-1.19,0,0-.04,.05-.04,.05,1.11-.42,1.57-1.17,1.17-2.34l-.03,.03c.59-.11,1.18-.21,1.77-.32Z"/>
  <path class="cls-10" d="M407.29,409.74c.52,3.14,.52,3.12,2.61,3.41,1.69,.23,3.37,.55,5.07,.77,1.69,.23,3.4,.66,4.99-.41,.99,.25,1.7,.8,2.07,1.76-.51,.25-1.05,.77-1.52,.72-5.06-.54-10.22-.17-15.2-1.56-1.06-.3-1.52-1.28-.92-2.12,.76-1.08,1.49-2.22,2.9-2.57Z"/>
  <path class="cls-10" d="M524.46,408.59c.31,1.21,.94,2.04,2.32,2.07,3.05,.06,6.09,.15,9.14,.22,1.42,.32,2.66,.91,3.3,2.34-5.12,.54-10.07-1.12-15.14-1.23-.97-.02-1.95-.41-1.89-1.59,.06-1.34,.92-1.95,2.28-1.81Z"/>
  <path class="cls-9" d="M484.02,183.26c.16-2.82,.33-5.64,.49-8.46,1.07,2.79,1.95,5.62,1.8,8.65-.77-.06-1.53-.13-2.3-.19Z"/>
  <path class="cls-12" d="M102.81,45.28c-.1,.36-.13,.75-.31,1.06-.25,.44-.54,1.02-.94,1.16-.56,.19-.95-.34-1.1-.91-.63-2.32-.09-4.39,1.3-6.28,.92,.25,1.7,.65,1.37,1.81-.29,1.04-.61,2.06-.32,3.15Z"/>
  <path class="cls-12" d="M99.4,35.39c.58-.14,1.15-.28,1.73-.42,.42,1.8,1.1,3.56,.67,5.46-.95-.59-1.98-.77-3.09-.7-1.65,.1-1.4-1.2-1.55-2.2,0,0-.04,.04-.04,.04,1.39-.07,2.52-.41,2.28-2.18Z"/>
  <path class="cls-12" d="M460.35,19.88c1.25-1.05,2.78-1.15,4.31-1.26,1.12,.59,1.68,1.56,1.81,2.79-1.65,0-3.3,.07-4.95-.01-.84-.04-1.21-.68-1.18-1.52Z"/>
  <path class="cls-10" d="M528.49,404.86c-.59,.11-1.18,.21-1.77,.32,.05-.53,.11-1.06,.16-1.59,.54,.42,1.07,.85,1.61,1.27Z"/>
  <path class="cls-7" d="M447.83,276.2c-.71-2.74-.21-4.82,.01-6.88,1.4-12.91,2.83-25.81,4.27-38.72,.7-6.26,1.54-12.51,2.13-18.78,.21-2.25,1.29-3.56,3.25-4.2,5.07-1.66,10.16-3.28,15.29-4.78,3.29-.96,6.65-1.69,9.99-2.47,.29-.07,.87,.13,.97,.35,.29,.68-.26,.98-.81,1.13-5.51,1.56-11.02,3.08-16.52,4.67-2.56,.74-5.09,1.62-7.63,2.43-1.86,.59-2.77,1.91-2.92,3.81-.01,.19-.06,.38-.08,.57-1.22,11.2-2.46,22.39-3.67,33.59-.88,8.16-1.71,16.33-2.64,24.49-.16,1.43-.09,3.01-1.65,4.79Z"/>
  <path class="cls-7" d="M414.33,201.96c-2.62,3.19-5.81,5.25-11.4,5.48,4.27-2.62,7.82-4,10.69-6.45,.24,.32,.48,.65,.71,.97Z"/>
  <path class="cls-7" d="M416.12,199.92c-.27-.25-.42-.34-.5-.48-.09-.14-.2-.37-.14-.48,.35-.66,.66-1.37,1.13-1.94,1.03-1.25,1.39-3.16,3.09-3.72,1.15-.38,.3,2.31-1.99,5.16-.45,.56-1.07,.99-1.6,1.46Z"/>
  <path class="cls-7" d="M413.62,200.99c.43-.18,1.12-.61,1.24-.48,.74,.73,.07,1.11-.53,1.45l-.71-.97Z"/>
  <path class="cls-5" d="M119.83,150.2c7.9,4.48,16.27,7.73,25.21,9.44,.71,2.88,.06,5.78,.17,8.67-10.24-2.99-19.73-7.61-28.76-13.23-1.44-.9-2.97-1.71-3.62-3.43,.42-.64,.85-1.13,1.73-.62,.91,.53,1.65,1.81,2.82,1.29,.95-.42,1.65-1.39,2.46-2.12Z"/>
  <path class="cls-12" d="M318.76,184.5c.38,.06,.78,.04,1.12,.18,7.53,3.2,15.38,4.26,23.51,3.58,.56-.05,1.15-.02,1.69,.12,.29,.07,.63,.43,.69,.71,.06,.27-.12,.82-.33,.89-.7,.26-1.44,.44-2.18,.51-8.53,.85-16.71-.59-24.61-3.81,.04-.73,.08-1.46,.11-2.19Z"/>
  <path class="cls-12" d="M185.79,175.36c-.24,.5-.36,1.15-.75,1.49-5.02,4.48-10.96,6.56-17.64,6.6-.45,0-1.22-.16-.9-1,.12-.31,.42-.77,.67-.79,6.78-.58,12.66-3.45,18.26-7.06,0,.31,.12,.56,.36,.75Z"/>
  <path class="cls-10" d="M103.96,213.29c.16,.09,.34,.16,.46,.28,.1,.1,.22,.34,.18,.41-.3,.46-.55,1.05-.98,1.31-3.18,1.87-5.69,4.86-9.49,5.68-.12,.02-.43-.3-.42-.33,2.27-3.71,6.31-5.07,9.69-7.31,.14-.09,.37-.03,.56-.04Z"/>
  <path class="cls-10" d="M92.47,222.01c-.32,.43-.53,.95-.92,1.2-.48,.32-1.06,.11-1.13-.5-.07-.61,.45-.98,1-1.06,.29-.04,.62,.2,1.05,.36Z"/>
  <path class="cls-5" d="M421.61,111.03c-1.71,0-3.43,.15-5.11-.03-2.42-.26-4.16-2.37-4.11-4.68,.05-2.35,1.78-4.47,4.19-4.59,3.59-.17,7.21-.19,10.8,.02,2.64,.15,4.08,2.03,4.02,4.59-.06,2.46-1.62,4.39-4.1,4.64-1.88,.2-3.79,.04-5.68,.04,0,0,0,0,0,0Z"/>
  <path class="cls-7" d="M404.94,147.75c-.36,0-.71-.01-1.07-.06-1.41-4-1.68-8.2-2.12-12.37-.2-1.92,.04-3.82,1-5.56,.49-.9,1.23-1.45,2.29-1.43,1.06,.02,1.87,.59,2.14,1.57,.36,1.27,.85,2.65,.68,3.91-.62,4.71-1.04,9.48-2.92,13.94Zm-.74-7.37c2.11-3.09,1.89-5.84,1.5-8.62-.06-.47-.43-.68-.82-.51-.29,.13-.69,.39-.74,.65-.47,2.59-.28,5.17,.06,8.48Z"/>
  <path class="cls-7" d="M442.75,58.17c4.65,3.36,9.85,4.82,15.57,4.52,1.56-.08,3-.45,4.4-1.11,.7,.84,1.04,1.85-.25,2.22-7.03,2.01-13.6,.82-19.64-3.24-.9-.61-.99-1.56-.08-2.39Z"/>
  <path class="cls-5" d="M102.77,120.09c-1.72,0-3.45,.13-5.16-.03-2.7-.26-4.72-2.48-4.69-4.93,.03-2.18,1.85-4.52,4.28-4.7,3.61-.26,7.26-.28,10.87-.01,2.47,.18,4,2.39,3.98,4.84-.02,2.41-1.63,4.29-4.12,4.77-.37,.07-.76,.1-1.14,.1-1.34,.01-2.68,0-4.02,0,0-.01,0-.02,0-.03Z"/>
  <path class="cls-7" d="M56.66,165.28c-8.25-7.96-12.79-17.97-15.74-28.81-.9-3.31-1.44-6.72-2.05-10.11-.23-1.31-.28-2.67-.24-4,.02-.61-.22-1.73,1.01-1.55,.96,.14,.9,1.06,1.04,1.77,.07,.37,.06,.76,.09,1.14,.49,6.33,1.94,12.46,3.98,18.44,2.24,6.57,5.49,12.61,9.91,17.99,1.09,1.33,2.3,2.58,2.76,4.31-.26,.27-.52,.54-.77,.81Z"/>
  <path class="cls-7" d="M78.65,77.95c2.09,.78,4.2,1.53,6.28,2.35,3.07,1.22,6.23,1.14,9.4,.65,.67-.1,1.27-.71,1.9-1.09,.92,.28,2.13,.75,.95,1.77-2.13,1.83-4.85,2.08-7.54,1.8-3.43-.35-6.63-1.52-9.66-3.14-.95-.5-1.24-1.36-1.33-2.35Z"/>
  <path class="cls-7" d="M57.43,164.47c3.71,3.29,7.42,6.58,11.11,9.89,.45,.4,.61,1.02,.12,1.48-.46,.43-1.04,.24-1.52-.12-3.97-3-7.84-6.11-10.49-10.43,.25-.27,.51-.54,.77-.81Z"/>
  <path class="cls-5" d="M58.21,396.54c.08-.67,.15-1.34,.23-2.01,4.45,.25,8.49,2.11,12.73,3.2,2.95,.76,5.87,1.63,8.93,1.81-.05,2.23-.09,4.45-.14,6.68-2.01,.71-2.79,2.42-3.19,4.27-.4,1.81-.56,3.68-.83,5.52-.82,.63-1.63,.85-2.56,.15-2.62-1.97-4.78-4.33-6.39-7.2-1.4-2.49-2.8-4.97-4.26-7.41-1.17-1.95-2.35-3.93-4.51-5.02Z"/>
  <path class="cls-3" d="M79.96,406.22c.05-2.23,.09-4.45,.14-6.68,4.91-.04,9.81-.12,14.71-.12,6.61,0,13.21,.06,19.82,.1-2.81,3.52-6.69,5.66-10.56,7.66-3.48,1.8-7.32,1.8-11.18,1.07-4.29-.81-8.55-1.85-12.94-2.02Z"/>
  <path class="cls-12" d="M325.69,179.65c2.41,.52,4.81,1.11,7.24,1.53,3.45,.6,6.8-.05,10.09-1.12,.22-.07,.78,.27,.85,.51,.09,.29-.07,.86-.31,1.01-.96,.59-1.94,1.31-3.01,1.52-4.95,1-9.84,.71-14.53-1.29-.71-.3-1.14-.98-1.29-1.78,.35-.05,.67-.18,.96-.39Z"/>
  <path class="cls-12" d="M163.93,176.85c0-.21-.08-.51,.01-.57,.45-.31,.91-.74,1.41-.8,4.15-.49,8.13-1.57,11.94-3.3,.56-.25,1.26-.09,1.39,.41,.1,.42-.23,1.23-.61,1.44-4.2,2.27-8.66,3.61-13.49,3.47-.23,0-.45-.44-.65-.66Z"/>
  <path class="cls-10" d="M526.75,405.15c.39,1.17-.06,1.92-1.17,2.34-.46-1.21-.06-1.98,1.17-2.34Z"/>
  <path class="cls-10" d="M525.62,407.44c-.07,.72-.45,1.14-1.19,1.19-.07-.86,.28-1.3,1.19-1.19Z"/>
  <path class="cls-10" d="M410.72,406.31c-.27,2.04-.96,3.66-3.47,3.46,.21-2.1,1.32-3.29,3.47-3.46Z"/>
  <path class="cls-12" d="M460.69,40.87c.27,.73-.19,1.15-.64,1.44-3.32,2.2-6.73,.94-7.99-2.91-.21-.65,.49-1.76,1.09-1.62,2.55,.59,5.11,1.15,7.32,2.66,.13,.09,.16,.32,.22,.43Z"/>
  <path class="cls-12" d="M441.49,38c-.26,.22-.61,.67-.75,.61-1.54-.64-3.07-1.24-4.81-1.12-.6,.04-1.06-.63-.81-1.13,.53-1.08,.67-2.05,.05-3.13-.11-.2,.11-.75,.34-.93,.23-.18,.79-.27,.99-.12,1.93,1.49,3.6,3.24,4.96,5.27,.09,.13,.03,.37,.04,.55Z"/>
  <path class="cls-12" d="M463.51,29.43c.2,2.06,.47,4.12,.58,6.19,.04,.75-.42,1.54-1.26,1.6-.26,.02-.83-.83-.81-1.27,.06-1.96-.53-3.74-1.22-5.52-.25-.64-.76-1.45,.29-1.86,.85-.34,1.32,.49,1.96,.81,.17,.08,.37,.1,.55,.15l-.09-.09Z"/>
  <path class="cls-12" d="M463.6,29.52c-.05-1.1-.15-2.2-.12-3.29,.01-.46,.06-1.1,.87-1.03,.67,.06,.91,.57,1.07,1.07,.17,.51,.28,1.07,.29,1.61,.05,1.58-1,1.69-2.2,1.56,0,0,.09,.09,.09,.09Z"/>
  <path class="cls-12" d="M453.08,27.66c.09-.44,.15-.81,.25-1.16,.05-.17,.22-.47,.29-.46,.35,.07,.78,.13,1.01,.36,.73,.71,.77,1.66,.72,2.62-.03,.61-.3,1.05-.92,1.18-.76,.17-.96-.45-1.12-.95-.17-.53-.18-1.11-.24-1.59Z"/>
  <path class="cls-12" d="M452.01,22.62c.63-1.57,2.19-1.35,3.41-1.79,.02,.94-.13,1.72-1.34,1.71-.69,0-1.38,.05-2.07,.08Z"/>
  <path class="cls-12" d="M449.9,23.33c.63-.58,1.19-1.33,2.22-.78-.22,1.73-1.31,.99-2.22,.78Z"/>
  <path class="cls-12" d="M447.51,48.99c-.15-.08-.31-.14-.43-.25-.05-.04,.02-.3,.04-.3,.43,.01,.52,.23,.29,.63,0,0,.1-.08,.1-.08Z"/>
  <path class="cls-12" d="M68.39,49.02c0-.75,0-1.5,0-2.24,1.15,.21,2.18-.02,3.29-.49,5.79-2.42,11.65-4.69,17.46-7.07,1.09-.45,2.14-.76,3.31-.65-.1,2.84-.19,5.68-.32,8.51-.03,.56-.18,1.25-.85,1.32-1.01,.11-1.12-.75-1.24-1.47-.15-.88-.23-1.77-.35-2.66-1.74,.13-2.36,1.55-3.5,2.2-3.39,1.92-6.71,3.5-10.8,1.69-2.3-1.02-4.86-1.04-6.99,.86Z"/>
  <path class="cls-12" d="M73.52,55.85s-.72,.14-1.46,.24c-.84,.12-1.91,.9-2.34-.49-.29-.93,.76-1.13,1.28-1.57,1.32-1.13-.08-1.98-.23-2.96-.05-.31,.07-.77,.29-.95,.2-.17,.77-.2,.95-.04,1.27,1.12,2.51,2.27,3.7,3.47,.51,.51,1.2,1.07,.9,1.91-.52,1.47-1.53,.36-3.1,.38Z"/>
  <path class="cls-12" d="M93.14,57.12c1.28,.03,3.31,.52,5.24,1.36,.66,.29,.51,1.06,.14,1.44-2.24,2.27-5.56,1.74-7.17-1.09-.33-.59,.27-1.66,1.79-1.71Z"/>
  <path class="cls-12" d="M100.66,52.86c-.17,.49-.29,1.05-.57,1.49-.09,.14-.65,.03-.98-.04-.15-.03-.33-.24-.37-.4-.72-2.69-1.44-5.37-2.1-8.07-.07-.28,.16-.82,.41-.95,.53-.28,1.05-.05,1.37,.48,1.37,2.29,1.88,4.83,2.26,7.49Z"/>
  <path class="cls-3" d="M99.4,35.39c.25,1.78-.89,2.11-2.28,2.18,.1-1.41,1.17-1.82,2.28-2.18Z"/>
  <path class="cls-13" d="M41.96,299.48c1.82,.09,3.12-1.19,4.68-1.76,1.08-.4,2.18-.63,3.3-.33,.31,.08,.7,.36,.8,.63,.09,.27-.03,.81-.25,.96-2.54,1.8-5.58,2.05-8.52,2.38-.59,.07,.08-1.24,.01-1.91,0,0-.03,.03-.03,.03Z"/>
  <path class="cls-2" d="M404.2,140.38c-.34-3.31-.53-5.89-.06-8.48,.05-.26,.45-.51,.74-.65,.39-.18,.76,.04,.82,.51,.38,2.78,.6,5.54-1.5,8.62Z"/>
</svg>