<?xml version="1.0" encoding="UTF-8"?>
<svg id="Capa_1" data-name="Capa 1" xmlns="http://www.w3.org/2000/svg" viewBox="0 0 388.77 395.34">
  <defs>
    <style>
      .cls-1 {
        fill: #f7c53a;
      }

      .cls-2 {
        fill: #ed8575;
      }

      .cls-3 {
        fill: #f49b44;
      }

      .cls-4 {
        fill: #fff;
      }

      .cls-5 {
        fill: #edb221;
      }

      .cls-6 {
        fill: #fae1ca;
      }

      .cls-7 {
        fill: #a2483c;
      }

      .cls-8 {
        fill: #b56a4d;
      }

      .cls-9 {
        fill: #cba153;
      }

      .cls-10 {
        fill: #141011;
      }

      .cls-11 {
        fill: #543434;
      }

      .cls-12 {
        fill: #54794a;
      }
    </style>
  </defs>
  <path class="cls-3" d="M303.47,175.61c3.29,12.08,5.83,24.33,8.24,36.6,3.31,16.89,3.61,33.98,3.29,51.11-.01,.71-.13,1.43-.03,2.11,.27,1.83-1.11,4.25,.69,5.37,1.38,.85,3.29-.69,4.98-1.12,7.68-1.95,15.39-1.71,23.08-.26,4.85,.91,9.63,2.15,14.23,3.98,4.98,1.99,9.5,4.71,13.03,8.81,4.53,5.28,7.18,11.27,6.34,18.42-1.35-.83-2.68-1.7-4.06-2.49-7.58-4.31-15.74-6.21-24.42-5.42-5.83,.53-11.42,2.14-16.78,4.55-15.05,6.77-26.31,17.51-34.09,32.05-3.36,6.28-2.09,5.77-10.18,6.12-2.62,.11-5.28-.49-7.88,.33-.87-.13-1.74-.34-2.62-.37-1.75-.06-3.66-.45-5.22,.09-1.81,.63-1.47,3-2.23,4.54-.47,.95-.89,1.92-1.39,2.85-2.26,4.23-5.74,6.56-10.59,6.82-5.99,.32-11.98,.88-17.97,.99-26.66,.46-53.32,.33-79.98-.1-9-.15-17.99-.57-26.99-.95-2.64-.11-5.27-.45-7.9-.78-2.07-.26-2.84-1.01-3.09-2.96-.37-2.82-.3-5.65,.25-8.44,1.14-5.8,.77-5.64-4.66-5.46-.35,.01-.7,.05-1.06,.07-9.92-.08-19.84-.17-29.75-.25-6.67-.03-13.33,.02-20-.12-8.58-.18-17.18,.41-25.74-.76-1.37-.19-2.79-.02-4.18-.02-4.05-.06-8.09-.14-12.14-.17-5.27-.04-10.54-.04-15.81-.06-2.45-.33-4.91-.64-7.35-1.02-1.23-.19-1.75-1.08-1.38-2.34,.91-3.06,2.24-5.95,3.77-8.75,6.9-12.64,15.44-24.09,25.04-34.78,9.62-10.71,20.29-20.19,32.46-27.92,8.1-5.14,16.68-9.25,25.93-11.88,.22,.67,.42,1.35,.65,2.02,1.57,4.36,4.66,6.47,9.31,6.32,1.59-.05,3.18,0,4.77,0,24.55,.02,49.1,.05,73.65,.07,.04,.35,.11,.7,.13,1.05,.17,5.35-.56,4.89,5.3,5.25,.03,1.19,.06,2.37,.08,3.56-1.89,.43-2.22,2-2.58,3.55-5.65,5.65-8.6,12.63-9.9,20.37-.23,1.35-.17,2.84,.16,4.16,1.5,6,4.58,10.87,10.28,13.76l-.03,.05c-.43,2.54,.77,4.84,1.15,7.26,.22,1.38,1.25,2.18,2.61,2.21,4.75,.1,9.36,1.71,14.17,1.21,1.04-.11,2.2-.15,3.15,.2,2.75,1,5.57,.75,8.38,.8,3.53,.07,7.14-.31,10.56,.32,3.17,.59,6.28,.69,9.44,.73,4.41,.05,8.82,.03,13.24,.07,1.41,.01,2.86-.07,4.22,.23,6.99,1.55,14.05,.53,21.08,.7,2.19,.05,3.11-1.04,3.16-3.37,.07-2.82-.09-5.64-.15-8.46-.75-4.34-1.63-8.62-4.73-12.05-.95-1.05-.66-2.28-.25-3.48,.77-2.3,2.34-4.37,1.98-6.99,1.37-1.73,1.63-3.87,2.15-5.9,2.58-10.14,3.66-20.49,4.09-30.9,.71-16.97-.4-33.88-2.25-50.74-.73-6.65-1.91-13.26-2.89-19.88,2.45-.08,4.9-.22,7.35-.24,9.29-.11,18.59-.18,27.88-.26Zm-231.76,88.05c-.24-.19-.47-.53-.72-.55-.32-.03-.69,.14-.98,.33-8.67,5.52-16.89,11.61-24.37,18.67-.51,.48-.94,1.05-1.31,1.64-.12,.2-.04,.72,.14,.87,.2,.17,.67,.19,.92,.07,.47-.22,.91-.55,1.29-.91,7.22-6.82,15.1-12.78,23.42-18.19,.58-.37,1.04-.92,1.53-1.42,.1-.1,.06-.34,.08-.52Zm234.58-13.53c.07,4.58,.07,9.16-.69,13.71-.4,2.42-.7,4.87-.99,7.31-.03,.24,.28,.69,.52,.76,.25,.07,.77-.1,.88-.32,.87-1.75,1.24-3.64,1.45-5.57,1.05-9.67,1.01-19.34,.1-29.01-.03-.34-.08-.74-.28-1-.15-.2-.53-.26-.82-.31-.1-.02-.28,.16-.36,.29-.55,.78-.5,1.69-.34,2.55,.69,3.85,.52,7.73,.54,11.6ZM41.17,287.92c-.2-.42-.54-.58-.84-.28-1.87,1.85-3.83,3.62-5.53,5.61-2.39,2.8-4.84,5.6-6.41,8.99-.17,.36,.17,.95,.27,1.43,.31-.12,.74-.15,.9-.38,3.43-4.91,7.19-9.55,11.26-13.94,.22-.24,.29-.63,.38-.97,.04-.14-.02-.31-.04-.47Zm1.94-2.2c-.09-.12-.18-.23-.27-.35-.12,.09-.23,.18-.35,.27,.14,.12,.28,.25,.42,.37,.06-.1,.13-.19,.19-.29Z"/>
  <path class="cls-8" d="M181.14,258.72c-5.86-.37-5.13,.1-5.3-5.25-.01-.35-.08-.7-.12-1.05,.37-.58,.96-1.12,1.07-1.74,1.12-6.36,2.26-12.72,3.18-19.11,.32-2.25,.64-4.49,1.13-6.72,.44-2-.36-3.43-2.52-3.86,1.05-1.11,2.1-2.21,3.15-3.32,.35-.35,.7-.69,1.05-1.03,.36-.35,.71-.71,1.07-1.06,.34-.39,.68-.77,1.02-1.16,1.72-1.11,2.59-2.81,3.22-4.66,.5-1.48,.1-2.78-.97-3.85-.75-.76-1.66-1.34-2.77-1.34-1.75,0-2.96,.92-3.76,2.43-3.48,4.18-4.24,9.29-4.88,14.43-2.28,.08-4.6-.34-6.84,.34-3.81,1.15-7.78,1.05-11.52,.41-3.69-.63-7.34-.87-11.01-.75-4.8,.17-9.4-.94-14.07-1.67-2.89-.45-5.72-1.45-8.72-.92-.2,.04-.5-.43-.75-.66-1.04-1.33-2.69-1.56-4.1-2.2-4.7-2.15-8.08-5.56-10.2-10.27-2.13-4.72-3.3-9.7-3.65-14.82-.69-10.06-.41-20.09,1.51-30.03,4.96,.27,9.84-.93,14.76-.91,8.31,.03,16.57-.65,24.81-1.33,3.62-.3,7.39-.52,10.84-2.05,1.04,.18,2.1,.27,3.11,.55,7.01,1.89,14.13,2.96,21.41,2.78,7.57-.19,15.12,.01,22.71-.92,8.57-1.06,17.05-2.5,25.53-4.07,4.32-.8,8.48-2.43,12.94-2.5,.45,.26,.87,.65,1.36,.76,5.26,1.24,9.75,3.86,13.68,7.51,.06,2.12-.08,4.26,.23,6.35,.41,2.83,2.17,5.14,3.54,7.58,1.1,7.09,.17,14.14-.74,21.13-2.52,19.33-7.59,38.07-13.66,56.56-1.11,3.38-1.19,3.37-4.91,3.43-2.47,.03-4.95,0-7.42,.01-.7,0-1.43,0-2.1,.17-1.18,.3-1.04,1.2-.8,2.1-1.64,.68-3.38,.59-5.1,.59-3.79,0-7.58-.01-11.38-.02-11.35,.04-22.7,.09-34.05,.13Z"/>
  <path class="cls-12" d="M104.02,149.34c-4.54-.69-9.06-1.47-13.61-2.05-11.92-1.53-23.84-2.95-35.76-4.44-7.21-.9-11.01-5.36-10.53-12.64,.29-4.4,.92-8.79,1.47-13.17,2.07-16.48,4.17-32.96,6.25-49.44,.73-5.79,1.45-11.57,2.18-17.36,.04-.35,.09-.7,.15-1.05,1.31-7.28,6.32-11.03,13.61-10.15,2.63,.32,5.25,.69,7.88,1.02,14.02,1.77,28.05,3.53,42.07,5.3,1.05,.13,2.08,.43,3.14,.53,3.16,.31,5.85,1.6,7.66,4.2,1.11,1.6,2.42,1.78,4.1,1.62,7.06-.65,14.12-.76,21.17,.21,3.18,1.24,6.52,2.07,9.51,3.78,.61,.35,1.3,.4,1.97,.11l-.03-.02c-.37,1.72,1.16,2.36,1.98,3.38,4.88,6.17,7.85,13.02,7.64,21.03-.86-.47-.97-1.37-1.28-2.18-1.84-4.79-4.8-8.93-8.13-12.73-3.51-4-7.91-5.62-13.16-3.3-.95,.42-1.95,.75-2.93,1.12-7.26,.03-13.12,3.53-18.75,7.59-1.26,.91-1.48,2.28-1.67,3.72-1.26,9.6-2.61,19.18-3.85,28.78-1.35,10.47-2.6,20.96-3.91,31.44-.26,2.09-.16,2.56,1.64,3.35,5.81,2.54,11.73,4.79,18,5.96,.34,.67,.68,1.34,1.03,2.01-4.3,1.03-8.69,1.12-13.08,1.09-2.63-.02-5.27,0-7.9-.14-1.97-.1-3.82-.03-5.53,1.15-1.81,1.24-3.93,1.43-6.06,1.39-1.75-.03-3.51-.09-5.26-.13Zm21.17-58.89c-1.33-1.33-2.57-1.42-3.77-1.56-9.97-1.17-19.95-2.16-29.88-3.57-3.32-.47-6.65-.73-9.96-1.21-6.79-.97-13.6-1.86-20.4-2.73-1.22-.16-2.47-.1-3.7-.07-.22,0-.63,.4-.61,.57,.04,.29,.3,.71,.55,.77,1.01,.27,2.04,.47,3.08,.6,1.57,.2,3.16,.27,4.73,.47,4.54,.56,9.07,1.16,13.61,1.75,7.15,.93,14.3,1.89,21.46,2.8,6.63,.84,13.27,1.69,19.91,2.44,1.54,.17,3.15,.49,4.98-.25Z"/>
  <path class="cls-1" d="M141.86,145.98c-.34-.67-.68-1.34-1.03-2.01-.54-1.11-1.05-2.24-1.62-3.33-3.94-7.65-6.07-15.72-5.81-24.38,.11-3.71,.01-7.42,.03-11.13,0-1.41-.13-2.86,.13-4.23,1-5.17,1.8-10.41,3.31-15.43,1.73-5.71,3.79-11.36,7.36-16.31,1.56-2.16,3.97-3.55,5.13-6.02,.98-.37,1.97-.7,2.93-1.12,5.25-2.33,9.65-.7,13.16,3.3,3.33,3.8,6.29,7.93,8.13,12.73,.31,.8,.42,1.7,1.28,2.18,0,0-.07-.04-.07-.04l.09,3.07c-.1,1.59,.03,3.12,.53,4.68,1.19,3.7,1.85,7.5,1.55,11.42-.94-.14-1.88-.28-2.83-.41-2.18-1.94-4.83-1.93-7.51-1.8-.91,.05-1.72,.39-2.38,1.01-.67,.64-1.07,1.4-.86,2.36,.17,.79,.86,1.06,1.48,1.38,4.57,1.28,9.09,1.32,13.55-.48,1.34,.05,2.69-.01,3.95,.6,1.12,.55,2.28,.46,3.45,.19,1.28-3.09,2.13-6.29,2.75-9.58,.75-3.96,1.59-7.91,2.39-11.86,2.47,3.43,4.87,6.9,7.43,10.26,2.79,3.66,5.86,7.07,9.74,9.62,1.44,.95,2.1,1.82,.65,3.28-.42,.43-.11,.95,.1,1.44,.3,.7,1.32,1.13,1.61,.58,1.41-2.69,3.7-2.63,6.3-2.44,8.31,.58,16.54-.47,24.76-1.5,1.22-.15,2.44-.38,3.66-.47,.98-.07,1.64,.43,1.92,1.42,.67,2.37,1.37,4.73,2.05,7.1-.15,1.44,.4,2.74,.77,4.09,.42,1.51,.13,2.84-1.46,3.47-2.39,.96-2.8,2.8-2.62,5.1,.59,7.47,1.1,14.95,1.64,22.42-.35,1.71,.63,3.59-.38,5.15-1.03,1.6-3.33,.94-4.66,2.16-4.46,.07-8.62,1.7-12.94,2.5-8.48,1.57-16.96,3.02-25.53,4.07-7.58,.93-15.14,.73-22.71,.92-7.29,.18-14.4-.89-21.41-2.78-1.01-.27-2.07-.37-3.11-.55-5.11-2.75-10.12-5.63-14-10.09-.22-.25-.6-.35-.91-.52Zm65.4-41.19c-.17,.13-.3,.23-.44,.34,.12,.12,.24,.32,.37,.33,.13,0,.27-.18,.4-.29-.11-.13-.23-.26-.34-.38Z"/>
  <path class="cls-10" d="M279.92,335.78c2.59-.82,5.25-.22,7.88-.33,8.1-.35,6.82,.16,10.18-6.12,7.78-14.54,19.04-25.28,34.09-32.05,5.36-2.41,10.95-4.02,16.78-4.55,8.68-.79,16.84,1.11,24.42,5.42,1.38,.78,2.71,1.65,4.06,2.49,7.4,9.53,11.16,20.46,11.42,32.41,.67,30.47-21.19,52.14-45.41,56.33-24.04,4.16-50.78-9.25-60.23-35.96-2.02-5.7-3.17-11.57-3.19-17.64Zm54.17,23.56c13.27,.39,25.19-10.37,25.01-24.75-.18-14.55-10.37-24.55-24.52-24.71-15.03-.17-24.9,11.64-24.97,24.76-.07,13.27,10.8,24.76,24.48,24.69Z"/>
  <path class="cls-10" d="M86.72,331.83c9.92,.08,19.84,.17,29.75,.25,.74,8.52,.63,16.98-2.24,25.14-6.93,19.67-20.42,32.5-40.85,36.91-27,5.83-52.89-9.96-61.98-35.26-3.29-9.15-4.15-18.56-2.55-28.17,5.27,.02,10.54,.02,15.81,.06,4.05,.03,8.09,.11,12.14,.17,1.14,.8,2.13,1.39,1.66,3.32-1.11,4.52-.88,9.08,.63,13.55,4.66,13.79,20.48,20.88,34.07,14.41,4.72-2.24,8.47-5.73,10.99-10.38,2.58-4.77,3.74-9.8,2.77-15.25-.27-1.55-.15-3.16-.21-4.75Z"/>
  <path class="cls-7" d="M122.81,218.19c.25,.23,.54,.69,.75,.66,3-.53,5.83,.47,8.72,.92,4.67,.73,9.27,1.84,14.07,1.67,3.67-.13,7.32,.11,11.01,.75,3.74,.64,7.71,.74,11.52-.41,2.24-.68,4.55-.26,6.84-.34,1.05,.46,1.94-.06,2.86-.44,2.16,.43,2.96,1.86,2.52,3.86-.49,2.23-.8,4.46-1.13,6.72-.92,6.39-2.05,12.75-3.18,19.11-.11,.62-.7,1.16-1.07,1.74-24.55-.02-49.1-.05-73.65-.07-1.59,0-3.18-.05-4.77,0-4.65,.15-7.74-1.96-9.31-6.32-.24-.66-.44-1.34-.65-2.02,.66-3.67,.21-7.37,.32-11.05,.06-1.93-.06-3.88,.06-5.8,.31-5.05,3.68-8.45,8.72-8.85,1.22-.1,2.46-.03,3.69-.04,7.56-.03,15.13-.06,22.69-.09Z"/>
  <path class="cls-7" d="M261.29,174.62c-1.37-2.44-3.13-4.75-3.54-7.58-.3-2.08-.17-4.23-.23-6.35,.03-5.66,.06-11.32,.09-16.98,2.51-1.69,4.87-3.66,7.97-4.24,.56,.9,1.06,1.83,1.68,2.68,2.85,3.89,6.68,5.5,11.49,4.97,5.03-.55,9.22-4.6,9.68-9.61,.21-2.29,.04-4.57-.45-6.83,1.45-.68,3.01-.5,4.54-.61,.54,0,1.08-.01,1.62-.02,1.23,.06,2.47,.15,3.7,.18,8.28,.22,11.7,3.75,11.73,12.21,.03,7.07-.2,14.14,.07,21.2,.21,5.33-1.63,9.26-6.17,11.97-9.3,.09-18.59,.16-27.88,.26-2.45,.03-4.9,.16-7.35,.24-2.32-.5-4.63-1-6.95-1.49Z"/>
  <path class="cls-2" d="M265.59,139.47c-3.1,.58-5.46,2.55-7.97,4.25-3.37,.47-6.73,.94-10.1,1.4-.54-7.48-1.05-14.95-1.64-22.42-.18-2.3,.23-4.14,2.62-5.1,1.58-.64,1.88-1.96,1.46-3.47-.37-1.34-.92-2.65-.77-4.09,2.99-.03,5.97-.04,8.96-.11,2.8-.06,5.62,.12,8.35-.83,.64-.22,1.45-.33,2.08-.14,3.95,1.23,8.02,.62,12.03,.98,.87,.08,1.76,.13,2.61,.3,4.97,1,7.04,3.59,7.4,9.19-2.29,.2-2.67,.58-1.96,2.19,1.24,2.83,2.58,5.63,3.88,8.44-1.52,.11-3.09-.07-4.54,.61-.7-.75-1.27-1.63-2.55-1.49-1.47,.16-2.96,.17-4.39,.25,0,.61,.02,.94,0,1.27-.13,2.23-.45,2.79-2.12,2.82-1.73,.03-3.46-.19-5.19-.34-.87-.07-1.85-.37-2.5,.31-1.9,1.97-4.64,3.16-5.65,5.97Zm17.75-18.01c-.11-.32-.13-.76-.36-.93-2.53-1.92-5.08-3.82-7.65-5.68-.4-.29-1-.51-1.39,.08-.31,.47-.27,1.01,.21,1.37,2.54,1.91,5.08,3.82,7.64,5.69,.25,.18,.69,.29,.96,.21,.25-.08,.39-.48,.58-.74Zm-4.49,5.92c-.03-.33,.08-.81-.1-.97-2.49-2.22-5.27-4.01-8.25-5.49-.19-.09-.71,.15-.84,.38-.14,.23-.12,.79,.05,.94,2.53,2.17,5.28,4.02,8.27,5.49,.19,.09,.57-.22,.87-.35Z"/>
  <path class="cls-5" d="M185.82,102.17c-1.17,.27-2.33,.36-3.45-.19-1.26-.61-2.61-.55-3.95-.6-.49-.69-.97-1.37-1.46-2.06,.3-3.92-.36-7.72-1.55-11.42-.5-1.56-.63-3.09-.54-4.68q1.21-1.6-.09-3.07s.07,.04,.07,.04c.21-8.01-2.76-14.86-7.64-21.03-.81-1.02-2.34-1.66-1.98-3.38,1.35-.47,2.31,.58,3.46,.87,.39,.1,.88-.26,1.33-.4-.16-.31-.23-.74-.49-.9-3.27-2.06-6.54-4.11-10.27-5.25-.12-.49-.28-.98-.36-1.49-.58-3.9-.38-4.1,3.47-3.41,.5,.09,1.01,.09,1.52,.13,2.58,2.2,5.24,4.22,8.89,4.04l-.07-.03c.11,.49,.06,1.24,.36,1.44,2.48,1.64,4.79,3.62,7.78,4.38,1.22,1.76,3.13,2.72,4.77,3.98,1.36,1.04,1.96,2.31,1.89,4.02-.09,2.42-.05,4.85-.07,7.28-1.23,1.52-.75,3.35-.83,5.05-.22,5.06-.18,10.14-.57,15.18-.29,3.84-.54,7.66-.26,11.5Z"/>
  <path class="cls-1" d="M156.86,26.27c-1.84-3.52-2.45-7.28-2.37-11.23,.09-4.36,1.83-7.86,5.21-10.5,4.18-3.27,9.06-4.8,14.3-4.5,5.2,.3,9.5,2.76,12.29,7.2,1.58,2.52,3.33,3.4,6.07,2.28,.32-.13,.68-.2,1.03-.21,1.69-.05,3.45-.75,5.03,.45,.06,2.68-2.43,2.61-3.92,3.54-1.93,1.2-4.34,1.46-6.15,2.95-3.19,.53-6.13,1.84-9.08,3.08-1.75,.05-3.39,.46-4.82,1.54-.74-.03-1.37,.17-1.79,.83-3.3,.31-6.3,1.53-9.21,3.05-2.2,.5-4.4,1-6.59,1.5Z"/>
  <path class="cls-2" d="M179.27,19.34c2.96-1.24,5.89-2.55,9.08-3.08,.14,1.09,.27,2.19,.41,3.29-1.3-.33-2.55-1.49-3.96-.32-.25,.21-.51,.54-.53,.83-.02,.27,.32,.83,.43,.81,1.64-.25,3,.84,4.56,.92,1.3,5.74,2,11.5,.37,17.28-1.23,4.34-3.57,7.69-8.45,8.43-2.04-.26-4.13-.18-6.08-1.05-1.98-.88-4.02-1.64-6.33-2.58,.5,2.87,3.33,3.37,4.04,5.49-3.66,.18-6.32-1.84-8.89-4.04,.09-1.39,.2-2.79,.25-4.19,.05-1.2-.54-1.79-1.74-2.18-5.78-1.87-7.6-5.34-6.03-11.19,.14-.51,.31-1,.46-1.5,2.2-.5,4.4-1,6.6-1.5,.45,.52,1.03,.98,1.31,1.59,.59,1.24,1,2.57,1.52,3.84,.28,.68,.82,1.18,1.57,1.14,1.06-.06,1.52-.92,1.48-1.78-.09-2.04,.5-3.67,2.06-5.06,.74-.66,1.28-1.65,1.27-2.77,.42-.66,1.05-.86,1.79-.83,1.52,.75,3.89,.5,5.02-.59,.12-.12-.13-.62-.2-.95Zm-.47,20.84c.87-.1,2.07-.1,2.46-1.27,.44-1.3-.7-1.79-1.59-2.27-1.07-.58-2.18-1.09-3.27-1.63-.81-.4-1.69-.74-2.31,.18-.56,.83-.04,1.64,.37,2.41,.89,1.68,2.2,2.66,4.33,2.58Zm8.91-14.04c-.06-.41-.04-.78-.18-1.09-.12-.26-.4-.58-.64-.6-.27-.03-.61,.2-.86,.39-.9,.68,.33,2.77-1.59,2.65-.9-.06-1.38,.1-1.36,.89,.04,2.09,.19,4.17,.36,6.25,.02,.24,.48,.67,.58,.63,.44-.18,1.12-.43,1.19-.77,.24-1.18,.52-2.45,.33-3.61-.3-1.87,1.88-1.88,2.1-3.23,.08-.51,.06-1.04,.09-1.5Zm-27.96,3.53c-.25,.62-.75,1.26-.68,1.84,.14,1.2,1.32,.76,2.07,.99,.49,.15,.99,.35,1.4,.65,.67,.49,1.3,1.44,2.1,.39,.48-.62-.12-1.33-.51-1.87-1.01-1.41-2.08-2.79-3.18-4.14-.15-.19-.66-.26-.91-.16-.24,.1-.49,.49-.51,.76-.02,.51,.13,1.03,.2,1.54Zm18.34-3.72c-.03-.36-.05-.54-.05-.71-.02-.53-.21-.99-.79-.93-.2,.02-.49,.51-.51,.8-.05,.68-.02,1.39,.09,2.06,.03,.19,.42,.36,.68,.47,.06,.03,.32-.2,.35-.35,.12-.5,.18-1.01,.24-1.34Z"/>
  <path class="cls-5" d="M141.86,145.98c.31,.17,.7,.27,.91,.52,3.88,4.46,8.89,7.34,14,10.09-3.45,1.52-7.22,1.75-10.84,2.04-8.25,.68-16.51,1.36-24.81,1.33-4.92-.02-9.8,1.18-14.76,.91-1.83-.51-3.2-1.26-2.91-3.62,.33-2.62,.38-5.27,.56-7.91,1.75,.05,3.51,.11,5.26,.13,2.13,.03,4.25-.16,6.06-1.39,1.72-1.17,3.56-1.25,5.53-1.15,2.63,.13,5.27,.12,7.9,.14,4.39,.03,8.78-.05,13.08-1.09Z"/>
  <path class="cls-12" d="M185.82,102.17c-.28-3.84-.03-7.66,.26-11.5,.38-5.05,.35-10.12,.57-15.18,.07-1.7-.4-3.52,.83-5.05,3.23,2.73,3.28,6.54,3.49,10.3-.8,3.95-1.64,7.9-2.39,11.86-.62,3.28-1.47,6.49-2.75,9.58Z"/>
  <path class="cls-10" d="M172.81,49.37c-.71-2.12-3.54-2.62-4.04-5.49,2.32,.94,4.35,1.7,6.33,2.58,1.95,.87,4.04,.79,6.08,1.05-.08,1.37-.15,2.74-.23,4.11-2.09-.07-3.96-.87-5.81-1.75-.77-.37-1.51-.78-2.41-.54l.07,.03Z"/>
  <path class="cls-6" d="M159.28,50.1c3.73,1.14,7.01,3.19,10.27,5.25,.25,.16,.33,.59,.49,.9-.45,.15-.95,.5-1.33,.4-1.15-.29-2.11-1.33-3.46-.87,0,0,.03,.02,.03,.02-.05-1.03-.88-1.38-1.59-1.81-1.6-.98-3.22-1.94-4.83-2.91,.14-.33,.28-.66,.43-.99Z"/>
  <path class="cls-11" d="M292.52,130.07c-1.3-2.81-2.63-5.61-3.88-8.44-.71-1.62-.33-1.99,1.96-2.19,0,0-.03,0-.03,0-.18,1.09,.13,1.97,1.07,2.59,0,0,.06,.18,.06,.18-.13,.95,.06,1.78,.89,2.36,.37,1.87,1.65,3.48,1.54,5.49-.54,0-1.08,.01-1.62,.02Z"/>
  <path class="cls-2" d="M172.74,49.34c.9-.25,1.64,.17,2.41,.54,1.84,.88,3.72,1.67,5.81,1.75,.3,1.19,.2,2.36-.08,3.54-2.98-.76-5.29-2.74-7.78-4.38-.3-.2-.25-.95-.36-1.44Z"/>
  <path class="cls-5" d="M158.85,51.09c1.61,.97,3.23,1.93,4.83,2.91,.71,.44,1.54,.79,1.59,1.81-.67,.29-1.36,.24-1.97-.11-2.99-1.71-6.33-2.54-9.51-3.78,1.69-.28,3.38-.56,5.06-.84Z"/>
  <path class="cls-11" d="M189.26,21.8c-1.56-.09-2.92-1.17-4.56-.92-.11,.02-.45-.54-.43-.81,.02-.29,.28-.63,.53-.83,1.41-1.17,2.65,0,3.96,.32,.49,.68,.71,1.42,.51,2.25Z"/>
  <path class="cls-2" d="M292.59,124.56c-.83-.59-1.02-1.41-.89-2.36,.84,.58,1.07,1.4,.89,2.36Z"/>
  <path class="cls-2" d="M291.64,122.02c-.94-.62-1.25-1.51-1.07-2.59,1.43,.42,1.22,1.52,1.07,2.59Z"/>
  <path class="cls-12" d="M215.18,258.59c3.79,0,7.58,.02,11.38,.02,1.72,0,3.46,.09,5.1-.59,1.92-.24,3.05,.73,3.47,2.48,.87,3.59,2.8,6.37,5.9,8.36-3.35,1.52-6.7,3.04-10.03,4.59-.24,.11-.54,.57-.48,.79,.14,.62,.7,.58,1.19,.45,.51-.13,1.03-.25,1.51-.46,3.2-1.43,6.39-2.88,9.58-4.33,1.63,.84,3.22,1.74,4.4,3.19-3.18,1.4-6.36,2.79-9.53,4.22-.27,.12-.62,.54-.58,.77,.09,.58,.67,.75,1.13,.59,3.61-1.27,7.22-2.53,10.41-4.71,1.91,1.25,3.94,2.36,5.72,3.78,3.79,3.05,7.97,5.12,12.81,5.8,.36,2.62-1.21,4.69-1.98,6.99-.4,1.2-.7,2.43,.25,3.48,3.1,3.43,3.99,7.71,4.73,12.05-.52,.09-1.04,.26-1.56,.26-17.3-.07-34.59,.18-51.88-.61-12.51-.57-25.05-.73-37.55-1.52,0,0,.03-.05,.03-.05-.48-12.76-1.48-25.52-.54-38.3,.36-1.55,.69-3.11,2.58-3.55,5.81-.28,11.62-.57,17.44-.83,4.76-.22,9.52-.44,14.28-.59,1.58-.05,2.2-.82,2.24-2.28Zm.3,19.08c3.01-1.33,6.39-2.19,9.3-4.15,.16-.11,.22-.69,.09-.83-.2-.21-.64-.37-.92-.31-3.26,.71-6.09,2.46-9.1,3.78-.23,.1-.44,.61-.38,.88,.04,.21,.5,.34,1.02,.64Zm6.29,4.2c2.75-1.14,5.64-2.32,8.5-3.54,.58-.25,1.35-.61,.96-1.42-.13-.27-1.01-.44-1.4-.28-2.89,1.17-5.75,2.42-8.6,3.69-.23,.1-.44,.6-.39,.87,.03,.21,.47,.36,.93,.68Z"/>
  <path class="cls-7" d="M86.72,331.83c.06,1.58-.07,3.2,.21,4.75,.96,5.45-.2,10.49-2.77,15.25-2.51,4.65-6.27,8.13-10.99,10.38-13.59,6.47-29.41-.62-34.07-14.41-1.51-4.47-1.74-9.03-.63-13.55,.47-1.93-.51-2.52-1.66-3.32,1.4,0,2.81-.17,4.18,.02,8.55,1.17,17.16,.58,25.74,.76,6.66,.14,13.33,.09,20,.12Z"/>
  <path class="cls-1" d="M179.15,304.18c12.51,.8,25.04,.95,37.55,1.52,17.3,.79,34.59,.54,51.88,.61,.52,0,1.04-.17,1.56-.26,.06,2.82,.22,5.64,.15,8.46-.05,2.33-.98,3.43-3.16,3.37-7.03-.17-14.09,.85-21.08-.7-1.36-.3-2.81-.21-4.22-.23-4.41-.04-8.82-.01-13.24-.07-3.16-.04-6.28-.15-9.44-.73-3.42-.63-7.03-.24-10.56-.32-2.81-.06-5.63,.2-8.38-.8-.95-.35-2.11-.31-3.15-.2-4.8,.5-9.42-1.11-14.17-1.21-1.36-.03-2.39-.83-2.61-2.21-.38-2.42-1.58-4.71-1.15-7.26Z"/>
  <path class="cls-2" d="M215.18,258.59c-.04,1.45-.66,2.23-2.24,2.28-4.76,.14-9.52,.37-14.28,.59-5.81,.26-11.62,.55-17.44,.83-.03-1.19-.06-2.37-.08-3.56,11.35-.04,22.7-.09,34.05-.13Z"/>
  <path class="cls-6" d="M71.71,263.66c-.02,.18,.02,.42-.08,.52-.49,.5-.95,1.04-1.53,1.42-8.32,5.4-16.21,11.36-23.42,18.19-.38,.36-.82,.69-1.29,.91-.25,.12-.72,.1-.92-.07-.18-.15-.26-.67-.14-.87,.37-.59,.8-1.16,1.31-1.64,7.48-7.06,15.71-13.16,24.37-18.67,.29-.18,.66-.36,.98-.33,.25,.02,.48,.35,.72,.55Z"/>
  <path class="cls-6" d="M306.29,250.12c-.03-3.87,.14-7.75-.54-11.6-.15-.85-.21-1.76,.34-2.55,.09-.13,.26-.31,.36-.29,.29,.05,.67,.11,.82,.31,.19,.26,.24,.65,.28,1,.91,9.67,.95,19.34-.1,29.01-.21,1.93-.58,3.82-1.45,5.57-.11,.21-.63,.39-.88,.32-.24-.07-.55-.51-.52-.76,.29-2.44,.59-4.88,.99-7.31,.76-4.55,.76-9.12,.69-13.71Z"/>
  <path class="cls-6" d="M41.17,287.92c.02,.16,.08,.33,.04,.47-.1,.33-.16,.73-.38,.97-4.07,4.39-7.84,9.03-11.26,13.94-.16,.22-.59,.25-.9,.38-.1-.48-.44-1.07-.27-1.43,1.57-3.39,4.02-6.19,6.41-8.99,1.7-1.99,3.66-3.77,5.53-5.61,.3-.3,.65-.14,.84,.28Z"/>
  <path class="cls-6" d="M43.12,285.71c-.06,.1-.13,.19-.19,.29-.14-.12-.28-.25-.42-.37,.12-.09,.23-.18,.35-.27,.09,.12,.18,.23,.27,.35Z"/>
  <path class="cls-6" d="M178.57,220.99c-.92,.39-1.81,.9-2.86,.44,.64-5.14,1.4-10.25,4.88-14.43,.27,.26,.55,.52,.82,.78-1.23,3-2.8,5.9-3.19,9.17-.11,.94,.62,.99,1.34,.61,.45-.24,.91-.47,1.37-.7,.27,.27,.53,.55,.8,.82-1.05,1.11-2.1,2.21-3.15,3.32Z"/>
  <path class="cls-6" d="M180.59,207c.8-1.51,2.01-2.43,3.76-2.43,1.11,0,2.02,.58,2.77,1.34,1.07,1.07,1.48,2.37,.97,3.85-.63,1.86-1.5,3.55-3.22,4.66-.27-.25-.55-.5-.82-.75,.63-1.05,1.31-2.09,1.87-3.17,.73-1.41,.64-2.69-.24-3.39-1.13-.89-2.27-.71-3.38,.11-.28,.21-.59,.38-.89,.56-.27-.26-.55-.52-.82-.78Z"/>
  <path class="cls-6" d="M184.87,214.42c-.34,.39-.68,.77-1.02,1.16-.27-.28-.53-.55-.8-.83,.34-.36,.67-.72,1.01-1.08,.27,.25,.55,.5,.82,.75Z"/>
  <path class="cls-6" d="M183.84,215.58c-.36,.35-.71,.71-1.07,1.06l-.79-.83c.35-.35,.71-.71,1.06-1.06,.27,.28,.53,.55,.8,.83Z"/>
  <path class="cls-6" d="M182.77,216.64c-.35,.34-.7,.69-1.05,1.03-.26-.27-.53-.55-.79-.82,.35-.35,.7-.7,1.05-1.04,.26,.28,.53,.55,.79,.83Z"/>
  <path class="cls-5" d="M149.36,63.12c-1.16,2.47-3.57,3.86-5.13,6.02-3.57,4.95-5.64,10.6-7.36,16.31-1.52,5.02-2.31,10.27-3.31,15.43-.26,1.37-.13,2.82-.13,4.23-.01,3.71,.09,7.42-.03,11.13-.26,8.66,1.86,16.73,5.81,24.38,.57,1.1,1.08,2.22,1.62,3.33-6.27-1.18-12.19-3.42-18-5.96-1.81-.79-1.9-1.26-1.64-3.35,1.31-10.48,2.56-20.97,3.91-31.44,1.24-9.6,2.59-19.18,3.85-28.78,.19-1.44,.4-2.81,1.67-3.72,5.63-4.06,11.49-7.56,18.75-7.59Z"/>
  <path class="cls-9" d="M125.2,90.45c-1.83,.74-3.44,.43-4.98,.25-6.64-.75-13.28-1.59-19.91-2.44-7.15-.91-14.3-1.87-21.46-2.8-4.54-.59-9.07-1.19-13.61-1.75-1.57-.2-3.16-.27-4.73-.47-1.04-.13-2.07-.33-3.08-.6-.25-.07-.52-.49-.55-.77-.02-.17,.39-.56,.61-.57,1.23-.03,2.48-.09,3.7,.07,6.81,.87,13.61,1.76,20.4,2.73,3.31,.47,6.64,.74,9.96,1.21,9.93,1.41,19.92,2.4,29.88,3.57,1.21,.14,2.44,.22,3.77,1.56Z"/>
  <path class="cls-6" d="M176.96,99.33c.48,.69,.97,1.37,1.46,2.06-4.46,1.81-8.98,1.76-13.55,.48,.27-.29,.54-.58,.8-.86,2.17,.04,4.34,.12,6.51,.11,.82,0,1.06-.65,1.1-1.37,.28-.28,.56-.56,.85-.83,.94,.14,1.88,.28,2.82,.41Z"/>
  <path class="cls-6" d="M164.87,101.87c-.62-.32-1.31-.59-1.48-1.38-.21-.95,.19-1.72,.86-2.36,.66-.63,1.47-.97,2.38-1.01,2.68-.14,5.32-.14,7.51,1.8-.28,.28-.56,.55-.84,.83-1.72-.4-3.42-.87-5.16-1.18-1.4-.25-2.1,.53-2.46,2.44-.27,.29-.54,.58-.8,.86Z"/>
  <path class="cls-12" d="M174.79,80.16q1.3,1.47,.09,3.07c-.03-1.02-.06-2.05-.09-3.07Z"/>
  <path class="cls-4" d="M207.26,104.78c.11,.12,.22,.25,.34,.38-.14,.1-.28,.29-.4,.29-.13,0-.25-.21-.37-.33,.14-.1,.27-.21,.44-.34Z"/>
  <path class="cls-7" d="M334.08,359.35c-13.68,.07-24.55-11.42-24.48-24.69,.07-13.12,9.93-24.93,24.97-24.76,14.15,.16,24.34,10.16,24.52,24.71,.18,14.38-11.74,25.14-25.01,24.75Z"/>
  <path class="cls-10" d="M265.59,139.47c1.01-2.81,3.75-4,5.65-5.97,.65-.67,1.63-.38,2.5-.31,1.73,.15,3.46,.37,5.19,.34,1.67-.03,1.99-.59,2.12-2.82,.02-.33,0-.66,0-1.27,1.42-.07,2.91-.09,4.39-.25,1.28-.14,1.85,.74,2.55,1.49,.49,2.25,.66,4.53,.45,6.83-.46,5.01-4.65,9.06-9.68,9.61-4.81,.52-8.64-1.08-11.49-4.97-.62-.85-1.12-1.78-1.68-2.68Z"/>
  <path class="cls-11" d="M283.34,121.45c-.19,.26-.33,.66-.58,.74-.28,.09-.71-.02-.96-.21-2.56-1.88-5.11-3.78-7.64-5.69-.48-.36-.52-.9-.21-1.37,.38-.59,.98-.38,1.39-.08,2.57,1.86,5.12,3.76,7.65,5.68,.22,.17,.24,.61,.36,.93Z"/>
  <path class="cls-11" d="M278.85,127.38c-.29,.13-.68,.44-.87,.35-2.99-1.47-5.74-3.32-8.27-5.49-.17-.15-.19-.7-.05-.94,.13-.23,.65-.47,.84-.38,2.98,1.48,5.76,3.27,8.25,5.49,.18,.16,.08,.64,.1,.97Z"/>
  <path class="cls-10" d="M172.67,21.72c.01,1.12-.53,2.11-1.27,2.77-1.56,1.4-2.15,3.02-2.06,5.06,.04,.87-.42,1.73-1.48,1.78-.75,.04-1.29-.46-1.57-1.14-.52-1.28-.93-2.6-1.52-3.84-.28-.6-.86-1.06-1.31-1.59,2.9-1.52,5.9-2.74,9.21-3.05Z"/>
  <path class="cls-11" d="M179.27,19.34c.08,.33,.33,.83,.2,.95-1.13,1.1-3.5,1.34-5.02,.59,1.42-1.09,3.06-1.49,4.81-1.54Z"/>
  <path class="cls-11" d="M178.8,40.18c-2.13,.08-3.44-.9-4.33-2.58-.41-.77-.93-1.58-.37-2.41,.62-.92,1.5-.58,2.31-.18,1.09,.54,2.2,1.05,3.27,1.63,.89,.49,2.03,.97,1.59,2.27-.4,1.16-1.59,1.16-2.46,1.27Z"/>
  <path class="cls-11" d="M187.71,26.14c-.02,.46,0,.99-.09,1.5-.22,1.35-2.4,1.36-2.1,3.23,.19,1.16-.09,2.43-.33,3.61-.07,.34-.74,.6-1.19,.77-.1,.04-.56-.39-.58-.63-.16-2.08-.32-4.16-.36-6.25-.01-.79,.46-.94,1.36-.89,1.92,.12,.7-1.97,1.59-2.65,.25-.19,.59-.42,.86-.39,.24,.02,.52,.35,.64,.6,.14,.3,.12,.68,.18,1.09Z"/>
  <path class="cls-11" d="M159.75,29.67c-.08-.51-.23-1.03-.2-1.54,.01-.27,.26-.66,.51-.76,.25-.1,.75-.03,.91,.16,1.1,1.35,2.16,2.73,3.18,4.14,.39,.54,.98,1.25,.51,1.87-.81,1.05-1.44,.1-2.1-.39-.41-.3-.91-.5-1.4-.65-.76-.24-1.93,.21-2.07-.99-.07-.58,.44-1.22,.68-1.84Z"/>
  <path class="cls-10" d="M178.1,25.96c-.06,.33-.12,.84-.24,1.34-.04,.14-.29,.37-.35,.35-.26-.11-.65-.27-.68-.47-.11-.68-.14-1.38-.09-2.06,.02-.29,.31-.78,.51-.8,.58-.06,.77,.41,.79,.93,0,.17,.03,.35,.05,.71Z"/>
  <path class="cls-9" d="M215.49,277.67c-.51-.3-.97-.43-1.02-.64-.06-.26,.15-.78,.38-.88,3.01-1.32,5.84-3.07,9.1-3.78,.28-.06,.72,.1,.92,.31,.13,.14,.07,.72-.09,.83-2.91,1.96-6.29,2.83-9.3,4.15Z"/>
  <path class="cls-9" d="M241.03,268.85c.75,.08,1.43,.28,1.76,1.05-3.19,1.44-6.38,2.9-9.58,4.33-.48,.21-1,.33-1.51,.46-.5,.13-1.05,.17-1.19-.45-.05-.22,.24-.68,.48-.79,3.33-1.56,6.69-3.07,10.03-4.59Z"/>
  <path class="cls-9" d="M221.77,281.87c-.46-.31-.89-.46-.93-.68-.04-.27,.16-.77,.39-.87,2.85-1.27,5.71-2.52,8.6-3.69,.39-.16,1.27,0,1.4,.28,.39,.81-.38,1.17-.96,1.42-2.86,1.22-5.75,2.4-8.5,3.54Z"/>
  <path class="cls-9" d="M247.19,273.09c.47,.29,.95,.58,1.43,.87-3.19,2.18-6.8,3.44-10.41,4.71-.46,.16-1.04,0-1.13-.59-.03-.23,.31-.65,.58-.77,3.17-1.43,6.35-2.82,9.53-4.22Z"/>
  <path class="cls-8" d="M181.98,215.81c-.35,.35-.7,.7-1.05,1.04-.46,.23-.91,.46-1.37,.7-.72,.38-1.45,.34-1.34-.61,.39-3.27,1.97-6.17,3.19-9.17,.3-.19,.61-.36,.89-.56,1.1-.82,2.25-1,3.38-.11,.88,.7,.98,1.98,.24,3.39-.57,1.09-1.24,2.12-1.87,3.17-.34,.36-.67,.72-1.01,1.08-.35,.35-.71,.71-1.06,1.06Z"/>
  <path class="cls-1" d="M165.68,101.01c.36-1.91,1.06-2.68,2.46-2.44,1.74,.31,3.44,.77,5.16,1.18-.04,.72-.29,1.37-1.11,1.37-2.17,0-4.34-.07-6.51-.11Z"/>
</svg>