<?xml version="1.0" encoding="UTF-8"?>
<svg id="Capa_1" data-name="Capa 1" xmlns="http://www.w3.org/2000/svg" viewBox="0 0 410.95 429.74">
  <defs>
    <style>
      .cls-1 {
        fill: #f7b468;
      }

      .cls-2 {
        fill: #f7c53a;
      }

      .cls-3 {
        fill: #ed8575;
      }

      .cls-4 {
        fill: #f49b44;
      }

      .cls-5 {
        fill: #fff;
      }

      .cls-6 {
        fill: #edb221;
      }

      .cls-7 {
        fill: #fae1ca;
      }

      .cls-8 {
        fill: #f0a55a;
      }

      .cls-9 {
        fill: #b56a4d;
      }

      .cls-10 {
        fill: #cba153;
      }

      .cls-11 {
        fill: #141011;
      }

      .cls-12 {
        fill: #543434;
      }

      .cls-13 {
        fill: #54794a;
      }
    </style>
  </defs>
  <path class="cls-13" d="M254.69,177.58c8.97,17.26,17.98,34.49,26.34,52.06,15.41,32.37,29.71,65.21,41.37,99.15,.66,1.93,1.19,3.91,1.78,5.87-1.66,.09-3.18,.64-4.69,1.28-11.81,5.03-23.6,10.08-35.45,15.01-4.88,2.03-9.65,4.38-14.82,5.68-7.62-11.36-15.31-22.67-22.86-34.08-10.14-15.33-20.16-30.74-30.23-46.12-.67-1.02-1.33-2.06-2.04-3.06-.96-1.34-1.59-1.36-2.95-.15-.61,.54-1.17,1.14-1.76,1.71-11.58,11.16-25.14,18.75-40.81,22.48-3.77,.9-7.59,1.57-11.38,2.35-.27-.76-.71-1.51-.78-2.29-.92-10.97-1.8-21.94-2.65-32.92-.55-7.12-1.01-14.24-1.55-21.35-.26-3.41-.3-3.41-4.51-4.37-1.11-4.6-3.03-8.81-6.18-12.4-.27-1.32-.55-2.65,.46-3.82,1.1-.53,2.18-1.09,3.3-1.57,9.05-3.86,17.37-8.95,25.13-14.99,4.11-3.19,4.16-3.21,2.55-7.91-3.19-9.34-4.97-18.9-4.46-28.81,9.11,.76,18.23,1.48,27.34,2.3,12.76,1.15,25.53,2.2,38.25,3.64,6.86,.78,13.83,.75,20.6,2.33Zm-43.81,91.28c0-.4,.13-.85-.02-1.16-.99-2.02-1.98-4.03-3.07-6-7.74-13.91-15.5-27.81-23.27-41.7-1.49-2.67-3.05-5.31-4.61-7.94-.3-.5-.79-.96-1.39-.49-.24,.19-.38,.8-.26,1.09,.63,1.5,1.29,2.99,2.08,4.41,4.52,8.23,9.08,16.44,13.63,24.65,4.25,7.68,8.48,15.37,12.78,23.02,.88,1.57,2.07,2.97,3.15,4.43,.08,.11,.41,.12,.59,.07,.16-.05,.28-.26,.4-.38Z"/>
  <path class="cls-2" d="M254.69,177.58c-6.77-1.58-13.73-1.55-20.6-2.33-12.73-1.44-25.5-2.49-38.25-3.64-9.11-.82-18.23-1.54-27.34-2.3-1.62-.7-1.78-2.05-1.66-3.57,.74-9.39,1.46-18.77,2.19-28.16,.43-5.5,.86-11.01,1.26-16.51,.01-.17-.2-.35-.43-.74-1.33-.24-2.61,.48-3.89,.93-2.51,.87-5.01,1.81-7.46,2.83-1.38,.57-2.36,0-3.36-.76-.07-1.87-.9-3.5-1.64-5.17-2.6-5.92-5-11.93-7.82-17.75-2.46-5.08-3.87-10.66-7.24-15.31q-1.78-6.49,4.42-9.52c15.75-7.66,32.25-13.03,49.53-15.84,5.24-.85,10.58-1.16,15.89-1.43,2.4-.13,3.83-.92,4.39-3.26,.09-.36,.48-.64,.73-.96,2.45,1.03,4.92,2,7.34,3.1,1.93,.88,3.9,1.16,5.98,.86,2.51,.52,4.8-.1,6.95-1.4,.4,.44,1.1,.85,1.14,1.31,.25,2.83,2.07,3.45,4.52,3.98,10.55,2.28,20.82,5.48,30.75,9.77,5.99,2.59,11.78,5.54,17.06,9.41,.8,.58,1.4,1.43,2.08,2.15-.05,12.06-.12,24.12-.14,36.18,0,2.45,.18,4.89,.28,7.34-.54,5.3-.55,5.38-5.49,5.18-5.83-.24-11.66-.64-17.48-.97,.35-4.88,.72-9.76,1.03-14.64,.04-.56-.17-1.29-1-1.21-.3,.03-.74,.35-.81,.62-1.45,5.14-1.41,10.41-1.38,15.68,0,.15,.26,.3,.4,.45-1.13,10.28-2.25,20.56-3.41,30.83-.46,4.03-.96,8.05-1.56,12.06-.35,2.33-.46,2.32-3.15,2.65-.6,.07-1.21,.1-1.82,.14Zm-65.94-62.87s0,.04,0,.05c1.63,0,3.26,0,4.88,0,.4,0,.82-.04,1.21-.12,2.55-.52,4.33-2.74,4.2-5.22-.13-2.6-1.91-4.6-4.63-4.72-3.65-.16-7.33-.17-10.98,0-2.94,.13-5,2.5-4.88,5.18,.11,2.41,2.05,4.52,4.7,4.79,1.81,.19,3.66,.04,5.49,.04Zm34.34-46.55c.33-.04,.93-.1,1.52-.2,.53-.1,.71-.41,.52-.84-.07-.17-.15-.42-.29-.47-.55-.23-1.13-.56-1.7-.57-3.68-.03-6.71-1.38-9.07-4.21-.25-.3-.62-.58-.98-.66-.32-.07-.84,.03-1.02,.26-.19,.25-.25,.83-.09,1.08,2.57,3.84,6.18,5.72,11.09,5.62Z"/>
  <path class="cls-1" d="M147.7,238.82c4.21,.96,4.25,.96,4.51,4.38,.54,7.12,1,14.24,1.55,21.35,.85,10.98,1.74,21.95,2.65,32.92,.07,.78,.51,1.53,.78,2.29-.15,9.64,1.43,19.17,1.92,28.77,.05,1.01,.28,2.03,.23,3.03-.04,.91-.74,1.48-1.62,1.55-.8,.06-1.61-.14-2.42-.19-8.57-.55-17.15-1.1-25.72-1.65-8.37-.53-16.74-1.04-25.11-1.63-1.42-.1-2.79-.55-4.21,.1-.52,.24-1.23,.31-1.79,.19-8.84-1.9-17.83-2.11-26.81-2.55-2.64-.13-5.26-.73-7.89-1.11-.15-6,2.18-11.54,3.25-17.31,1.11-5.98,2.76-11.86,4.08-17.8,2.81-12.67,5.57-25.35,8.33-38.04,1.38-6.34,2.7-12.69,4.05-19.04,.45-.01,.9-.02,1.34-.04,3.26,1.21,3.59,1.04,3.63-1.9,.01-.99-.07-1.98-.11-2.97,1.86,.44,3.71,.88,5.57,1.32,4.25,2.42,9.12,3.02,13.62,4.72,3.27,1.24,6.63,1.69,10.1,1.36,.89,.07,1.79,.14,2.68,.21,.95,.25,1.89,.65,2.86,.71,5.17,.34,10.34,.6,15.51,.89,1.05,.39,2.11,.42,3.18,.1,.99,.13,1.99,.25,2.98,.38,.95-.02,1.9-.03,2.85-.05Z"/>
  <path class="cls-8" d="M84.83,234.04c-.45,.01-.9,.02-1.34,.04-1.43,0-2.86,.03-4.29,.02-1.6-.02-2.75,.54-3.17,2.23-.25,.99-.76,1.91-.97,2.9-2.63,12.32-5.05,24.68-7.87,36.96-2.97,12.87-6.06,25.7-8.48,38.69-.16,.87-.78,1.39-1.5,1.82-2.76,.17-5.17-1.81-7.98-1.33-.67-.43-1.28-1.03-2.01-1.26-7.94-2.47-15.9-4.88-23.86-7.31-3.02-1.41-6.09-2.67-9.52-2.59-1.8-.86-3.61-1.73-5.41-2.59,.31-.96,.51-1.98,.96-2.88,6.24-12.66,12.62-25.24,18.47-38.1,3.48-7.63,7.51-15.01,11.18-22.56,2.77-5.7,5.31-11.5,8.02-17.23,.64-1.35,.81-2.73,.82-4.17,1.4,.03,2.81,.06,4.22,.09,.69,1.12,1.78,1.38,2.98,1.4,.51,.33,.98,.79,1.54,.96,8.98,2.76,17.97,5.48,26.96,8.21,1.62,2.01,.95,4.45,1.27,6.7Z"/>
  <path class="cls-9" d="M297.9,413.81c-3.88-10.07-7.02-20.34-8.65-31.05-.39-2.56,.01-4.83,1.21-7.04,6.95-2.94,13.85-6.01,20.87-8.77,5.68-2.23,11.14-5.1,17.15-6.45,1.65,.08,3.1,.71,4.59,1.39,2.93,1.35,5.94,2.54,8.97,3.67,1.08,.4,2.25,1.01,3.48,.31,0,0-.06-.1-.06-.1-.18,1.1,.72,1.11,1.38,1.37,.63,.35,1.22,.87,1.89,1.02,1.42,.32,1.62,1.32,1.7,2.48-.16,.06-.33,.1-.46,.2-.08,.06-.07,.23-.1,.35,.21-.16,.41-.33,.62-.49,1.41-.86,2.9-1.43,4.6-1.16,1.9,.72,3.79,1.44,5.69,2.16-.56,.89-1.12,1.79-1.67,2.69-2.61,.68-4.53,2.03-4.92,4.93-.76,.21-1.57,.31-2.25,.67-.42,.22-1.16,.76-.36,1.37,.2,.15,.84,0,1.07-.23,.57-.55,1.01-1.22,1.51-1.84,2.6-.68,4.58-1.98,4.91-4.93,1.85,.22,2.9-.87,3.75-2.29,9.21,1.76,18.34,3.94,27.64,5.29,8.23,1.2,13.47,6.27,16.37,13.93-6.71,.75-13.19,2.59-19.78,3.95-14.96,3.09-29.93,6.17-44.89,9.29-14.76,3.08-29.51,6.2-44.26,9.31Z"/>
  <path class="cls-3" d="M138.45,85.1c3.37,4.64,4.78,10.23,7.24,15.31,2.82,5.81,5.22,11.83,7.82,17.75,.73,1.67,1.57,3.3,1.63,5.17-9.99,7.72-17.71,17.45-24.7,27.83-1.09,1.62-1.38,3.24-.87,5.21,.97,3.75,1.53,7.61,2.53,11.35,1.07,3.99,.24,7.68-1.18,11.34-.18,.45-.95,.67-1.45,1l-4,.6c.21-.77,.45-1.54,.63-2.32,.53-2.34,1.04-4.68,1.53-7.03,.14-.67-.22-1.14-.87-1.29-.69-.16-1.17,.24-1.33,.86-.64,2.52-1.22,5.05-1.86,7.57-.27,1.04-.2,1.97,.56,2.77-1.27,1.67-.89,4.05-2.4,5.62-.13,2.57-1.42,4.64-2.93,6.59-1.21,1.57-2.91,1.38-3.9-.45-.58-1.07-1.25-2.19-1.46-3.35-.76-4.24-3.5-6.05-7.45-6.96-4.18-.96-8.13-2.68-11.93-4.7-2.97-1.58-4.88-3.69-4.39-7.3,2.36-3.16,3.07-7.06,4.77-10.51,3.5-6.49,7.11-12.91,11.81-18.64,1.49-1.82,2.06-3.99,2.64-6.15,2.08-7.72,4.72-15.25,7.97-22.55,3.86-8.67,8.67-16.73,15.84-23.13,1.83-1.63,3.83-3.06,5.76-4.58Z"/>
  <path class="cls-3" d="M289.36,126.79c-.1-2.45-.28-4.89-.28-7.34,.02-12.06,.08-24.12,.14-36.18,5.52-.64,10.75-2.37,15.76-4.66,9.86-4.5,18.94-10.33,27.78-16.57,1.96-1.38,3.19-2.87,3.24-5.45,.04-2.21,.67-4.42,1.09-6.62,.24-1.22,.81-2.29,1.83-3.08,3.07,.06,6.13,.13,9.2,.17,2.27,.03,4.48,.39,6.6,1.22,1,.39,1.85,.96,2,2.08,.18,1.34-.42,2.46-1.6,3.05-1.07,.55-2.25,.97-3.42,1.22-3.28,.7-3.68,1.13-3.86,4.35-.28,5.05-1.42,9.79-7,11.83-.21,.08-.39,.74-.3,1.07,.17,.67,.82,.92,1.41,.79,3.24-.75,5.2-2.93,6.67-5.82,.81-1.6,.34-3.77,2.04-4.83,4.16,1.34,5.94,5.54,9.52,7.51,.57,.32,.7,1.4,1.09,2.1,.68,1.25,1.41,2.47,2.11,3.7-2.13,2.72-5.4,3.56-8.32,4.87-2.73,1.23-4.7,2.95-6.27,5.52-3.93,6.47-8.47,12.51-13.39,18.26-6.98,8.16-14.88,15.14-25.07,19.11-6.75,2.63-13.81,3.49-20.98,3.69Z"/>
  <path class="cls-2" d="M297.9,413.81c14.75-3.1,29.5-6.23,44.26-9.31,14.96-3.12,29.93-6.2,44.89-9.29,6.58-1.36,13.07-3.2,19.78-3.95,2.61,4.07,3.26,8.75,4.01,13.37,.33,2.03-.08,2.63-1.94,3.15-1.77,.49-3.58,.83-5.38,1.18q-4.39,.87-5.95-3.18c-.82-2.13-1.06-2.33-3.04-2.1-1.22,.14-2.46,.26-3.62,.63-1.53,.49-3.28,.37-4.59,1.5-.08,.41-.25,.82-.23,1.21,.09,1.6,.86,3.54,.22,4.72-1.02,1.87-3.51,1.68-5.49,2.03-.4,.07-.81,.12-1.21,.22-1.58,.37-3.21,1.3-4.77,.64-1.69-.72-1.53-2.74-2.02-4.24-.48-1.48-1.45-1.84-2.8-1.63-1.01,.16-2.02,.34-3,.59-1.57,.4-3.47,.45-4.59,1.4-1.42,1.2,.13,3.02,.22,4.58,.08,1.52-.59,2.34-1.91,2.67-2.17,.55-4.37,1-6.57,1.47-4.49,.97-4.31,.03-5.07-3.11-.63-2.6-1.35-2.93-3.91-2.48-.6,.11-1.19,.29-1.79,.43q-4.28,.99-4.16,5.5c.06,2.21-.35,2.8-2.64,3.34-2.38,.56-4.79,1.05-7.2,1.48-2.15,.38-2.7-.05-3.37-2.42-.22-.78-.27-1.62-.54-2.39-.29-.85-1.05-1.35-1.9-1.21-2.61,.45-5.21,.97-7.78,1.6-.44,.11-.8,.83-1.04,1.34-.16,.33-.09,.8-.09,1.2q.05,4.89-4.45,5.84c-1.8,.38-3.59,.77-5.4,1.08-1.44,.25-2.24-.45-2.65-1.85-1.39-4.69-2.86-9.35-4.3-14.03Z"/>
  <path class="cls-13" d="M324.73,336.3c1.85,3.79,2.75,7.9,4.02,11.88,.75,2.35,.7,2.36-1.53,3.74-.67,.41-1.31,.88-1.96,1.32-1.15,.36-2.35,.61-3.45,1.08-6.34,2.69-12.72,5.33-18.98,8.19-4.77,2.18-9.89,3.64-14.27,6.67-2.34,0-4.24,1.33-6.32,2.11-2.35,.88-2.78,.86-4.1-1.08-2.39-3.54-4.67-7.16-7-10.75,1.01-1.03,2.17-1.75,3.53-2.32,16.7-6.92,33.38-13.89,50.06-20.85Z"/>
  <path class="cls-2" d="M202.99,31.43c-2.01-2.93-2.87-6.32-3.43-9.72-1.07-6.52,.78-12.11,6.06-16.32,5.74-4.59,12.32-6.27,19.5-4.96,4.58,.83,8.28,3.48,10.97,7.24,1.54,2.15,3.17,3.01,5.66,2.03,.38-.15,.77-.33,1.17-.36,2.24-.18,4.62-1.77,6.64,.59-.63,2.57-3.11,2.98-4.92,4.11-2.07,1.29-4.29,2.32-6.45,3.47-3.54,1.1-6.89,2.6-9.9,4.79-2.87-.51-4.85,1.37-7.08,2.61l.05-.02c-5.33,1.33-10.24,3.66-15.08,6.19-1.06,.12-2.12,.24-3.18,.36Z"/>
  <path class="cls-3" d="M202.99,31.43c1.06-.12,2.12-.24,3.19-.36,2.26-.48,4.43-.11,6.53,.71,1.27,.5,2.37,.13,3.45-.51,2.51-1.48,4.59-3.31,5.08-6.39,0,0-.05,.02-.05,.02,2.53,1.16,4.82,.24,7.01-.95,.25-.14,.06-1.09,.07-1.66,3.01-2.2,6.36-3.69,9.9-4.79,.14,1.29,.27,2.58,.41,3.87-1-.09-2.01-.3-3-.24-.79,.05-1.57,.45-1.75,1.38-.24,1.31,.78,1.08,1.5,1.13,1.4,.1,2.81,.16,4.22,.23,1.89,5.37,2.8,10.9,2.63,16.6-.18,6.35-2.42,11.37-8.72,13.85-5.24,0-10.11-1.9-15.53-3.49,2.11,4.13,5.79,5.23,8.77,7.2-2.08,.3-4.05,.01-5.98-.86-2.42-1.1-4.89-2.07-7.34-3.1,.07-1.41,.23-2.83,.2-4.24-.05-2.27-.15-2.32-2.76-3.11-6.13-1.84-8.24-4.78-7.99-11.06,.06-1.41,.09-2.82,.14-4.24Zm33.12,.95c-.17-.11-.34-.22-.51-.32-.63-.37-.96-1.48-1.96-.89-.57,.33-.59,.93-.39,1.55,.68,2.11,1.37,4.21,1.27,6.47-.01,.27,.41,.79,.67,.81,.71,.06,.97-.56,1.18-1.13,.84-2.24-.43-4.37-.34-6.57,1.22-1.03,3.41-1.38,2.57-3.82-.25-.74-.28-1.66-1.26-1.75-1.21-.11-1.05,.93-1.14,1.66-.18,1.32,1.08,2.68-.09,3.99Zm-28.68,4.03c-1.43,2.11-.96,2.95,.76,2.93,1.3-.01,2.34,.5,3.39,1.12,.42,.25,.79,.28,1.03-.18,.17-.32,.36-.83,.23-1.08-1.14-2.17-2.77-3.95-4.67-5.48-.21-.17-.75-.03-1.09,.09-.46,.15-.48,.52-.37,1.01,.16,.73,.88,1.39,.74,1.6Zm21.71,5.73c-.22,.36-.63,.73-.56,.97,.58,2.05,2.64,3.36,4.55,2.9,.22-.05,.54-.83,.44-.95-1.2-1.38-2.71-2.32-4.43-2.92Zm.22-11.69c-.19-.64-.45-1.6-.77-2.53-.17-.48-.58-.61-.98-.34-.3,.21-.77,.55-.74,.8,.09,.98,.3,1.97,.57,2.92,.08,.29,.51,.64,.8,.67,.74,.06,.96-.54,1.12-1.51Z"/>
  <path class="cls-9" d="M23.35,306.8c7.95,2.43,15.91,4.84,23.86,7.31,.73,.23,1.34,.83,2.01,1.26-4.77,7.82-9.47,15.68-14.34,23.43-4.12,6.57-10.22,9.66-17.94,9.59,.13-1.62,.16-3.27,.42-4.87,1.97-12.24,3.99-24.48,5.99-36.72Z"/>
  <path class="cls-4" d="M47.87,216.69c-.01,1.44-.19,2.82-.82,4.17-2.7,5.73-5.25,11.53-8.02,17.23-3.66,7.55-7.7,14.93-11.18,22.56-5.85,12.85-12.23,25.44-18.47,38.1-.44,.9-.64,1.92-.96,2.88-.6-.04-1.25,.06-1.79-.13-5.79-2.03-6.28-.77-3.22-7.01,2.31-4.7,4.58-9.43,6.81-14.17,.85-1.81,2.06-3.5,2.1-5.61,2.59-3.77,4.67-7.8,6.01-12.19,2.34-1.93,2.43-4.97,3.65-7.45,3.62-5.29,6.26-11.07,8.64-16.99,3.31-6.75,6.61-13.52,9.95-20.26,1.59-3.21,1.64-3.21,5.14-2.17,.76,.23,1.44,.69,2.16,1.05Z"/>
  <path class="cls-4" d="M57.21,316.69c.72-.43,1.33-.95,1.5-1.82,2.41-12.99,5.51-25.82,8.48-38.69,2.83-12.27,5.25-24.64,7.87-36.96,.21-.99,.72-1.91,.97-2.9,.42-1.7,1.57-2.25,3.17-2.23,1.43,.01,2.86,0,4.29-.02-1.35,6.35-2.67,12.7-4.05,19.04-2.76,12.68-5.52,25.37-8.33,38.04-1.32,5.94-2.97,11.82-4.08,17.8-1.07,5.77-3.4,11.31-3.25,17.31-1.61,.03-3.23,.14-4.84,.06-2.31-.13-2.77-.79-2.41-3.09,.34-2.17,1.49-4.25,.68-6.54Z"/>
  <path class="cls-2" d="M23.35,306.8c-2,12.24-4.02,24.48-5.99,36.72-.26,1.6-.28,3.25-.42,4.87-4.94,.63-9.81,.29-14.63-.91-2.06-.51-2.5-1.02-2.25-2.89,.36-2.64,.83-5.26,1.29-7.88,.25-1.42,1.15-2.09,2.6-1.99,.82,.05,1.64,.17,2.45,.15,1.96-.04,2.63-.57,2.99-2.33,.16-.8,.27-1.62,.32-2.44,.12-1.82,.64-3.77,.16-5.43-.61-2.08-3.08-1.58-4.76-2.16-.91-.31-1.32-1.03-1.22-1.87,.29-2.44,.69-4.86,1.08-7.29,.62-3.85,.7-3.91,4.7-3.46,2.78,.31,3.12,.08,3.68-2.66,.2-1,.34-2.02,.5-3.03,3.43-.09,6.49,1.18,9.52,2.59Z"/>
  <path class="cls-9" d="M94.44,160.15c-1.71,3.45-2.41,7.35-4.77,10.51-2.17,1.16-3.14,3.14-3.54,5.41-.55,3.2-1.19,6.4-1.4,9.63-.77,12.21,.05,24.36,2.06,36.42,.39,2.37,.06,4.93,1.56,7.06,.04,.99,.12,1.98,.11,2.97-.03,2.94-.37,3.11-3.63,1.9-.32-2.25,.35-4.69-1.27-6.7-.23-2.64-.38-5.28-.7-7.91-1.58-12.99-2.88-25.98-.9-39.06,.04-.26-.26-.57-.41-.87-6.05,5.21-17.99,22.65-26.5,38.67-1.2-.02-2.29-.28-2.98-1.4,7.84-15.11,17.15-29.23,28.46-41.98,2.03-2.29,3.96-4.57,5.4-7.36,1.79-3.47,4.16-6.61,8.48-7.29Z"/>
  <path class="cls-4" d="M288.56,369.19c4.38-3.03,9.49-4.49,14.27-6.67,6.27-2.86,12.64-5.5,18.98-8.19,1.1-.47,2.3-.73,3.45-1.08,1.08,2.42,2.16,4.84,3.24,7.26-6.02,1.35-11.47,4.22-17.16,6.45-7.02,2.76-13.92,5.83-20.87,8.77-.64-2.18-1.28-4.36-1.91-6.53Z"/>
  <path class="cls-12" d="M363.39,75.33c-.71-1.23-1.43-2.46-2.11-3.7-.39-.7-.52-1.79-1.09-2.1-3.59-1.97-5.36-6.17-9.52-7.51-1.7,1.07-1.23,3.23-2.04,4.83-1.47,2.89-3.43,5.07-6.67,5.82-.6,.14-1.24-.12-1.41-.79-.08-.32,.09-.99,.3-1.07,5.57-2.03,6.72-6.78,7-11.83,.18-3.22,.58-3.65,3.86-4.35,1.18-.25,2.35-.67,3.42-1.22,1.18-.6,1.78-1.71,1.6-3.05-.15-1.12-1-1.69-2-2.08-2.12-.84-4.33-1.19-6.6-1.22-3.07-.04-6.13-.11-9.2-.17-.05-2.17,1.55-2.31,3.09-2.51,5.84-.07,11.57,.66,17.1,2.64,.82,3.46,.22,6.09-1.99,7.92-.92,.77-2.08,1.23-3.07,1.93-1.31,.93-1.28,2.95-.01,4.21,.8,.79,2.11,.7,3.15-.45,3.14-3.47,6.81-6.32,10.48-9.17,1.13-.88,2.25-1.74,3.79-1.63,0,0,.18,.28,.18,.29-.36,2.06-2.12,2.9-3.53,4.01-3.21,2.53-6.41,5.06-9.08,8.17-1.49,1.74-.93,3.46,1.23,4.24,1.25,.45,2.41,.35,3.51-.3,.72-.42,1.07,.09,1.49,.47-.08,.37-.08,.77-.24,1.1q-1.69,3.3,.75,5.85c.26,.28,.62,.47,.93,.7-.68,1.75-2.05,1.18-3.3,.97Z"/>
  <path class="cls-1" d="M355.09,369.53c-1.7-.27-3.18,.31-4.6,1.16l-.05-.05c-.08-1.15-.28-2.16-1.7-2.48-.67-.15-1.26-.67-1.89-1.02,.02-.94-.41-1.42-1.38-1.37,0,0,.06,.1,.06,.1,.23-1.67-1.25-2.41-1.97-3.55-1.07-1.71-2.16-3.41-2.6-5.42-.38-1.76,.26-3.15,1.69-4.21,1.3-.95,2.43-.18,2.93,2-2.14,.6-2.67,1.13-2.32,2.42,.48,1.74,1.24,3.3,2.92,4.22,.41,.47,.51,1.69,1.35,1.11,.63-.43,.16-1.34-.46-1.87-.52-1.98-1.03-3.96-1.55-5.94,.62-.29,1.25-.21,1.6,.33,.97,1.49,1.85,3.03,2.72,4.48,1.47-.39,1.61-1.5,2.04-2.39,.71-1.47,1.33-3,2.23-4.35,2.08-3.14,4.79-3.77,7.89-1.99,3.02,1.73,4.03,4.6,2.61,7.84-1.25,2.86-3.33,5.11-5.59,7.21-1.32,1.23-3.18,1.92-3.92,3.76Zm-3.12-1.58c4.13-2.15,7.04-4.88,9.44-8.16,.69-.94,1.12-2.16,1.39-3.32,.38-1.66-.58-3.29-2.09-4-1.54-.72-3.43-.46-4.4,.91-2.98,4.19-4.29,8.91-4.34,14.56Z"/>
  <path class="cls-2" d="M30.62,238.07c-2.38,5.92-5.02,11.7-8.64,16.99q-.4-3.32-3.17-4.02c-.79-.2-1.62-.31-2.36-.64-.77-.34-1.25-.99-1.12-1.95,.23-1.62,.43-3.24,.66-4.86,.93-6.67,.95-6.13,6.66-5.65,2.64,.22,5.31,.09,7.96,.12Z"/>
  <path class="cls-3" d="M359.1,47.02c-5.53-1.97-11.25-2.71-17.1-2.64,4.41-3.17,8.99-6.09,13.98-8.25,5.18-2.24,6.99-1.15,8.37,4.64,.04,.18-.05,.4-.09,.6-1.64,1.97-4.35,2.97-5.19,5.68l.03-.03Z"/>
  <path class="cls-3" d="M365.26,66.72c-.43-.38-.77-.89-1.49-.47-1.11,.65-2.26,.75-3.51,.3-2.17-.78-2.73-2.5-1.23-4.24,2.67-3.11,5.87-5.64,9.08-8.17,1.41-1.11,3.17-1.95,3.53-4.01,3.55,2.67,5.15,6.4,5.71,10.67-.55-.26-1.17-.83-1.63-.72-4.15,.98-7.92,2.75-11.01,5.79-.06,.06,.34,.58,.52,.89l.02-.03Z"/>
  <path class="cls-10" d="M324.73,336.3c-16.68,6.96-33.36,13.93-50.06,20.85-1.36,.56-2.52,1.29-3.53,2.32-1.1-.65-1.98-1.43-1.92-2.84,5.17-1.29,9.94-3.64,14.83-5.67,11.85-4.93,23.64-9.99,35.45-15.01,1.51-.65,3.03-1.19,4.69-1.28,.63,.4,.72,.98,.55,1.64Z"/>
  <path class="cls-3" d="M371.45,49.83c-1.54-.11-2.66,.76-3.79,1.63-3.67,2.85-7.34,5.71-10.48,9.17-1.04,1.15-2.35,1.24-3.15,.45-1.27-1.26-1.29-3.28,.01-4.21,.98-.7,2.15-1.17,3.07-1.93,2.21-1.84,2.81-4.47,1.99-7.92,0,0-.03,.03-.03,.03,.36,.4,.64,1.06,1.35,.55,1.77-1.27,3.53-2.57,5.29-3.85,2.58,1.4,4.6,3.33,5.74,6.08Z"/>
  <path class="cls-3" d="M366.69,74.36c-.31-.23-.66-.42-.93-.7q-2.45-2.55-.75-5.85c.17-.32,.17-.73,.24-1.1,0,0-.02,.03-.02,.03,.84,.26,1.55-.06,2.29-.44,3.26-1.68,6.54-3.3,9.81-4.94,.75,2.16-.11,4.01-1.42,5.56-2.58,3.06-5.28,6.04-9.23,7.43Z"/>
  <path class="cls-2" d="M18.33,262.51c-1.34,4.39-3.41,8.42-6.01,12.19-.32-.47-.96-.99-.91-1.41,.4-3.2,.87-6.4,1.45-9.58,.32-1.74,1-2.07,3.11-1.77,.8,.11,1.57,.37,2.36,.56Z"/>
  <path class="cls-12" d="M226.72,58.04c-2.99-1.97-6.67-3.07-8.77-7.2,5.42,1.59,10.3,3.49,15.53,3.49,.06,.77,.12,1.54,.19,2.31-2.15,1.3-4.43,1.92-6.95,1.4Z"/>
  <path class="cls-7" d="M264.63,131.9c-.14-.15-.4-.3-.4-.45-.03-5.27-.06-10.55,1.38-15.68,.08-.27,.52-.59,.81-.62,.83-.08,1.03,.65,1,1.21-.31,4.88-.68,9.76-1.03,14.64-.59,.3-1.17,.6-1.76,.89Z"/>
  <path class="cls-12" d="M377.34,61.37c-3.27,1.64-6.56,3.26-9.81,4.94-.75,.38-1.45,.7-2.29,.44-.18-.31-.58-.83-.52-.89,3.08-3.03,6.85-4.8,11.01-5.79,.46-.11,1.08,.46,1.63,.72,0,0,0,.58,0,.58Z"/>
  <path class="cls-12" d="M365.71,43.75c-1.76,1.29-3.52,2.58-5.29,3.85-.71,.51-.98-.16-1.35-.55,.84-2.71,3.54-3.71,5.19-5.68,1.26,.32,1.59,1.21,1.45,2.38Z"/>
  <path class="cls-12" d="M239.57,23.89c-1.41-.07-2.81-.13-4.22-.23-.72-.05-1.74,.18-1.5-1.13,.17-.92,.96-1.33,1.75-1.38,.99-.06,2,.14,3,.24,.47,.78,1.3,1.42,.97,2.5Z"/>
  <path class="cls-6" d="M359.11,374.37c.56-.9,1.11-1.79,1.67-2.69,.68,.12,1.36,.24,2.04,.37-.85,1.41-1.9,2.51-3.75,2.29l.04,.03Z"/>
  <path class="cls-9" d="M129.47,180.05c3.7,9.78,6.87,19.72,8.87,30,.67,3.42,1.27,6.84,1.83,10.28,.19,1.16,.92,1.76,1.82,2.28-1.01,1.17-.73,2.5-.46,3.82,.02,1.3,.03,2.6,.05,3.91-.24,2.73-.21,5.46,.3,8.16-1.07,.32-2.13,.29-3.19-.1,.88-4.92-.96-9.57-1.45-14.36-3.35-21.04-6.51-32.81-10.37-38.59-.93,.5-.54,1.36-.5,2.05,.43,7.78,.41,15.54-.83,23.27-.85,5.24-1.63,10.49-2.44,15.74-.93,3.43-1.86,6.85-2.79,10.28-.89-.07-1.79-.14-2.68-.21-.03-3.24,1.89-6.2,1.4-9.51,.67-2.98,1.44-5.94,1.98-8.94,1.59-8.85,2.45-17.76,1.99-26.76-.08-1.6,.15-3.31-1.27-4.54,1.51-1.57,1.12-3.95,2.4-5.62,.45-.19,.9-.38,1.35-.57l4-.6Z"/>
  <path class="cls-10" d="M210.89,268.86c-.12,.12-.24,.33-.4,.38-.18,.06-.5,.05-.59-.07-1.08-1.46-2.26-2.86-3.15-4.43-4.31-7.65-8.53-15.34-12.78-23.02-4.55-8.21-9.1-16.42-13.63-24.65-.78-1.42-1.44-2.92-2.08-4.41-.12-.29,.02-.9,.26-1.09,.6-.47,1.09,0,1.39,.49,1.56,2.63,3.11,5.27,4.61,7.94,7.77,13.89,15.53,27.79,23.27,41.7,1.09,1.96,2.09,3.98,3.07,6,.15,.31,.02,.76,.02,1.16Z"/>
  <path class="cls-10" d="M141.57,230.32c-.02-1.3-.03-2.6-.05-3.91,3.14,3.59,5.06,7.8,6.18,12.4-.95,.02-1.9,.03-2.85,.05,.44-3.44-1.64-5.9-3.28-8.54Z"/>
  <path class="cls-5" d="M188.75,114.71c-1.83,0-3.68,.15-5.49-.04-2.65-.27-4.6-2.38-4.7-4.79-.12-2.68,1.94-5.05,4.88-5.18,3.65-.17,7.33-.16,10.98,0,2.72,.12,4.5,2.12,4.63,4.72,.13,2.48-1.65,4.7-4.2,5.22-.4,.08-.81,.12-1.21,.12-1.63,.01-3.26,0-4.88,0,0-.02,0-.04,0-.05Z"/>
  <path class="cls-7" d="M223.09,68.16c-4.91,.1-8.52-1.78-11.09-5.62-.17-.25-.11-.83,.09-1.08,.18-.23,.7-.33,1.02-.26,.36,.08,.73,.37,.98,.66,2.37,2.84,5.4,4.18,9.07,4.21,.57,0,1.15,.34,1.7,.57,.14,.06,.21,.3,.29,.47,.18,.43,0,.74-.52,.84-.59,.11-1.2,.16-1.52,.2Z"/>
  <path class="cls-13" d="M137.24,224.03c.49,4.79,2.33,9.43,1.45,14.36-5.17-.29-10.35-.55-15.51-.89-.96-.06-1.91-.47-2.86-.71,.93-3.43,1.86-6.85,2.79-10.28,4.83-.15,9.55-.91,14.14-2.47Z"/>
  <path class="cls-13" d="M93.92,230.5c5.88-1.56,11.97-1.53,17.93-2.5,2.38-.39,4.79-.62,7.18-.93,.49,3.31-1.44,6.27-1.4,9.51-3.47,.33-6.83-.12-10.1-1.36-4.49-1.7-9.37-2.3-13.62-4.72Z"/>
  <path class="cls-13" d="M141.57,230.32c1.64,2.64,3.72,5.11,3.28,8.54-1-.13-1.99-.25-2.99-.38-.5-2.71-.54-5.43-.3-8.16Z"/>
  <path class="cls-6" d="M359.07,374.34c-.33,2.94-2.31,4.25-4.91,4.93l.03,.03c.39-2.89,2.31-4.25,4.92-4.93,0,0-.03-.03-.03-.03Z"/>
  <path class="cls-6" d="M354.16,379.26c-.5,.62-.94,1.3-1.51,1.84-.23,.22-.87,.38-1.07,.23-.8-.61-.06-1.15,.36-1.37,.68-.36,1.49-.46,2.25-.67,0,0-.03-.03-.03-.03Z"/>
  <path class="cls-5" d="M345.47,365.76c.96-.05,1.4,.43,1.38,1.37-.65-.26-1.56-.27-1.38-1.37Z"/>
  <path class="cls-1" d="M350.49,370.69c-.21,.16-.41,.33-.62,.49,.03-.12,.03-.28,.1-.35,.12-.1,.3-.14,.46-.2,0,0,.05,.05,.05,.05Z"/>
  <path class="cls-12" d="M125.47,180.65c-.45,.19-.9,.38-1.35,.57-.77-.81-.83-1.73-.56-2.77,.64-2.52,1.22-5.05,1.86-7.57,.16-.63,.64-1.02,1.33-.86,.65,.15,1.01,.62,.87,1.29-.49,2.35-1,4.69-1.53,7.03-.18,.78-.42,1.55-.63,2.32Z"/>
  <path class="cls-11" d="M221.25,24.89c-.49,3.09-2.57,4.91-5.08,6.39-1.08,.64-2.19,1-3.45,.51-2.11-.83-4.28-1.19-6.53-.71,4.83-2.53,9.75-4.86,15.07-6.19Z"/>
  <path class="cls-12" d="M228.28,22.31c-.01,.57,.18,1.53-.07,1.66-2.19,1.19-4.48,2.11-7.01,.95,2.22-1.23,4.21-3.12,7.08-2.61Z"/>
  <path class="cls-12" d="M207.43,36.41c.14-.21-.58-.87-.74-1.6-.11-.49-.09-.86,.37-1.01,.35-.11,.88-.26,1.09-.09,1.9,1.52,3.53,3.31,4.67,5.48,.14,.26-.06,.76-.23,1.08-.24,.46-.61,.43-1.03,.18-1.04-.61-2.08-1.13-3.39-1.12-1.71,.02-2.19-.82-.76-2.93Z"/>
  <path class="cls-12" d="M236.04,32.31c-.09,2.2,1.18,4.33,.34,6.57-.21,.57-.48,1.19-1.18,1.13-.25-.02-.68-.54-.67-.81,.1-2.27-.6-4.37-1.27-6.47-.2-.62-.18-1.22,.39-1.55,1-.59,1.33,.52,1.96,.89,.17,.1,.34,.22,.51,.32l-.07-.07Z"/>
  <path class="cls-12" d="M236.11,32.38c1.17-1.31-.09-2.67,.09-3.99,.1-.73-.06-1.77,1.14-1.66,.98,.09,1.01,1.01,1.26,1.75,.84,2.44-1.35,2.8-2.57,3.83,0,0,.07,.07,.07,.07Z"/>
  <path class="cls-12" d="M229.14,42.13c1.72,.6,3.23,1.54,4.43,2.92,.1,.12-.22,.89-.44,.95-1.92,.46-3.97-.85-4.55-2.9-.07-.24,.34-.61,.56-.97Z"/>
  <path class="cls-12" d="M229.35,30.45c-.16,.97-.37,1.57-1.12,1.51-.29-.02-.72-.38-.8-.67-.27-.95-.48-1.93-.57-2.92-.02-.24,.44-.59,.74-.8,.4-.27,.81-.13,.98,.34,.32,.93,.58,1.89,.77,2.53Z"/>
  <path class="cls-5" d="M351.97,367.94c.05-5.65,1.37-10.36,4.34-14.56,.97-1.37,2.86-1.64,4.4-.91,1.51,.71,2.47,2.34,2.09,4-.27,1.16-.7,2.37-1.39,3.32-2.4,3.27-5.31,6.01-9.44,8.16Z"/>
  <path class="cls-5" d="M345.53,354.63c.52,1.98,1.03,3.96,1.55,5.94-.3,.25-.6,.51-.9,.76-1.67-.92-2.43-2.49-2.91-4.23-.36-1.28,.17-1.82,2.32-2.42,0,0-.06-.05-.06-.05Z"/>
  <path class="cls-5" d="M347.08,360.57c.62,.53,1.09,1.44,.46,1.87-.85,.57-.95-.65-1.35-1.11,.29-.25,.59-.5,.89-.76Z"/>
</svg>