<?xml version="1.0" encoding="UTF-8"?>
<svg id="Capa_1" data-name="Capa 1" xmlns="http://www.w3.org/2000/svg" viewBox="0 0 275.75 416.29">
  <defs>
    <style>
      .cls-1 {
        fill: #f7c53a;
      }

      .cls-2 {
        fill: #ed8575;
      }

      .cls-3 {
        fill: #ea5440;
      }

      .cls-4 {
        fill: #f49b44;
      }

      .cls-5 {
        fill: #fff;
      }

      .cls-6 {
        fill: #edb221;
      }

      .cls-7 {
        fill: #fae1ca;
      }

      .cls-8 {
        fill: #f0a55a;
      }

      .cls-9 {
        fill: #a2483c;
      }

      .cls-10 {
        fill: #b56a4d;
      }

      .cls-11 {
        fill: #cba153;
      }

      .cls-12 {
        fill: #141011;
      }

      .cls-13 {
        fill: #543434;
      }

      .cls-14 {
        fill: #54794a;
      }
    </style>
  </defs>
  <path class="cls-10" d="M70.95,329.3c-2.87-1.78-5.7-3.63-8.62-5.32-2.05-1.18-2.52-2.85-1.95-4.96,.51-1.89,1.08-3.76,1.67-5.62,4.23-13.22,9.48-26.05,14.6-38.93,3.75-9.41,7.58-18.79,11.53-28.12,1.1-2.59,1.39-5.02,.68-7.73-3.56-13.64-5-27.6-6.48-41.57-.9-8.51-.97-17.04-1.44-25.56-.24-4.42,.2-8.88,.33-13.32,.28-2.08,.56-4.16,.85-6.24,9.19,3.61,18.77,4.97,28.58,5.05,4.43,.03,8.87,.04,13.3,.03,4.78,0,9.58,.03,14.25-1.24,.73-.11,1.47-.21,2.2-.32,6.32,.89,12.32,3.03,18.42,4.78,.25,3.19,.57,6.37,.75,9.57,.97,18.08-.76,35.9-5.5,53.37-.89,3.27-.74,6.16,.3,9.33,6.3,19.26,12.51,38.55,18.64,57.86,3.33,10.5,6.46,21.07,9.62,31.63,.71,2.35,.55,2.74-1.45,3.96-3.65,2.21-7.37,4.3-11.04,6.48-1.51,.9-3.26,1.49-4.27,3.09-.67,.19-1.41,.26-2,.59-7.85,4.33-15.69,8.7-23.52,13.08-.43,.24-.72,.75-1.07,1.14-.97,.42-1.98,.76-2.91,1.27-3.43,1.86-3.56,1.94-5.38-1.98-2.32-4.98-4.57-10-6.86-14.99-.66-1.45-1.33-2.9-2.03-4.33-.22-.45-.52-1.09-1.16-.78-.4,.19-.77,.66-.95,1.09-1.09,2.62-2.08,5.28-3.18,7.89-1.18,2.77-2.35,5.55-3.69,8.25-1.54,3.09-1.84,3.12-4.87,1.8-1.78-.77-3.57-1.5-5.36-2.25-.48-1.07-1.51-.92-2.4-1.05-1.29-.71-2.22-2.09-3.9-2.06-.25-.25-.45-.59-.75-.74-5.49-2.92-10.98-5.84-16.51-8.69-.59-.31-1.39-.21-2.09-.29,0,0,.04,.05,.04,.05-.37-.35-.74-.7-1.11-1.05-1.43-1.58-3.52-2.06-5.25-3.13Zm20.03-73.49c-.53,.29-.68,.77-.56,1.29,1.03,4.53,2.5,8.92,4.16,13.25,6.71,17.48,14.45,34.52,22.41,51.45,.53,1.12,1.18,2.18,1.84,3.23,.12,.19,.74,.33,.82,.23,.21-.23,.38-.67,.3-.95-.26-.84-.61-1.66-.98-2.46-2.96-6.49-5.99-12.94-8.89-19.45-6.66-14.98-13.56-29.87-18-45.72-.09-.31-.35-.59-.59-.83-.09-.09-.34-.04-.51-.05Zm60.12-79.79c-.09-.02-.28-.14-.42-.1-5.25,1.64-10.51,3.26-15.73,4.99-.92,.3-1.16,1.36-.92,2.27,.45,1.72,.94,3.43,1.56,5.1,4.26,11.5,8.56,22.99,12.86,34.48,.31,.83,.69,1.63,1.13,2.39,.15,.26,.63,.59,.85,.52,.56-.16,.69-.78,.52-1.24-2.11-5.67-4.3-11.3-6.39-16.97-2.77-7.51-5.49-15.03-8.17-22.57-.65-1.83-.22-2.61,1.63-3.22,3.71-1.23,7.46-2.35,11.17-3.57,.83-.27,1.58-.77,2.35-1.2,.07-.04,.03-.36-.03-.51-.06-.13-.23-.22-.4-.37Z"/>
  <path class="cls-14" d="M82.13,151.92c-.28,2.08-.56,4.16-.85,6.24-16.42-2.11-32.84-4.23-49.26-6.33-1.59-.2-3.19-.29-4.79-.44-7.83-.76-11.97-6.72-11.01-13.57,.96-6.88,1.72-13.78,2.58-20.67,1.29-10.25,2.6-20.49,3.89-30.74,1.18-9.36,2.32-18.73,3.5-28.09,.11-.88,.3-1.76,.49-2.63,1.32-5.89,5.4-9.15,11.42-9.1,1.24,.01,2.49,.1,3.73,.26,12.53,1.62,25.06,3.3,37.6,4.87,2.8,.35,5.62,.93,8.49,.44,.65,.69,1.49,.88,2.39,.99,5.28,.67,10.52,1.56,15.64,3.05,.79,.41,1.56,.84,2.36,1.21,11.86,5.61,20.5,14.52,26.65,25.99,.67,1.25,1.51,2.44,1.18,3.98-.98,.25-1.68-.29-2.42-.8-3.38-2.3-6.73-4.66-10.17-6.86-8.85-5.67-17.84-11.07-27.98-14.2-2.58-.8-3.09-.69-4.33,1.51-2.03,3.59-3.34,7.49-4.25,11.47-1.31,5.71-2.34,11.48-3.48,17.23-5.81-.69-11.62-1.36-17.43-2.09-11.08-1.39-22.16-2.85-33.24-4.21-1.33-.16-2.68-1.26-4.06-.14,.5,2.31,2.68,.92,3.89,1.73,.55,.36,1.36,.35,2.07,.43,6.87,.81,13.75,1.57,20.61,2.4,9.33,1.13,18.66,2.3,27.99,3.45-.94,9.52-2.02,19.02-2.06,28.6-.03,5.23-1.19,5.34,5.6,7.88,.33,.12,.66,.28,1,.35,8.19,1.58,16.39,2.97,24.76,1.42l.45,.11,.47-.02-.03-.11c.14,.64,.56,.97,1.17,1.1l-.07-.07c.13,.62,.48,1.03,1.12,1.16l-.07-.07c.1,.66,.47,1.05,1.14,1.15l-.07-.07c.1,.66,.46,1.06,1.14,1.14l-.07-.07c.09,.67,.46,1.05,1.14,1.14l-.07-.07c.09,.68,.48,1.04,1.14,1.14l-.07-.07c.1,.66,.49,1.03,1.15,1.14,0,0-.07-.05-.07-.05,.33,1.06,1.38,1.8,1.31,3.03-1.03,.25-2.06,.49-3.09,.75-11.68,2.95-23.34,4.01-35-.13-.66-.23-1.37-.42-2.06-.44-.75-.02-1.3,.4-1.43,1.24-.27,1.71,.43,3.11,1.36,4.44Z"/>
  <path class="cls-1" d="M83.5,95.73c1.15-5.75,2.17-11.52,3.48-17.23,.92-3.98,2.22-7.88,4.25-11.47,1.25-2.2,1.75-2.31,4.33-1.51,10.14,3.13,19.13,8.53,27.98,14.2,3.44,2.2,6.79,4.56,10.17,6.86,.74,.5,1.44,1.04,2.42,.8,0,0-.07-.07-.07-.07,0,.74,.48,1.03,1.13,1.15-.21,2.23,.74,3.7,2.83,4.5,4.41,1.69,8.82,3.4,13.23,5.1,0,0-.05-.04-.05-.04,1.51,2.36,3.78,3.2,6.45,3.27,.55,.42,1.04,.95,1.65,1.26,5.64,2.86,11,6.22,16.53,9.27,3.5,1.93,6.88,4.2,10.72,5.48,3.36,2.63,7.28,4.31,10.91,6.48,2.42,1.45,4.83,2.92,7.25,4.38,0,7.61,.02,15.23,.03,22.84-.05,1.6-.12,3.19-.15,4.79-.09,4.06-.16,4.17-3.83,5.08-.69,.17-1.39,.26-2.09,.38-10.76,1.85-21.53,1.71-32.31,.26-3.16-.42-6.31-.86-9.46-1.3-6.1-1.74-12.1-3.89-18.42-4.78-.29-.61-.42-1.51-.91-1.8-3.1-1.86-6.08-4.04-9.89-4.24l.05,.04c-.37-.37-.74-.74-1.11-1.11l.05,.04c-.47-.89-1.28-1.1-2.19-1.1l.04,.04c-.88-2.62-2.93-3.75-5.46-4.26,0,0,.07,.05,.07,.05-.17-.6-.55-.97-1.15-1.14,0,0,.07,.07,.07,.07-.16-.6-.55-.98-1.14-1.14,0,0,.07,.07,.07,.07-.16-.6-.54-.98-1.14-1.14,0,0,.07,.07,.07,.07-.16-.6-.54-.98-1.14-1.14,0,0,.07,.07,.07,.07-.16-.6-.54-.98-1.14-1.15,0,0,.07,.07,.07,.07-.16-.59-.53-.98-1.12-1.16,0,0,.07,.07,.07,.07-.18-.59-.57-.96-1.17-1.1,0,0,.03,.11,.03,.11q-.18-3.46-3.15-4.41c-.01-.85,.16-1.76-.47-2.47-.16-.18-.66-.26-.87-.15-.22,.12-.44,.58-.38,.81,.24,.89,.92,1.42,1.74,1.78-.14,1.89,1.63,2.81,2.2,4.34-8.37,1.55-16.57,.16-24.76-1.42-.34-.07-.67-.22-1-.35-6.79-2.54-5.63-2.65-5.6-7.88,.05-9.58,1.12-19.09,2.06-28.6,.06-.52,.11-1.05,.16-1.57Z"/>
  <path class="cls-4" d="M240.65,398.3c-.62-.61-1.13-1.41-2.13-1.46-1.24-.06-2.49-.1-3.73-.1-64.62,0-129.24,0-193.86,0-1.24,0-2.49,.03-3.73,.09-1,.04-1.56,.74-2.05,1.5-2.45-1.63-4.9-3.26-7.36-4.88-.57-.37-1.16-.75-1.82-.15v.13c.48-1.26-.28-1.25-1.15-1.12l.07,.1c.16-.94-.64-1.22-1.17-1.69-.47-.8-1.05-1.45-2.05-1.52-3.55-2.32-6.68-5.3-10.66-6.98-.65-.6-1.32-1.18-1.93-1.82-.76-.81-.66-1.66,.31-2.16,1.73-.89,3.48-1.81,5.32-2.42,3.44-1.14,7.04-1.19,10.53-.39,4.03,.92,7.1,3.48,8.77,7.19,1.13,2.51,2.53,3.36,5.2,3.33,12.26-.14,24.52-.09,36.78-.11,12.82,.04,25.65,.1,38.47,.11,7.66,0,15.32-.08,22.97-.13,4.98,.04,9.97,.08,14.95,.12,1.7,.92,2.06,2.77,2.98,4.24,1.46,2.34,2.69,2.83,5.26,1.65,2.39-1.09,4.7-2.38,6.98-3.69,1.67-.97,3.24-2.12,5.24-2.32,12.98,.03,25.96,.05,38.94,.08,.18,0,.36,0,.53,0,3.54-.09,3.67-.19,3.84-3.49,.11-2.13,.15-4.26,.2-6.4,.12-5.15,.2-10.31,.87-15.43,1.18-1.64,3.06-2.38,4.6-3.56,3.7-2.84,7.14-5.91,8.89-10.42,1.69-4.37-.14-8.42-4.64-9.66-2.55-.7-5.23-.97-7.85-1.43,.74-16.72,1.51-33.43,2.22-50.15,.54-12.81,.98-25.62,1.51-38.43,.17-4.09,.5-8.17,.75-12.26,.08-1.32,.87-1.84,2.07-1.96,2.43,0,4.87,.02,7.3,.03,1.29,.11,2.48,.31,2.6,2,.19,2.66,.52,5.31,.66,7.97,.49,9.41,.9,18.83,1.4,28.25,.61,11.36,1.33,22.72,1.92,34.09,.89,17.23,1.7,34.46,2.57,51.69,.31,6.22,.68,12.43,1.01,18.64,.05,.89,.06,1.78,.15,2.66,.12,1.17,.87,1.58,1.8,.98,1.49-.96,2.88-2.13,4.46-2.91,5.19-2.54,10.35-1.93,15.41,.51,4.23,2.04,4.26,2.37,.62,5.5-3.91,1.9-7.16,4.79-10.75,7.17-1.37,.25-2.27,1.17-3.12,2.17-3.37,2.29-6.75,4.57-10.12,6.86Zm-7.42-119.01h-.03c0-2.12,.02-4.24,0-6.36-.02-1.41-.08-2.83-.22-4.23-.05-.48-.31-1.06-1-.96-.62,.1-.65,.68-.7,1.16-.06,.7-.08,1.41-.08,2.12,.04,5.48,.08,10.96,.14,16.44,0,.7,.06,1.41,.2,2.1,.05,.26,.37,.57,.62,.65,.68,.2,1.02-.39,1.03-.85,.05-3.36,.03-6.71,.03-10.07Z"/>
  <path class="cls-3" d="M137.43,385.79c-7.66,.05-15.32,.13-22.97,.13-12.82,0-25.65-.07-38.47-.11-.54-1.1-1.04-2.24-1.64-3.31-5.1-9.11-10.06-18.29-15.4-27.26-2.22-3.73-2.05-6.82,.28-10.29,2.26-3.37,4.18-6.98,6.26-10.48q2.02-3.41,5.47-5.18c1.73,1.07,3.82,1.55,5.25,3.13,.37,.35,.74,.7,1.11,1.05,0,0-.04-.05-.04-.05,.28,.45,.48,.98,.86,1.33,3.09,2.86,4.77,6.51,6.07,10.43,.29,.87,.02,2.21,1.56,2.62,3.26-2.18,6.52-4.72,10.86-4.65,1.68-.03,2.61,1.35,3.9,2.06,.77,.77,1.54,1.54,2.31,2.32,.72,1.99,1.81,3.93,2.07,5.98,.32,2.52,1.78,4.07,3.25,5.86,2.69,3.29,5.95,5.42,10.14,6.2,1.38,.26,2.71,.78,4.07,1.18,3.51,1.03,6.36,3.03,8.68,5.82,3.21,3.88,5.48,8.22,6.39,13.22Z"/>
  <path class="cls-1" d="M136.14,87.38c.33-1.54-.51-2.73-1.18-3.98-6.15-11.47-14.79-20.38-26.65-25.99-.8-.38-1.57-.81-2.36-1.21,.43-.28,.82-.72,1.29-.83,2.39-.54,4.79-1.05,7.2-1.46,1.58-.27,2.52-.95,2.7-2.65,.07-.64,.61-1.23,.93-1.84,1.47,.57,3.03,.98,4.38,1.74,3.02,1.71,6.17,2.46,9.61,1.88,1.43-.08,2.87-.17,4.3-.25,.34,.48,.68,.96,1.02,1.43,0,.93,.24,1.75,1.05,2.32,1.46,1.03,2.96,1.99,4.36,3.09,5.43,4.28,9.79,9.34,11.69,16.18-.74,1.21-1.56,2.37-2.2,3.63-1.53,3.01-.95,4.17,2.3,4.73,.85,.15,1.78-.05,2.5,.82-.24,1.3-.58,2.65-.73,4.03-.14,1.38,.6,2.34,1.81,2.96,.19,2.41,.39,4.82,.59,7.22-1.9-.15-3.54-1.51-5.54-1.21,0,0,.05,.04,.05,.04-.09-.93-.4-1.78-1.33-2.15-2.94-1.15-4.87-3.54-7.04-5.64-1.15-1.11-2.26-2.22-3.69-3.05-1.47-.85-2.7-.58-4,.16-.37-.03-.75-.05-1.12-.08l.07,.07Z"/>
  <path class="cls-12" d="M118.08,49.42c-.32,.61-.86,1.2-.93,1.84-.18,1.7-1.13,2.38-2.7,2.65-2.41,.41-4.81,.92-7.2,1.46-.47,.11-.86,.54-1.29,.83-5.12-1.49-10.36-2.38-15.64-3.05-.9-.11-1.75-.3-2.39-.99,.11-6.25,.83-12.43,2.2-18.52,.43-1.89,1.08-3.78,1.95-5.5,2.89-5.7,7.59-8.78,14-9.16,1.29,3.52,1.54,7.38,3.44,10.7-.35,.81-.84,1.58-1.03,2.43-1.29,5.58,1.52,9.64,7.23,10.54,2.22,.35,2.32,.41,2.41,2.54,.06,1.4-.02,2.82-.04,4.22Z"/>
  <path class="cls-1" d="M109.51,29.69c-1.89-3.33-2.14-7.18-3.44-10.7,.04-1.06,.13-2.12,.12-3.19-.02-1.82,.46-3.54,1.17-5.15,2.87-6.54,8.54-9.16,15.08-10.36,5.8-1.07,10.6,.96,13.9,5.71,1.54,2.21,3.1,2.62,5.37,1.97,2.23-.63,4.49-1.07,6.82-.79,.54,.07,1.01,.38,1.03,.98,.01,.32-.11,.77-.34,.94-1.56,1.15-3.15,2.27-4.77,3.35-1.91,1.27-4.16,2.02-5.73,3.8-3.09,.88-5.93,2.27-8.39,4.36-2.05-.03-3.9,.4-5.1,2.28-2.69,.76-5.03,2.27-7.49,3.51-1.55-.06-2.72,.58-3.51,1.92l-4.73,1.36Z"/>
  <path class="cls-2" d="M109.51,29.69c1.58-.45,3.15-.91,4.73-1.36,.47,.21,.92,.46,1.41,.61,1.72,.56,1.94,.41,2.18-1.52,.04-.33-.05-.68-.07-1.02,2.47-1.24,4.8-2.75,7.49-3.51,2,.51,4.42-.3,5.23-1.78,.06-.11-.08-.34-.13-.51,2.47-2.09,5.3-3.48,8.39-4.36,.26,.99,.51,1.97,.77,2.96-.85-.07-1.71-.28-2.53-.16-.83,.12-1.74,.56-1.76,1.55-.03,1.54,1.05,.88,1.76,.68,1.29-.38,2.24,.78,3.45,.66,2.73,5.68,3.73,11.69,2.9,17.91-.57,4.3-2.9,7.51-7.16,9.03-4.59,.34-8.95-.98-13.42-2.3,.22,2.03,1.53,2.73,2.71,3.36,2.15,1.16,4.41,2.1,6.63,3.14-3.44,.58-6.59-.18-9.61-1.88-1.36-.77-2.92-1.17-4.38-1.74,.02-1.41,.1-2.82,.04-4.23-.09-2.13-.19-2.19-2.41-2.54-5.71-.9-8.52-4.97-7.23-10.54,.2-.84,.68-1.62,1.03-2.43Zm28.7-.15c2.34-1.52,1.29-4.02,1.75-6.08-.32-.05-.77-.25-.92-.11-.5,.46-1,.98-1.31,1.58-.58,1.12,.28,2.49-.53,3.6-.48-.2-.96-.54-1.44-.56-.76-.03-.82,.74-.63,1.15,.91,1.97,1.14,4.08,1.39,6.19,.02,.2,.49,.39,.79,.51,.43,.17,.63-.05,.8-.48,.77-1.93-.23-3.88,.11-5.8Zm-10.12,7.29c-.6,0-1.12,.88-.87,1.53,.9,2.29,2.65,3.63,4.71,3.61,1.42,0,3.38-1.37,3.17-2.27-.28-1.22-1.38-1.45-2.4-1.74-1.52-.43-2.92-1.3-4.62-1.14Zm-16.32-2.74s.03,.32-.09,.61c-.48,1.14,.03,1.77,1.1,1.67,1.38-.13,2.32,.7,3.45,1.14,.25,.1,.64-.1,.94-.24,.11-.05,.21-.35,.16-.47-1.03-2.3-2.68-4.03-4.94-5.14-.14-.07-.68,.29-.71,.51-.08,.5,.04,1.03,.1,1.92Zm16.13-7.09c.13,.51,.27,1.18,.48,1.84,.16,.49,.51,.91,1.07,.77,.27-.07,.59-.44,.64-.72,.24-1.33,.41-2.68,.57-4.02,.06-.49,.08-1.06-.63-1.09-.31-.01-.71,.11-.93,.32-.78,.73-1.22,1.64-1.2,2.9Z"/>
  <path class="cls-9" d="M232.05,232.71c-2.43,0-4.87-.02-7.3-.03,.02-24.46,.03-48.93,.06-73.39,0-3.37,.07-6.73,.11-10.1,2.13-.03,4.25-.06,6.38-.1,.23,.3,.54,.43,.91,.41-.07,.89-.2,1.77-.2,2.66,0,26.85,.02,53.7,.04,80.56Z"/>
  <path class="cls-2" d="M232.21,149.5c-.37,.02-.68-.11-.91-.4,.96-.99,1.96-1.95,2.86-2.99,2.03-2.35,3.3-4.88,1.75-8.04-.22-.45-.22-1.01-.32-1.52,.6-1.28,1.01-2.61,.77-4.03-.05-.27-.38-.61-.65-.71-.55-.21-.97,.06-1.15,.64-.15,.5-.29,1-.44,1.5-1.16-.45-2.28-1.04-3.48-1.33-2.09-.5-4.28-.73-6.28,.17-4.34,1.97-6.14,7.38-3.93,11.76,.71,1.41,1.74,2.66,2.63,3.98-2.18,2.32-5.04,2.9-8.03,3.06-2.78,.14-5.56,.03-8.29-.58,0-7.61-.02-15.23-.03-22.84,5.74-1.26,11.49-2.47,17.21-3.8,2.64-.61,5.3-.61,7.96-.78,3.63-.24,6.11,1.43,7.97,4.37,3.93,6.2,3.77,14.07-.48,20.12-.4,.57-1.12,1.44-1.67,1.07-2.01-1.36-3.66,.5-5.5,.36Z"/>
  <path class="cls-12" d="M240.65,398.3c3.37-2.29,6.75-4.57,10.12-6.85-.47,1.71-.92,3.42-1.42,5.12-.35,1.21-.54,2.36-.24,3.66,1.14,4.84,4.62,7.49,9.71,7.25,3.89-.19,7.34-3.11,7.9-6.69,.77-4.91-.91-8.65-4.81-10.23-1.78-.72-3.64-1.52-5.68-.67-.85,.35-1.75,.3-2.34-.62,3.59-2.38,6.84-5.27,10.75-7.17,1.37,.81,2.84,1.5,4.1,2.44,6.28,4.69,8.67,13.28,5.79,20.52-2.98,7.51-9.99,11.71-18.13,11.18-6.75-.44-14.07-5.72-15.61-13.78-.26-1.37-.86-2.75-.14-4.16Z"/>
  <path class="cls-12" d="M11.01,382.19c3.97,1.69,7.1,4.66,10.66,6.98-.91,1.46-2.14,.59-3.3,.5-6.82-.52-11.57,6.51-8.96,12.56,2.19,5.06,7.07,6.12,11.53,4.84,3.94-1.13,6.48-5.89,5.61-10.18-.24-1.2-.86-2.33-.58-3.61,.66-.59,1.26-.22,1.82,.15,2.46,1.62,4.91,3.25,7.36,4.88,.71,4.57-1.17,8.33-3.91,11.7-2.78,3.42-6.41,5.5-10.85,6.06-8.61,1.09-16.2-3.2-19.17-10.97-2.86-7.49-.58-16.11,6.11-20.83,1.15-.81,2.45-1.4,3.69-2.1Z"/>
  <path class="cls-2" d="M158.16,92.01c-1.21-.61-1.96-1.58-1.81-2.96,.14-1.38,.49-2.73,.73-4.03-.71-.86-1.65-.67-2.5-.82-3.25-.57-3.82-1.72-2.3-4.73,.64-1.26,1.46-2.42,2.19-3.63,2.43-1.38,5.09-2.46,6.58-5.06,1.51-.39,3.04-.74,4.53-1.19,1.87-.57,3.76-.79,5.68-.45,1.51,.27,2.46,1.57,2.12,3.06-.27,1.17-.82,2.29-1.24,3.43-1.07-.13-2.02,.03-2.98,.64-2.8,1.78-5.69,3.43-8.5,5.2-.3,.19-.31,.85-.45,1.29,.49,.09,.98,.25,1.46,.23,.32-.01,.64-.26,.93-.45,3.28-2.01,6.55-4.02,9.82-6.03,.53-.02,1.06-.1,1.58-.06,3.93,.32,4.85,2.06,2.93,5.56-.34,.61-.83,1.14-1.2,1.74-.27,.43-.45,.91-.7,1.45,.89,1.26,2.27,.68,3.36,.98,1.56,.43,2.35,1.45,2.48,3.02-1.72,3.06-4.4,4.78-7.63,6.01-4.01,1.53-8.08,2.17-12.33,1.88-.81-1.01-1.23-2-.79-3.41,.48-1.54,.3-1.6-1.96-1.67Zm4.28-.57c.16,.05,.35,.17,.49,.13,3.6-1.02,6.94-2.63,10.18-4.48,.19-.11,.28-.67,.18-.92-.23-.54-.8-.71-1.3-.5-3.1,1.34-6.19,2.71-9.26,4.11-.27,.12-.43,.53-.61,.82-.25,.42-.13,.7,.33,.82Z"/>
  <path class="cls-6" d="M160.91,97.09c4.25,.29,8.32-.35,12.33-1.88,3.23-1.23,5.91-2.95,7.63-6.01,.18-.02,.35-.04,.53-.06,3.14-.35,3.28-.32,3.81,2.05,.66,2.92,1.33,5.84,1.78,8.79,.88,5.74,1.96,11.47,1.56,17.32-3.85-1.29-7.22-3.55-10.72-5.48-5.53-3.05-10.89-6.41-16.53-9.27-.61-.31-1.1-.83-1.65-1.26,0-.39-.02-.78-.03-1.18,1.18-.69,1.02-1.95,1.28-3.03Z"/>
  <path class="cls-14" d="M161.06,70.78c-1.49,2.6-4.15,3.68-6.58,5.06-1.89-6.84-6.26-11.9-11.68-16.18-1.4-1.1-2.9-2.07-4.36-3.09-.81-.57-1.05-1.39-1.05-2.32,9.74,.02,16.59,5.05,21.85,12.73,.79,1.15,1.22,2.53,1.82,3.81Z"/>
  <path class="cls-13" d="M132.07,53.05c-2.22-1.03-4.48-1.98-6.63-3.14-1.18-.63-2.49-1.33-2.71-3.36,4.48,1.32,8.83,2.64,13.42,2.3,.07,1.32,.14,2.63,.21,3.95-1.43,.08-2.87,.17-4.3,.25Z"/>
  <path class="cls-13" d="M172.42,76.5c-3.27,2.01-6.55,4.02-9.82,6.03-.3,.18-.62,.43-.93,.45-.48,.02-.98-.14-1.46-.23,.14-.44,.15-1.1,.45-1.29,2.81-1.77,5.69-3.42,8.5-5.2,.96-.61,1.92-.77,2.98-.64,.15,.28,.24,.57,.28,.89Z"/>
  <path class="cls-13" d="M140.42,21.93c-1.21,.12-2.16-1.04-3.45-.66-.71,.21-1.79,.87-1.76-.68,.02-.99,.93-1.43,1.76-1.55,.82-.12,1.69,.09,2.53,.16,.9,.71,1.08,1.65,.92,2.72Z"/>
  <path class="cls-1" d="M82.13,151.92c-.92-1.34-1.63-2.74-1.36-4.44,.13-.84,.68-1.26,1.43-1.24,.69,.02,1.4,.21,2.06,.44,11.65,4.15,23.32,3.08,35,.13,1.03-.26,2.06-.5,3.09-.74,1.38,.41,2.77,.82,4.15,1.23,0,0-.04-.04-.04-.04,.47,.89,1.28,1.1,2.19,1.1,0,0-.05-.04-.05-.04,.37,.37,.74,.74,1.11,1.11,0,0-.05-.04-.05-.04,.87,1.99,2.92,2.33,4.53,3.3,1.46,.88,3.33,1.22,4.07,3.05-4.68,1.27-9.47,1.23-14.25,1.24-4.43,0-8.87,0-13.3-.03-9.81-.08-19.4-1.44-28.58-5.05Z"/>
  <path class="cls-2" d="M144.37,358.21c-2.44-2.14-3.3-5.3-5.05-7.89,.35-.39,.63-.89,1.07-1.14,7.83-4.39,15.66-8.75,23.52-13.08,.59-.33,1.33-.4,2-.59,1.32,.65,1.58,2.66,3.41,2.65-2.77,2.96-3.94,6.57-4.29,10.51-.06,.7-.06,1.41-.13,2.11-.14,1.19-.76,1.95-2,2.04-.7,.05-1.42,.09-2.11,0-6.15-.81-11.46,.88-15.92,5.22-.11,.11-.33,.11-.5,.16Z"/>
  <path class="cls-7" d="M90.98,255.8c.17,.01,.42-.05,.51,.05,.24,.24,.51,.52,.59,.83,4.45,15.85,11.34,30.74,18,45.72,2.9,6.51,5.93,12.97,8.89,19.45,.37,.8,.72,1.62,.98,2.46,.08,.27-.09,.71-.3,.95-.09,.1-.7-.04-.82-.23-.66-1.05-1.32-2.11-1.84-3.23-7.96-16.94-15.7-33.97-22.41-51.45-1.66-4.33-3.12-8.73-4.16-13.25-.12-.52,.03-1.01,.56-1.29Z"/>
  <path class="cls-7" d="M151.1,176.01c.17,.15,.34,.24,.4,.37,.07,.15,.1,.47,.03,.51-.77,.43-1.52,.93-2.35,1.2-3.71,1.22-7.46,2.34-11.17,3.57-1.85,.61-2.28,1.38-1.63,3.22,2.68,7.54,5.4,15.06,8.17,22.57,2.09,5.67,4.28,11.31,6.39,16.97,.17,.46,.04,1.07-.52,1.24-.22,.07-.7-.26-.85-.52-.44-.76-.82-1.57-1.13-2.39-4.3-11.49-8.6-22.98-12.86-34.48-.62-1.66-1.11-3.38-1.56-5.1-.24-.91,0-1.96,.92-2.27,5.22-1.73,10.48-3.35,15.73-4.99,.14-.04,.33,.07,.42,.1Z"/>
  <path class="cls-2" d="M96.63,343.16c-4.34-.07-7.61,2.47-10.86,4.65-1.54-.41-1.27-1.76-1.56-2.62-1.31-3.91-2.98-7.56-6.07-10.43-.37-.35-.58-.88-.86-1.33,.7,.09,1.5-.01,2.09,.29,5.53,2.85,11.02,5.77,16.51,8.69,.3,.16,.5,.49,.75,.74Z"/>
  <path class="cls-4" d="M138.27,155.76c-.74-1.84-2.61-2.18-4.07-3.05-1.61-.97-3.66-1.32-4.53-3.3,3.81,.2,6.8,2.38,9.89,4.24,.49,.29,.62,1.19,.91,1.8-.73,.1-1.47,.21-2.2,.31Z"/>
  <path class="cls-7" d="M102.93,346.27c-.03,.42-.06,.84-.09,1.26-.77-.77-1.54-1.54-2.31-2.32,.89,.14,1.91-.02,2.4,1.05Z"/>
  <path class="cls-2" d="M77.31,333.48c-.37-.35-.74-.7-1.11-1.05,.37,.35,.74,.7,1.11,1.05Z"/>
  <path class="cls-11" d="M83.5,95.73c-.05,.52-.11,1.05-.16,1.57-9.33-1.15-18.66-2.32-27.99-3.45-6.87-.83-13.74-1.59-20.61-2.4-.7-.08-1.52-.07-2.07-.43-1.22-.8-3.39,.59-3.89-1.73,1.38-1.13,2.73-.03,4.06,.14,11.09,1.36,22.16,2.82,33.24,4.21,5.8,.73,11.62,1.39,17.43,2.09Z"/>
  <path class="cls-4" d="M126.5,147.3c-1.38-.41-2.77-.82-4.15-1.23,.07-1.23-.98-1.97-1.31-3.03,2.53,.51,4.57,1.64,5.46,4.26Z"/>
  <path class="cls-4" d="M112.64,135.56c-.57-1.53-2.34-2.45-2.2-4.34l-.02,.02q2.96,.94,3.15,4.41s-.47,.02-.47,.02l-.45-.11Z"/>
  <path class="cls-4" d="M119.96,141.95c.6,.16,.98,.54,1.15,1.14-.66-.1-1.04-.48-1.15-1.14Z"/>
  <path class="cls-4" d="M118.89,140.88c.6,.16,.98,.54,1.14,1.14-.66-.1-1.06-.46-1.14-1.14Z"/>
  <path class="cls-4" d="M117.82,139.81c.6,.16,.98,.54,1.14,1.14-.67-.08-1.05-.46-1.14-1.14Z"/>
  <path class="cls-4" d="M116.75,138.74c.6,.16,.98,.54,1.14,1.14-.68-.09-1.04-.48-1.14-1.14Z"/>
  <path class="cls-4" d="M115.69,137.66c.6,.17,.97,.55,1.14,1.15-.66-.1-1.04-.48-1.14-1.15Z"/>
  <path class="cls-4" d="M114.64,136.58c.59,.18,.96,.57,1.12,1.16-.64-.13-.99-.54-1.12-1.16Z"/>
  <path class="cls-4" d="M113.53,135.54c.6,.14,.99,.51,1.17,1.1-.61-.14-1.03-.47-1.17-1.1Z"/>
  <path class="cls-4" d="M137.19,87.39c1.31-.73,2.53-1.01,4-.16,1.43,.83,2.54,1.93,3.69,3.05,2.17,2.1,4.1,4.49,7.04,5.64,.93,.36,1.23,1.21,1.33,2.15-4.41-1.7-8.81-3.41-13.23-5.1-2.09-.8-3.04-2.27-2.83-4.5,0-.36,0-.72,0-1.08Z"/>
  <path class="cls-4" d="M159.62,100.12c0,.39,.02,.78,.03,1.18-2.67-.07-4.94-.91-6.45-3.26,2-.3,3.64,1.05,5.54,1.2,.29,.29,.59,.59,.88,.88Z"/>
  <path class="cls-4" d="M110.44,131.22c-.82-.36-1.5-.89-1.74-1.78-.06-.24,.16-.69,.38-.81,.21-.12,.7-.03,.87,.15,.63,.7,.46,1.61,.47,2.47,0,0,.02-.02,.02-.02Z"/>
  <path class="cls-4" d="M128.64,148.36c-.91,0-1.72-.21-2.19-1.1,.91,0,1.73,.21,2.19,1.1Z"/>
  <path class="cls-4" d="M129.71,149.44c-.37-.37-.74-.74-1.11-1.11,.37,.37,.74,.74,1.11,1.11Z"/>
  <path class="cls-14" d="M137.19,87.39c0,.36,0,.72,0,1.08-.65-.12-1.12-.41-1.13-1.15,.37,.03,.75,.05,1.12,.08Z"/>
  <path class="cls-3" d="M144.37,358.21c.17-.05,.39-.05,.5-.16,4.45-4.34,9.77-6.03,15.92-5.22,.69,.09,1.41,.05,2.11,0,1.24-.09,1.87-.86,2-2.04,.08-.7,.07-1.41,.13-2.11,.35-3.95,1.52-7.56,4.29-10.51,3.04-1.75,5.9-.77,8.45,.91,2.1,1.38,4.03,1.5,6.42,1.01,4.65-.96,9.24-2.33,14.05-2.39-.39,.86-1.2,1.26-1.98,1.61-2.63,1.19-4.44,3.34-6.4,5.33-1.05,1.06-1.52,2.31-1.39,3.8-.58,.31-1.36,.48-1.72,.96-1.36,1.84-1.58,4.09-.54,3.92,1.6-.26,1.18-1.89,1.8-2.82,.36-.54,.39-1.29,.57-1.95,.42-.31,.91-.55,1.26-.93,3.22-3.51,6.52-6.89,11.12-8.62,.9-.34,1.31-1.11,1.37-2.06,5.25-.91,10.57-1.13,15.87-1.45,2.62,.46,5.29,.73,7.85,1.43,4.5,1.24,6.34,5.29,4.64,9.66-1.75,4.51-5.19,7.58-8.89,10.42-1.54,1.18-3.41,1.92-4.59,3.56-1.54-.08-2.66,.88-3.88,1.57-12.21,6.97-24.43,13.93-36.62,20.92-1.37,.79-2.91,1.37-3.88,2.75-2,.2-3.57,1.35-5.24,2.32-2.28,1.32-4.59,2.6-6.98,3.69-2.57,1.17-3.8,.68-5.26-1.65-.92-1.46-1.28-3.32-2.98-4.24,.14-1.72-.88-3.05-1.55-4.49-2.11-4.52-4.18-9.06-6.44-13.51-1.3-2.55-1.68-4.99-.45-7.63,.29-.62,.29-1.38,.43-2.08Z"/>
  <path class="cls-9" d="M253.9,389.27c.59,.92,1.49,.97,2.34,.62,2.04-.85,3.9-.06,5.68,.67,3.9,1.59,5.58,5.33,4.81,10.23-.56,3.58-4.02,6.5-7.9,6.69-5.08,.24-8.56-2.42-9.71-7.25-.31-1.3-.12-2.45,.24-3.66,.5-1.7,.95-3.41,1.42-5.12,.85-1,1.75-1.92,3.12-2.17Z"/>
  <path class="cls-9" d="M25.96,393.29c-.28,1.28,.33,2.41,.58,3.61,.87,4.28-1.67,9.04-5.61,10.18-4.45,1.28-9.34,.22-11.53-4.84-2.61-6.04,2.14-13.08,8.96-12.56,1.17,.09,2.39,.96,3.3-.5,1,.08,1.58,.72,2.05,1.52,.27,.65,.44,1.36,1.17,1.69,0,0-.07-.1-.07-.1,.14,.63,.46,1.07,1.16,1.12v-.13Z"/>
  <path class="cls-7" d="M233.24,279.3c0,3.36,.03,6.71-.03,10.07,0,.46-.35,1.04-1.03,.85-.26-.08-.57-.39-.62-.65-.14-.69-.19-1.4-.2-2.1-.06-5.48-.1-10.96-.14-16.44,0-.71,.02-1.41,.08-2.12,.04-.48,.07-1.06,.7-1.16,.68-.11,.95,.48,1,.96,.14,1.4,.19,2.82,.22,4.23,.03,2.12,0,4.24,0,6.36h.03Z"/>
  <path class="cls-12" d="M24.89,392.39c-.73-.33-.9-1.05-1.17-1.69,.53,.47,1.32,.75,1.17,1.69Z"/>
  <path class="cls-12" d="M25.98,393.41c-.7-.05-1.03-.49-1.16-1.12,.87-.13,1.63-.14,1.16,1.12Z"/>
  <path class="cls-14" d="M159.62,100.12c-.29-.3-.59-.59-.88-.88-.2-2.41-.39-4.82-.59-7.22,2.26,.07,2.44,.13,1.96,1.67-.44,1.41-.01,2.4,.79,3.41-.26,1.08-.1,2.34-1.28,3.03Z"/>
  <path class="cls-13" d="M130.34,20.61c.05,.17,.19,.4,.13,.51-.81,1.47-3.23,2.29-5.23,1.78,1.2-1.88,3.05-2.31,5.1-2.28Z"/>
  <path class="cls-13" d="M117.75,26.4c.03,.34,.12,.69,.07,1.02-.24,1.93-.45,2.08-2.18,1.52-.48-.16-.94-.41-1.41-.61,.79-1.34,1.96-1.98,3.51-1.92Z"/>
  <path class="cls-13" d="M128.09,36.82c1.7-.16,3.1,.72,4.62,1.14,1.02,.29,2.11,.52,2.4,1.74,.21,.9-1.75,2.26-3.17,2.27-2.06,.01-3.81-1.32-4.71-3.61-.26-.65,.27-1.54,.87-1.53Z"/>
  <path class="cls-13" d="M111.78,34.08c-.06-.89-.18-1.42-.1-1.92,.03-.21,.58-.57,.71-.51,2.26,1.11,3.91,2.83,4.94,5.14,.05,.12-.05,.42-.16,.47-.29,.14-.69,.34-.94,.24-1.13-.44-2.07-1.27-3.45-1.14-1.07,.1-1.58-.52-1.1-1.67,.13-.3,.1-.66,.09-.61Z"/>
  <path class="cls-13" d="M138.21,29.53c-.35,1.93,.66,3.87-.11,5.8-.17,.42-.37,.65-.8,.48-.29-.12-.76-.31-.79-.51-.25-2.11-.47-4.21-1.39-6.19-.19-.41-.13-1.18,.63-1.15,.49,.02,.96,.36,1.44,.56l-.06-.08c.2,.57,.31,1.24,1.16,1.14l-.09-.06Z"/>
  <path class="cls-13" d="M127.91,26.99c-.02-1.26,.42-2.18,1.2-2.9,.22-.21,.62-.33,.93-.32,.7,.02,.68,.6,.63,1.09-.16,1.35-.33,2.69-.57,4.02-.05,.28-.37,.65-.64,.72-.56,.15-.91-.27-1.07-.77-.21-.65-.35-1.33-.48-1.84Z"/>
  <path class="cls-13" d="M137.19,28.52c.82-1.11-.05-2.48,.53-3.6,.31-.6,.81-1.12,1.31-1.58,.15-.14,.61,.07,.92,.11-.47,2.06,.59,4.56-1.75,6.08,0,0,.09,.06,.09,.06-.11-.67-.24-1.31-1.16-1.14l.06,.08Z"/>
  <path class="cls-4" d="M224.92,149.19c-.62-.22-1.24-.44-1.86-.66-.88-1.32-1.92-2.57-2.63-3.98-2.21-4.38-.41-9.8,3.93-11.76,2-.9,4.19-.68,6.28-.17,1.2,.29,2.32,.87,3.48,1.32,.14,1.06,.18,2.19,1.47,2.6,.1,.51,.1,1.07,.32,1.52,1.55,3.16,.27,5.69-1.75,8.04-.9,1.04-1.91,2-2.86,2.99-2.13,.03-4.25,.06-6.38,.09Zm6.16-8.62c-.07-1.64-1.41-2.9-3.14-2.95-1.77-.04-3.02,1.14-3.06,2.91-.04,1.92,1.51,3.46,3.32,3.28,1.6-.15,2.95-1.67,2.88-3.25Z"/>
  <path class="cls-13" d="M235.59,136.54c-1.3-.41-1.33-1.54-1.47-2.6,.15-.5,.29-1,.44-1.5,.18-.58,.6-.85,1.15-.64,.28,.1,.61,.44,.65,.71,.24,1.42-.17,2.75-.77,4.03Z"/>
  <path class="cls-13" d="M162.44,91.44c-.46-.12-.58-.41-.33-.82,.18-.29,.33-.7,.61-.82,3.07-1.4,6.16-2.77,9.26-4.11,.5-.22,1.07-.04,1.3,.5,.1,.25,0,.81-.18,.92-3.23,1.85-6.58,3.45-10.18,4.48-.14,.04-.33-.08-.49-.13Z"/>
  <path class="cls-8" d="M202.34,336.92c-.06,.95-.47,1.72-1.37,2.06-4.6,1.73-7.9,5.11-11.12,8.62-.35,.38-.83,.62-1.26,.93,0,0-.11-.11-.11-.11-.13-1.48,.34-2.74,1.39-3.8,1.96-1.98,3.77-4.13,6.4-5.33,.78-.36,1.59-.75,1.98-1.61,1.22-1.05,2.65-.95,4.09-.77Z"/>
  <path class="cls-8" d="M188.59,348.54c-.18,.66-.21,1.41-.57,1.95-.62,.93-.2,2.56-1.8,2.82-1.04,.17-.82-2.08,.54-3.92,.36-.48,1.13-.65,1.72-.96,0,0,.11,.11,.11,.11Z"/>
  <path class="cls-2" d="M137.13,28.44c.93-.17,1.06,.48,1.16,1.14-.86,.1-.96-.57-1.16-1.14Z"/>
  <path class="cls-5" d="M231.07,140.57c.07,1.57-1.28,3.09-2.88,3.25-1.81,.17-3.36-1.36-3.32-3.28,.04-1.77,1.29-2.96,3.06-2.91,1.73,.04,3.07,1.3,3.14,2.95Z"/>
</svg>