<?xml version="1.0" encoding="UTF-8"?>
<svg id="Capa_1" data-name="Capa 1" xmlns="http://www.w3.org/2000/svg" viewBox="0 0 442.21 452.02">
  <defs>
    <style>
      .cls-1 {
        fill: #f7b468;
      }

      .cls-2 {
        fill: #f7c53a;
      }

      .cls-3 {
        fill: #ed8575;
      }

      .cls-4 {
        fill: #ea812a;
      }

      .cls-5 {
        fill: #f49b44;
      }

      .cls-6 {
        fill: #fff;
      }

      .cls-7 {
        fill: #fae1ca;
      }

      .cls-8 {
        fill: #f0a55a;
      }

      .cls-9 {
        fill: #a2483c;
      }

      .cls-10 {
        fill: #cba153;
      }

      .cls-11 {
        fill: #141011;
      }

      .cls-12 {
        fill: #543434;
      }

      .cls-13 {
        fill: #54794a;
      }
    </style>
  </defs>
  <path class="cls-13" d="M47.37,303.73c.41-3.69-.37-7.31-.64-10.96-.08-1.15,.48-1.96,1.68-2.11,4.24-.5,8.49-.97,12.74-1.43,4.45-.48,8.91-.92,13.35-1.43,2.26-.26,2.79-.79,2.73-3.15-.18-8.35-.34-16.71-.73-25.05-.7-15.26-1.72-30.51-2.3-45.78-.47-12.51,1.7-24.75,4.66-36.86,.24-.99,.44-1.99,.66-2.98,.8,0,1.62-.1,2.41,0,8.58,.98,17.16,1.94,25.73,3,3,.37,5.98,.74,9,.33,1.86,.36,3.73,.66,5.62,.26,1.57,.33,3.19,.5,4.7,1.03,10.11,3.51,20.52,5.82,31.02,7.8,4.83,17.47,9.33,35.02,12.68,52.85,2.49,13.23,4.34,26.55,5.24,39.98,.78,11.63,.22,23.22-2.02,34.69-.56,1.73-1.03,3.5-1.71,5.19-3,7.49-7.01,14.15-14.46,18.12-2.14,1.14-4.11,2.59-6.16,3.89-2.82,1.16-5.6,2.42-8.48,3.44-2.34,.83-3.47,2.05-3.81,4.75-1.92,14.94-4,29.86-6.28,44.75-.87,5.66-.25,5.27-5.77,5.88-2.02,.22-4.01,.7-6.01,1.06-2.55-.63-5.07-.46-7.56,.28-2.03-.09-4.06-.27-6.09-.26-6.53,.06-13.01-.25-19.46-1.37-2.39-.41-4.7-1.46-7.2-1.12-1.93-1.46-5.35-.39-6.32-2.92-.75-1.95-.28-4.41-.21-6.63,.31-10.97,.69-21.94,1-32.9,.09-3-.05-3.19-2.86-3.5-3.43-.38-6.88-.58-10.31-.86-.61-.05-1.22-.03-1.82-.13-2.8-.45-5.59-.92-8.39-1.39-1.41-2.4-.52-5.2-1.35-7.7,1.3-2.85,.53-5.5-.82-8.09-.21-10.28-1.12-20.49-2.47-30.68Zm55.59-105.04c.41-.41,.82-.82,1.24-1.23,.44-.3,.93-.74,.47-1.21-.48-.48-.86,.09-1.15,.49-.41,.42-.82,.84-1.22,1.26-.24,.32-.75,.81-.68,.92,.56,.84,.96,.24,1.35-.24Zm45.06,60.34c-.08-4.56-.5-12.3-.92-20.05-.5-9.38-.29-18.8-.37-28.2-.02-1.82-.24-3.68,.85-5.35,.32-.49,.47-1.3-.19-1.56-.81-.33-1.52,.22-2.08,.83-1.27,1.37-.93,3.08-.89,4.67,.27,11.22,.24,22.44,.87,33.68,.98,17.54,.93,35.15-1.17,52.64-.56,4.67-.76,9.35-1.33,14.01-.74,6.07-1.37,12.15-2.05,18.23-.32,2.83-.67,5.66-.96,8.49-.06,.63,.21,1.16,.92,1.29,.88,.15,1.06-.59,1.12-1.12,.89-7.29,1.79-14.57,2.56-21.87,.6-5.68,.92-11.39,1.53-17.07,1.27-11.78,2.31-23.56,2.11-38.61Zm-74.62,83.68c0,1.63-.06,3.26,.04,4.89,.03,.46,.02,1.3,1.01,1.08,.72-.16,.9-.71,1.04-1.29,.1-.39,.13-.81,.15-1.21,.48-8.94,.95-17.89,1.46-26.83,.13-2.23,.5-4.44,.63-6.67,.42-6.9,.8-13.81,1.14-20.72,.01-.26-.43-.61-.74-.79-.46-.26-.82-.05-.93,.45-.68,3.18-1.22,6.38-1.28,9.65-.08,4.48,.14,9.02-.5,13.43-1.35,9.3-.3,18.75-2.02,28Zm17.42-138.47c2.75-.57,5.65-.68,8.13-2.27,.45-.29,.99-.97,.94-1.4-.07-.61-.85-.71-1.41-.47-4.03,1.76-8.12,2.51-12.44,1.1-.57-.19-1.22,.09-1.19,.86,.02,.32,.33,.84,.6,.91,1.76,.47,3.54,.85,5.36,1.26Zm62-4.49c-1.56,.04-2.61,.89-3.32,2.21-.09,.17-.2,.51-.14,.56,.29,.23,.68,.59,.95,.53,1.44-.31,2.6-1.08,3.13-2.52,.06-.16-.39-.51-.62-.78Zm-45.63-6.29c-.19-.27-.35-.74-.58-.78-.71-.13-1.08,.38-1.11,1.02-.01,.28,.31,.79,.51,.81,.67,.06,1.03-.41,1.17-1.05Z"/>
  <path class="cls-2" d="M291.67,370.89c-.9-1.19-2.2-1.76-3.5-2.38-2.76-1.31-5.49-2.7-8.25-4-6.96-3.28-5.81-2.55-4.06-9.15,4.4-16.55,9.26-32.97,14-49.43,2.93-10.19,5.96-20.35,8.97-30.52,.4-1.36,.98-2.68,1.47-4.01,.56,.25,1.13,.45,1.67,.74,12.43,6.75,25.77,10.45,39.72,12.44,5.23,.75,10.5,.61,15.7,1.42,.14,2.24,.25,4.48,.45,6.71,.02,.26,.53,.62,.84,.66,.31,.04,.84-.2,.95-.46,.24-.53,.37-1.16,.38-1.76,.05-1.84-.11-3.71,1.23-5.23,9.52-.58,19.06-.41,28.59-1.29,10.54-.97,20.95-2.41,31.25-4.79,.91,11.58,1.81,23.16,2.73,34.73,.68,8.53,1.39,17.06,2.05,25.59,.46,5.89,.88,11.79,1.31,17.68,.79,10.98,1.57,21.95,2.34,32.93,.2,2.83-.46,3.57-3.34,3.94-3.23,.41-6.46,.82-9.69,1.24-9.86,.08-19.73,.18-29.59,.24-1.65,0-3.2,.29-4.68,.98-4.08-.02-8.15-.01-12.23-.08-3.11-.05-3.37-.29-3.74-3.54-.82-7.09-1.66-14.18-2.33-21.28-1.26-13.4-2.43-26.81-3.57-40.22-.62-7.32-1.07-14.65-1.61-21.97-.19-2.62-.1-5.3-1.62-8.15-1.1,2.45-1.5,4.73-2.06,6.96-6.08,24.54-12.09,49.1-18.31,73.61-2.31,9.1-1.54,8.07-9.23,4.72-.92-.4-1.92-.64-2.88-.95-.82-.58-1.57-1.29-2.46-1.72-8.42-4.05-16.85-8.08-25.32-12.02-1.63-.76-3.47-1.09-5.21-1.61Z"/>
  <path class="cls-9" d="M151.6,341.12c2.05-1.31,4.02-2.76,6.16-3.9,7.44-3.97,11.46-10.64,14.46-18.12,.68-1.69,1.14-3.46,1.71-5.19,18.7,.04,37.41,.09,56.11,.13,1.63,0,3.26-.08,4.88-.01,9.6,.42,14.99,5.9,15.04,15.46,.07,13.64,.04,27.27,0,40.91,0,2.5,.06,4.9,2.23,6.63,.38,.51,.75,1.01,1.13,1.52,.2,.73,.54,1.33,1.36,1.48l-.05-.06c-.22,1.26,.03,2.45,.74,3.48,2.57,3.71,4.13,7.91,5.75,12.06,3.19,8.18,5.59,16.51,3.26,25.42-.15,.59-.2,1.2-.29,1.8-2.88,4.64-6.68,8.21-11.97,9.9-1.66,.53-2.03,1.66-2.34,3.16-1.37,6.51-5.52,10.26-11.96,11.47-1.58,.3-3.25,.16-4.88,.16-14.47,0-28.94-.03-43.41-.02-2.24,0-4.47,.16-6.71,.24-.59-5.15-2.43-9.79-5.49-13.99-2.1-2.9-4.67-4.98-8.15-6-4.09-1.19-8.15-2.46-12.48-2.36-1.88,.04-3.65-.2-5-1.7,.02-3.06,.05-6.11,.06-9.17,.05-14.67,.09-29.33,.13-44,2.44-.05,4.88-.14,7.33-.15,13.03-.01,26.07,0,39.1-.02,1.22,0,2.56,.3,4.47-1.22-17.58-.05-34.25-.1-50.91-.16-.04-2.21-.09-4.42-.12-6.64-.07-7.04-.13-14.08-.2-21.13Zm84.04,27.75c0,.08,0,.15,0,.23-1.59,0-3.19-.06-4.78,.03-.48,.03-1.29,.22-.95,1.08,.12,.31,.5,.75,.77,.75,3.38,.03,6.76,.01,10.14-.06,.24,0,.53-.49,.69-.8,.23-.44,.01-.8-.52-.84-1.78-.15-3.56-.26-5.34-.39Z"/>
  <path class="cls-2" d="M116.68,177.31c-3.02,.41-6,.04-9-.33-8.57-1.06-17.15-2.02-25.73-3-.79-.09-1.61,0-2.41,0-1.99-.58-2.89-2.13-3.43-3.95-4.48-15.19-8.71-30.44-11.34-46.09-.78-4.6-1.42-9.23-1.96-13.86-1.13-9.67,.02-19.04,3.87-28.03,1.11-1.41,2.26-2.79,3.34-4.23,2.58-3.44,5.65-6.38,9.36-8.55,3.49-2.04,6.94-4.27,10.69-5.69,3.75-1.42,5.72-3.17,4.73-7.46-.41-1.76,.06-1.91,3.1-2.65,2.21,.99,4.52,1.82,6.62,3,4.11,2.31,8.35,2.87,12.86,1.51,.6-.25,1.21-.49,1.81-.74,.2,.03,.41,.04,.6,.08,2.01,.47,1.61,3.19,3.66,3.8,1.73,.52,3.32,1.51,4.95,2.34,4.06,2.05,7.39,4.99,10.2,8.54,8.48,10.71,17.93,20.48,28.34,29.32,10.76,9.14,22.94,15.27,37,17.37,3.81,.57,3.81,.54,4.39,4.85-.27,7.83-.38,15.67,.16,23.49-.07,1.63-.13,3.26-.22,4.89-.09,1.47-.98,2.17-2.37,2.24-6.11,.3-12.23,.62-18.35,.24-.21-1.94-1.3-2.89-3.2-2.46-2.3,.52-4.54,1.26-6.81,1.91-1.67-.81-3.47-.83-5.25-.83-1.09,0-1.92,.59-1.98,1.76-.06,1.18,.04,2.37,.07,3.56-.1,7.3-.44,14.6,.21,21.9-.49,7.31-.49,7.29-7.82,6.35-1.56-.2-3.16-.16-4.74-.22-10.49-1.98-20.9-4.29-31.02-7.8-1.5-.52-3.13-.69-4.7-1.03-.52-1.61-1.96-1.97-3.31-2.24-3.22-.64-6.06-2.16-8.9-3.66-1.96-1.03-3.79-2.28-5.71-3.38-.52-.3-1.22-.34-1.58,.24-.13,.21,.1,.83,.35,1.07,.72,.69,1.54,1.28,2.32,1.91,3.35,2.69,7.6,3.64,11.22,5.82Zm1.96-68.44l.04,.04c.79-2.45-.9-3.72-2.44-5-1.13-.94-2.94-.13-3.28,1.38-.23,1.01-.18,1.99,.26,2.95,.94,2.07,2.26,3.88,4.21,5.03,3.16,1.86,5.73,4.4,8.33,6.91,3.75,5.56,7.61,8.63,7.18,6.66-.77-3.48-3.67-5.48-6.35-7.53-2.11-3.35-4.19-6.72-6.37-10.02-.22-.34-1.03-.29-1.56-.42Zm27.07-6.86c-.15-3.61-2.39-5.66-5.93-5.21-1.8,.23-3.58,.67-5.33,1.17-3.8,1.08-5.1,5.62-2.56,8.71,.82,.99,1.93,1.73,3.14,1.57,2.59-.33,5.2-.76,7.69-1.52,2.23-.67,3.08-2.35,2.98-4.72Zm4.91,4.59c.34,1.91,.74,4.32,1.21,6.72,.75,3.79,1.52,7.58,2.34,11.36,.13,.62,.69,1.04,1.34,.75,.26-.11,.49-.68,.46-1.01-.08-1.01-.28-2.02-.46-3.02-.93-5.22-1.85-10.43-2.82-15.64-.11-.57-.51-1.2-1.25-1.05-.66,.14-.78,.77-.81,1.89Zm-62.02,47.84c-.12,.16-.38,.36-.34,.47,.18,.57,.31,1.22,.68,1.65,3.3,3.86,6.78,7.56,10.82,10.67,.44,.34,1.13,.7,1.58-.01,.15-.24,.12-.84-.07-1.04-3.84-3.91-7.7-7.79-11.6-11.64-.2-.2-.71-.08-1.07-.11Zm16.9-86.93c.32-.66,.21-1.02-.25-1.21-2.57-1.07-5.14-2.12-7.71-3.18-.7-.29-1.5-.73-1.88,.37-.24,.68,.34,1.11,.82,1.45,2.32,1.61,4.85,2.79,7.68,3.12,.47,.06,1.01-.4,1.35-.54Zm35.79,68.59c-.02-.2,.02-.45-.08-.6-1.63-2.62-3.85-4.72-6.11-6.77-.21-.19-.76-.19-1.08-.06-.46,.18-.51,.62-.25,1.05,1.56,2.68,3.82,4.74,6.05,6.83,.2,.19,.73,.07,1.1,0,.15-.03,.25-.29,.37-.45Zm-54.32,16.98c.27-.17,.82-.47,.79-.52-.22-.51-.47-1.04-.84-1.44-.34-.37-.78-.26-.95,.19-.34,.92,.14,1.44,.99,1.76Z"/>
  <path class="cls-4" d="M315.56,112.45c4.6-7.16,9.12-14.38,13.82-21.47,4.71-7.11,9.89-13.87,16.21-19.66,4.64-4.25,9.49-8.24,15.61-10.27-.05,1.12-.1,2.24-.14,3.36-1,.91-.9,1.94,.29,2.31,3.09,.97,6.29,1.85,9.53,1.32,3.71-.6,7.74-.74,10.09-4.51l-.02,.02c1.57-.48,1.82-1.56,1.35-2.97l-.06-.55c7.46-.25,14.5,1.59,21.36,4.3,3.46,1.37,6.44,3.53,9.1,6.06,12.7,12.03,20.86,26.66,23,44.04,2.32,18.85-4.63,33.88-20.71,44.38-.78,.2-1.63,.27-2.34,.63-6.06,3.07-12.49,4.95-19.09,6.42-6,1.33-12.08,1.93-18.16,2.62-.94,.11-2.09,.08-2.16,1.68,.79,.09,1.59,.3,2.38,.26,11.9-.67,23.49-2.77,34.51-7.48,1.66-.71,3.18-1.93,5.18-1.43-.03,3.76-.07,7.52-.1,11.28-2.62,.31-5.23,.77-7.86,.9-12.59,.62-25.18,.88-37.78,.28,.03-1.62,.28-3.27,.06-4.85-1.11-7.81-2.29-15.61-3.54-23.4-.71-4.4-1.55-8.77-2.46-13.13-.41-1.96-1.52-2.9-3.45-2.71-2.81,.28-5.59,.85-8.36,1.42-1.15,.24-1.37,1.31-1.53,2.36-.45,2.9,.79,5.6,.97,8.42l-12.52-.12c.17-1.2,.41-2.4,.49-3.61,.36-5.56-.76-10.99-1.9-16.36-2.15-10.15-1.13-19.85,3.05-29.29,.49-1.11,.89-2.27,1.22-3.44,.09-.3-.23-.72-.37-1.08-.37,.16-.74,.29-1.09,.48-.17,.09-.33,.27-.41,.44-3.91,7.99-6.58,16.33-5.54,25.33,1.06,9.09,2.93,18.08,3.34,27.26-1.55,1.91-3.96,1.95-6.02,2.6-5.02,1.6-8.42,4.7-9.98,9.77-.65,2.13-1.31,4.26-1.97,6.39-7.15-.5-13.89-2.6-20.4-5.45-10.02-4.39-19.59-9.62-28.66-15.75,.02-2.36,1.24-4.23,2.39-6.17,3.93-6.66,7.66-13.44,11.67-20.05,2.09-3.45,3.51-7.35,6.59-10.16,4.82,2.49,9.61,5.04,14.47,7.44,2.33,1.15,4.8,2.02,7.21,3.02,1.02,.93,.95,2.1,.85,3.34-.18,2.41-.35,4.83-.34,7.24,0,1.18,.26,2.41,.66,3.52,.6,1.64,2.46,2.63,3.86,2.17,1.62-.53,1.99-1.91,1.89-3.4-.11-1.6-.26-3.22-.64-4.77-.76-3.14-1.84-6.18-3.53-8.96Zm73.71-1.32c-.92,.44-1.27,1.29-1.57,2.18-.46,.75-.93,1.5-1.39,2.26-.48,.65-1.12,1.23-1.42,1.96-1.19,2.86-2.6,5.48-5.75,6.65-.22,.08-.41,.75-.32,1.05,.08,.23,.69,.52,.94,.43,5.35-1.88,10.68-3.8,16-5.73,.64-.23,.89-.81,.6-1.39-.11-.23-.69-.39-1.02-.34-1,.16-1.96,.56-2.96,.64-1.76,.16-1.27-.98-.99-1.95,.38-.43,.75-.86,1.13-1.29,1.14-.83,1.86-1.95,2.28-3.3,.38-1.23,.28-2.42-.79-3.14-1.29-.87-2.58-.65-3.52,.72-.41,.42-.82,.84-1.23,1.26Z"/>
  <path class="cls-13" d="M369.55,173.96c12.6,.6,25.19,.33,37.78-.28,2.63-.13,5.24-.59,7.86-.9,.26,.51,.51,1.01,.77,1.52q.98,1.37,1.87-.22c1.62-1.82,3.21-3.67,4.86-5.46,1.95-2.11,4.15-3.93,6.75-5.18,3.1-1.49,6.28-1.7,9.4-.06,3.36,1.77,4.27,4.99,2.37,8.25-1.25,2.15-3.04,3.82-4.97,5.34-3.53,2.79-7.36,5.09-11.3,7.26-1.03,.57-2.37,.81-3.02,2.53,1.12,.84,2.53,1.4,3.87,2.09,4,2.05,7.86,4.31,11.16,7.41,1.95,1.84,3.55,3.9,4.46,6.48,.56,1.6,.67,3.18,.29,4.8-1.22,5.2-5.05,6.94-9.66,4.29-3.41-1.95-6.04-4.82-8.55-7.77-1.67-1.97-3.31-3.96-5.45-6.54-.63,2.99-.2,5.15-.03,7.27,1.01,12.8,2.08,25.6,3.11,38.4,.77,9.55,1.5,19.1,2.25,28.66,.1,1.22,.04,2.47,.28,3.66,.45,2.28-.88,3.39-2.57,4.33-10.3,2.37-20.71,3.81-31.25,4.79-9.53,.88-19.07,.71-28.59,1.29-1.3-.46-2.58-.26-3.87,.09-5.2-.81-10.46-.67-15.7-1.42-13.95-1.99-27.29-5.69-39.72-12.44-.53-.29-1.11-.49-1.67-.74-1.22-2.02-.28-3.95,.28-5.86,2.04-7,4.14-13.99,6.2-20.99,.28-.97,.47-1.97,.7-2.95,13.66-.06,27.32-.11,40.98-.2,3.87-.02,7.74-.15,11.61-.23,1.21,.08,2.43,.28,3.63,.22,5.04-.25,7.77-3.16,7.69-8.2-.03-1.62-.2-3.25-.51-4.84-2.14-10.73-4.39-21.45-6.51-32.19-1.38-6.95-2.61-13.92-3.9-20.89,2.98-.78,6.01-1.25,9.09-1.32Zm47.85,15.26c3.69,7.1,8.31,13.43,14.3,18.69,.3,.27,.65,.49,.99,.7,1.39,.84,2.83,1.91,4.47,.78,1.51-1.03,1.6-2.73,1.51-4.4-.08-1.48-.72-2.75-1.57-3.91-1.33-1.82-2.95-3.36-4.77-4.69-4.45-3.24-9.32-5.69-14.94-7.17Zm-.1-4.88c.39-.11,.8-.17,1.17-.34,5.69-2.72,11.2-5.77,16.15-9.72,1.26-1,2.45-2.16,3.46-3.41,1.7-2.11,.92-4.34-1.67-5.21-1.61-.54-3.25-.57-4.74,.22-1.6,.85-3.23,1.76-4.59,2.94-4.21,3.62-7.37,8.1-10.13,12.88-.28,.48-.32,1.16-.29,1.73,.02,.31,.42,.61,.65,.91Zm-23.23,8.02c4.35,.08,7.33-.29,9.85-2.33,2-1.62,1.84-4.27-.31-5.6-3.98-2.45-11.27-1.86-14.9,1.22-1.77,1.5-1.64,3.72,.25,5.16,1.9,1.46,4.12,1.53,5.1,1.55Z"/>
  <path class="cls-4" d="M151.74,423.58c1.35,1.5,3.12,1.75,5,1.7,4.33-.1,8.39,1.17,12.48,2.36,3.49,1.01,6.05,3.1,8.15,6,3.05,4.21,4.89,8.84,5.49,13.99-.06,1.85-.73,3.18-2.83,3.24-2.04,.05-4.08,.11-6.12,.11-29.39,0-58.79,.05-88.18-.01-7.29-.02-7.51,.91-7.64-7.29-.13-8.37,0-16.75,.03-25.12,0-1.22,.15-2.45,.2-3.67,.1-2.29,1.39-3.26,3.57-3.22,6.12,.08,12.24,.11,18.36,.27,2.2,.06,3.89-.59,5.39-2.26,2.59-2.88,5.36-5.61,8.05-8.4,2.5-.74,5.02-.91,7.56-.28,2.17,2.44,3.94,5.15,4.69,8.35,.52,2.22,1.81,3.42,3.81,4.28,2.96,1.28,5.78,2.87,8.74,4.15,4.43,1.92,8.52,4.6,13.25,5.82Z"/>
  <path class="cls-4" d="M49.84,334.41c1.35,2.59,2.12,5.24,.82,8.09-2.36,1.97-4.89,3.66-7.85,4.6-2.12,.68-3.27,2.09-4.08,4.16-1.77,4.56-3.8,9.03-5.7,13.54-2.21,5.25-4.54,10.38-4.31,16.39,.12,3.17-1.11,6.4-1.75,9.59-.32,1.63-.96,3.16-2,4.43-4.16,5.09-9.5,8.29-15.96,9.44-3.14,.56-4.09-.28-4.35-3.39-.31-3.66-.64-7.32-.82-10.99-.58-11.42-1.1-22.84-1.63-34.26-.65-13.87-1.29-27.73-1.92-41.6-.11-2.45-.26-4.9-.28-7.34-.05-4.32,.31-4.93,4.78-5.29,9.75-.79,19.51-1.63,29.33-1.36,2.63,.07,4.27,1.03,4.84,3.64,.03,6.07,.07,12.15,.09,18.22,0,1.65-.07,3.4,1.57,4.33,3.58,2.02,5.88,5.54,9.24,7.81Z"/>
  <path class="cls-1" d="M360.07,241.17c-3.87,.08-7.74,.2-11.61,.23-13.66,.08-27.32,.13-40.98,.2-1.82-.08-3.65-.13-5.47-.23-5.98-.34-9-3.57-8.14-9.55,.92-6.41,2.1-12.81,3.99-19.03,12.84,.04,25.68,.08,38.52,.12,.41,0,.82,0,1.22-.02,2.33-.15,3.04-.72,2.83-2.94-.48-5.07-1.09-10.13-1.76-15.18-.24-1.78-1.09-2.42-2.88-2.52-1.63-.09-3.26-.05-4.89-.06-9.58-.05-19.16-.1-28.74-.14-.06-3.72,1.29-7.2,1.8-10.83,.18-1.33,1.16-2.13,2.54-2.22,2.4-.15,4.8-.23,8.48-.39-3.49-1.44-5.87-.94-8.17-.97-1.87-.03-3.1-.7-3.8-2.42-1-2.45-2.18-4.83-2.99-7.34-.76-2.36,.14-3.57,2.54-3.58,5.29-.03,10.58,.07,15.87,.12,.01,1.61-.03,3.22,.05,4.83,.11,2.12,1.27,3.3,3.41,3.47,.46,.39,.93,.78,1.39,1.17,1.2,3.65,1.43,3.78,5.48,3.15l.48-.15h.51c1.39,.25,2.77,.69,4.16,.7,2.54,.02,3.66-1.04,4.07-3.56,.13-.8,.04-1.63,.13-2.43,.24-2.05,.94-2.6,2.74-1.68,3.87,1.97,7.73,2.07,11.75,.57,.74-.28,1.59-.25,2.4-.36,1,1.48,1.53,3.09,1.47,4.89-.33,.94-.44,2.07-1.04,2.79-1.61,1.93-1.68,4.04-1.21,6.3,3.1,14.98,6.28,29.94,9.26,44.94,.84,4.25,.82,8.52-3.08,11.64-.15,.12-.21,.34-.32,.52Z"/>
  <path class="cls-13" d="M264.11,422.73c.09-.6,.14-1.22,.29-1.8,2.33-8.91-.08-17.24-3.26-25.42-1.62-4.15-3.18-8.34-5.75-12.06-.71-1.03-.97-2.22-.74-3.48,1.84,1.18,3.67,2.37,5.52,3.52,.49,.31,1.04,.59,1.59,.7,.24,.05,.61-.33,.85-.58,.1-.1,.1-.48,0-.57-1.04-.91-2.09-1.81-3.17-2.66-1.27-1-2.54-1.97-2.58-3.8,2.8-.22,5.6-.45,8.4-.67,3.4,3.62,7.81,5.65,12.2,7.69,.24,.11,.71-.24,1.07-.38-.13-.35-.17-.85-.42-1.02-2.2-1.45-4.41-2.89-6.68-4.23-1.1-.65-1.99-1.38-2.31-2.66,3.44-.4,6.87-.8,10.31-1.2,3.26-.38,6.49-.44,9.57,.92,.46,.38,.87,.87,1.39,1.14,8.64,4.46,16.99,9.44,25.32,14.44,1.55,.93,3.06,2,4.92,2.29,.3,.73,.91,1.5,.84,2.19-.12,1.19-.6,2.36-1.03,3.51-4.73,12.64-10.18,24.96-17,36.61-5.01,8.54-4.12,7.89-12.42,3.28-9.09-5.05-17.96-10.5-26.93-15.78Z"/>
  <path class="cls-13" d="M416.49,400.83c3.28,.99,4.97,3.38,5.8,6.54,.16,.59,.31,1.19,.44,1.78,1.8,8.05,4.64,15.6,9.83,22.18,1.35,1.72,2.08,3.96,2.96,6.02,1.38,3.23,.5,5.98-2.05,8.27-2.49,2.23-5.44,3.56-8.64,4.38-6.98,1.78-14.13,2.08-21.26,2.01-6.72-.06-13.44-.68-20.16-1.09-1.01-.06-2.02-.28-3.02-.48-5.26-1.01-6.82-2.82-7.09-8.2-.12-2.48,.2-4.89,1.05-7.23,1.91-5.24,2.61-10.69,2.69-16.23,.07-4.51,.8-8.95,1.65-13.36,.42-2.2,.99-4.47,3.67-5.12,7.11,.12,14.22,.24,21.32,.34,4.26,.07,8.53,.11,12.79,.17Zm-4.2,14.74c-.16-.34-.22-.85-.48-1-6.65-3.69-13.47-3.91-20.4-.84-.36,.16-.7,.44-.93,.76-.22,.3-.45,.77-.36,1.07,.18,.66,.84,.87,1.39,.59,6.24-3.23,12.5-2.66,18.8-.23,.5,.19,1.12,.09,1.69,.08,.1,0,.19-.28,.29-.43Zm-11.24,6.2c3.69-.11,6.71,1.07,9.79,1.99,.75,.22,1.5,.62,2.29,.05,.53-.38-.28-1.48-1.54-2.03-2.99-1.29-6.14-2.03-9.35-2.31-3.71-.32-7.21,.54-10.23,2.87-.44,.34-.87,.88-.33,1.43,.22,.23,.79,.34,1.09,.22,2.81-1.06,5.44-2.78,8.27-2.22Z"/>
  <path class="cls-11" d="M97.88,53.48c-3.04,.74-3.5,.89-3.1,2.65,.99,4.29-.99,6.04-4.73,7.46-3.74,1.42-7.2,3.65-10.69,5.69-3.71,2.17-6.77,5.11-9.36,8.55-1.08,1.44-2.22,2.82-3.34,4.23-1.18-7.68-1.37-15.44-1.7-23.17-.41-9.59-.46-19.2,.95-28.75,.24-1.61,.64-3.2,.85-4.81,1.15-8.89,9.51-16.3,19.49-15.85-.22,.78-.39,1.57-.67,2.33-2.07,5.63-1.35,11.14,.71,16.58,.35,.93,.71,1.92,1.93,2.05-.48,1.73-1.55,3.22-1.68,5.11-.38,5.36,2.49,9.36,7.75,10.54,3.57,.8,3.58,.8,3.65,4.38,.02,1-.05,2.01-.07,3.01Z"/>
  <path class="cls-11" d="M361.76,57.61c-.1-1.68-.29-3.15-2.52-3.44-4.44-.59-8.98-.44-13.43-1.84-.11-.51-.41-1.13-.32-1.67,1.32-7.64,2.78-15.25,4.91-22.7,1.86-6.51,4.86-12.54,8.49-18.23,2.59-4.06,6.34-6.2,11.15-6.54,4.12-.29,8.16-.07,12,1.62,1.87,.83,3.68,1.85,5.04,3.4,2.26,2.56,4.24,5.33,7.21,7.27,1.2,.78,1.89,2.65,2.37,4.17,.68,2.12,1.3,4.36,1.35,6.56,.2,9.18,.18,18.37,.22,27.56,0,.38-.26,.76-.39,1.14-5.19-.06-10.38-.11-15.57-.16,.02-2.23,.02-4.46,.06-6.69,.02-.89,.43-1.54,1.36-1.7,.59-.1,1.22-.06,1.81-.17,5.98-1.14,9.02-5.59,7.87-11.48-.51-2.61-1.88-3.77-4.43-4.29-3.17-.65-5.43,.84-8.14,3.83,1.04-6.35-1.18-10.17-5.68-12.78-.6-.95-1.55-1.12-2.55-1.19-.37-1.54-.6-2.99-2.9-1.89-.95,.46-2.33,.01-3.51,0-2.03-.01-4.07,0-6.91,0,1.12,.55,1.41,.76,1.73,.84,1.04,.25,2.18,.83,2.02,1.84-.21,1.4-1.52,.5-2.36,.55-.6,.04-1.19,.11-1.78,.17q-2.21,.4-2.37,2.67c-.73,3.15-1.63,6.28-2.13,9.47-.57,3.6-.73,7.24,.42,10.83,1.91,5.94,5.69,8.75,11.76,8.3,2.61-.19,5.21-.62,7.7-1.63,.73-.3,1.69-1.21,2.57-.08-4.34,4.54-7.4,5.82-15.04,6.26Z"/>
  <path class="cls-3" d="M358.85,21.78c.59-.06,1.19-.13,1.78-.17,.85-.05,2.15,.85,2.36-.55,.15-1.01-.99-1.58-2.02-1.84-.32-.08-.61-.29-1.73-.84,2.84,0,4.87,0,6.91,0,1.18,0,2.56,.45,3.51,0,2.3-1.11,2.54,.35,2.9,1.89l-.24,.29c-.39,.08-.77,.23-1.16,.24-1.02,.04-2.18,.07-2.33,1.3-.11,.93,1.02,.96,1.66,1.33,.3,.17,.47,.58,.7,.88-1.15,.38-2.95-.05-2.6,2.18,.21,1.36,.25,2.74,.45,4.1,.04,.23,.53,.44,.84,.57,.45,.18,.69-.08,.91-.52,1.07-2.1-.13-4.29,.28-6.41q2.6,.09,2.88-1.73c.38-.35,.76-.69,1.14-1.04,4.5,2.61,6.72,6.43,5.68,12.78,2.71-2.99,4.97-4.49,8.14-3.83,2.55,.53,3.92,1.68,4.43,4.29,1.15,5.89-1.88,10.34-7.87,11.48-.59,.11-1.21,.07-1.81,.17-.93,.16-1.35,.81-1.36,1.7-.04,2.23-.05,4.46-.07,6.69,.05,.49,.1,.99,.15,1.48-.07,1.27-.13,2.54-.2,3.81,0,0,.07,.55,.07,.55-.96,.76-1.93,1.51-1.35,2.97,0,0,.02-.02,.02-.02-1.75-.72-3.09,.44-4.56,.99-4.08,1.55-8.2,1.94-12.42,.62-.96-.3-1.95-.49-2.93-.74,.05-1.12,.1-2.24,.14-3.36,.19-1.15,.37-2.3,.56-3.45,7.64-.44,10.71-1.71,15.05-6.26-.88-1.13-1.84-.22-2.57,.08-2.48,1.01-5.09,1.44-7.7,1.63-6.07,.44-9.85-2.36-11.76-8.3-1.16-3.59-.99-7.23-.42-10.83,.5-3.19,1.41-6.31,2.13-9.47,1.66,1.2,1.35,2.98,1.49,4.68,.1,1.23,1.1,1.36,2.12,1.21-.07,2.38-.18,4.77-.17,7.15,0,.49,.31,1.24,1.12,.95,.31-.11,.76-.5,.75-.74-.09-2.66,1.09-5.03,1.55-7.56,.15-.81-.73-.84-1.26-.68-.73,.22-1.39,.64-2.09,.97,.4-2.41,.83-4.79-1.01-6.91-.31-.35-.11-1.15-.14-1.74Zm13.56,18.82c-.32-.96-.63-1.56-1.34-1.4-2.55,.59-5.09,1.23-7.34,2.63-.59,.36-.63,1.09-.25,1.59,1.23,1.63,3.68,2.31,5.44,1.43,1.87-.94,3.2-2.38,3.5-4.25Zm17.88-1.96c-.23-1.06-.58-2.01-.59-2.97-.01-.88,1.1-1.94-.39-2.49-.92-.34-1.42,.6-1.96,1.14-1.02,.99-1.96,2.06-2.93,3.1-.56,.61-1.29,1.45-.87,2.12,.74,1.18,1.66,.11,2.56-.15,1.33-.39,2.74-.5,4.19-.74Z"/>
  <path class="cls-3" d="M208.47,147.05c-.54-7.83-.43-15.66-.16-23.49,3.51-1.62,7-3.27,10.52-4.83,1.86-.82,3.79-1.52,5.88-1.44,1.22,.04,2.51,.07,3.03,1.49,.46,1.26,.13,2.42-.72,3.39-.66,.76-1.47,1.4-2.18,2.12-.4,.4-1.1,.64-.75,1.88,4.84,.75,9.8,.06,14.75-.56,1.61-.2,3.21-.64,4.82-.69,2.35-.07,4.83-.72,6.58,1.91,.84,1.26,2.66,.49,4.03,.68,1.05,.14,2.12,.43,2.46,1.47,.35,1.08-.46,1.89-1.26,2.56-.47,.39-.94,.77-1.5,1.22,.47,.43,.91,.81,1.33,1.21,1.81,1.76,1.88,2.42,.17,3.87-4.21,3.57-8.73,6.69-13.9,8.7-5.19,2.02-10.66,2.57-16.15,2.1-4.44-.38-8.94-.36-13.3-1.61-1.12-.32-2.42,0-3.64,.01Zm29.37-9.62c-.4-.17-1.02-.32-1.49-.67-.47-.35-1.09-.89-1.1-1.36,0-.41,.67-1.03,1.18-1.21,2.68-.96,5.44-1.71,8.09-2.74,1.4-.55,4.05-1.07,3.37-2.72-.89-2.15-2.67,.12-4.03,.52-1.36,.39-2.63,1.13-3.99,1.52-4.13,1.18-8.29,2.49-12.14-.83-.16-.13-.86,.08-1.02,.32-.17,.26-.13,.89,.07,1.11,1.42,1.46,2.85,2.91,4.38,4.25q6.04,5.3,13.51,2.75c1.72-.59,3.37-1.43,5.02-2.19,.35-.16,.63-.51,.92-.8,.57-.59,.05,.2-.1-.6-.05-.28-.6-.74-.79-.69-1.55,.47-3.05,1.08-4.59,1.59-2.32,.77-4.6,1.68-7.28,1.75Z"/>
  <path class="cls-3" d="M354.99,170.09c-.8,.11-1.66,.08-2.4,.36-4.01,1.51-7.87,1.41-11.75-.57-1.8-.91-2.5-.37-2.74,1.68-.09,.8,0,1.63-.13,2.43-.41,2.52-1.53,3.58-4.07,3.56-1.39-.01-2.77-.45-4.16-.69,.66-.85,.75-1.85,.73-2.88-.08-4.11,.24-8.13,2.8-11.61,.1-.14,.13-.41,.07-.58-.12-.35-.25-.84-.52-.97-.28-.13-.8,0-1.09,.2-1.21,.85-1.86,2.14-2.33,3.48-1.44,4.09-2.03,8.25-.64,12.5-4.05,.63-4.28,.49-5.48-3.15,1.24-1.05,1.19-2.51,1.18-3.92-.02-3.68,.54-7.25,1.82-10.71,.14-.37,.29-.79,.23-1.16-.06-.33-.34-.76-.63-.87-.29-.11-.9,.02-1.03,.24-.6,1.04-1.19,2.1-1.57,3.23-1.31,3.9-1.22,7.98-1.39,12.02-2.14-.16-3.3-1.35-3.41-3.47-.08-1.61-.04-3.22-.05-4.83,1.14-1.1,1.02-2.56,1.11-3.96,.66-2.13,1.32-4.26,1.97-6.39,1.56-5.07,4.96-8.17,9.98-9.77,2.07-.66,4.47-.69,6.02-2.6,.4,.09,.8,.18,1.21,.26,4.17,.04,8.35,.08,12.53,.12,.72,4.57,1.64,9.11,2.12,13.7,.5,4.78,2.17,9.44,1.63,14.33Z"/>
  <path class="cls-2" d="M88.24,30.44c-1.22-.14-1.58-1.13-1.93-2.05-2.06-5.45-2.79-10.95-.71-16.58,.28-.76,.45-1.55,.67-2.33,3.67-5.08,8.78-7.66,14.79-8.97,7.31-1.59,13.25,.69,18.32,5.85,.99,1.01,1.83,2.21,2.57,3.42,.99,1.62,2.22,2.24,4.09,1.66,2.57-.79,5.22-.91,7.88-.65,.34,.03,.76,.32,.95,.61,.38,.6,.08,1.2-.38,1.62-1.7,1.53-3.88,2.21-5.89,3.2-1.83,.89-3.65,1.8-5.47,2.7-1.54,.26-3.09,.5-4.36,1.55-3.48,.79-6.85,1.93-10.05,3.51-6.71,1.08-12.98,3.51-19.13,6.3-.44,.06-.89,.12-1.33,.17Z"/>
  <path class="cls-3" d="M108.69,23.96c3.21-1.59,6.57-2.72,10.05-3.51,.16,.85,.67,1.36,1.54,1.4,1.16,.06,2.31,.07,3.47,.11,.66,.6,.76,1.38,.69,2.21-3.14-.86-4.47,2.05-6.61,3.25-.38,.21-.66,1.1-.57,1.59,.49,2.56,1.11,5.1,1.7,7.64,.12,.51,.49,.67,.95,.41,.33-.18,.81-.42,.87-.7,.15-.78,.26-1.62,.13-2.39-.23-1.39-.66-2.74-.98-4.12-.27-1.16,.32-1.84,1.27-2.43,1.08-.67,2.23-.9,3.46-.86,2.45,5.72,3.13,11.62,1.63,17.69-1.04,4.2-3.42,7.27-7.76,8.49-2.61-.11-5.26,0-7.83-.4-2.52-.39-4.95-1.31-7.45-2-.25,1.75,.9,2.39,1.79,3.07,3.62,2.78,7.88,3.93,12.3,4.59-4.5,1.36-8.74,.8-12.86-1.51-2.11-1.18-4.41-2.01-6.62-3,.03-1,.09-2.01,.07-3.01-.07-3.58-.08-3.58-3.65-4.38-5.26-1.18-8.13-5.18-7.75-10.54,.14-1.89,1.2-3.39,1.68-5.11,.44-.06,.89-.12,1.33-.17,1.39,.03,2.85-.2,4.17,.13,4.01,.99,7.6,.11,10.84-2.2,1.65-1.18,3-1.33,4.84-.38,.93,.49,2.34,.1,3.53,.01,.24-.02,.62-.48,.64-.75,.02-.34-.19-.78-.44-1.03-.77-.78-1.81-.75-2.8-.77-.89-.02-1.51-.36-1.65-1.31Zm-14.03,14.76c.19,.05,.39,.09,.58,.16,.63,.24,1.27,.08,1.37-.53,.08-.49-.17-1.24-.54-1.57-1.49-1.32-3.07-2.55-4.66-3.75-.47-.35-1.14-.55-1.64-.04-.47,.47-.35,1.09,.11,1.51,1,.91,1.54,1.79,.17,2.85-.45,.35-.94,.82-.46,1.47,.4,.54,1,.47,1.6,.35,1.15-.23,2.22-.99,3.47-.45Zm20.84,3.61c-.02-.18,.02-.45-.08-.53-1.74-1.28-3.48-2.55-5.25-3.79-.4-.28-.79-.1-.98,.35-.07,.17-.18,.38-.14,.53,.73,2.46,3.05,4.2,5.74,4.23,.24,0,.48-.52,.72-.8Z"/>
  <path class="cls-13" d="M302.18,192.03c9.58,.05,19.16,.09,28.74,.14,1.63,0,3.26-.03,4.89,.06,1.79,.1,2.64,.74,2.88,2.52,.67,5.05,1.28,10.11,1.76,15.18,.21,2.22-.49,2.79-2.83,2.94-.41,.03-.81,.03-1.22,.02-12.84-.04-25.68-.08-38.52-.12,.97-7.01,2.16-13.98,4.3-20.75Z"/>
  <path class="cls-3" d="M170.56,180.26c-.65-7.29-.31-14.6-.21-21.9,2.65-1.07,5.35-2.08,7.17-4.49,2.27-.65,4.51-1.39,6.81-1.91,1.9-.43,2.99,.52,3.2,2.46-1.08,1.46-2.17,2.91-3.23,4.39-.52,.72-.11,1.65,.76,1.74,4.05,.45,8.05,0,12.05-.68,1.78-.31,3.59-.52,5.39-.62,.75-.04,1.95,.1,2.22,.57,1.24,2.14,3.27,1.9,5.22,2.22,1.95,.32,1.84,1.8,1.39,3.29-1.02-.05-1.96,.05-2.82,.76-4.03,3.31-8.75,4.94-13.87,5.57-.98,.12-1.92,.54-2.88,.86-.51,.17-.62,.53-.34,.98,.09,.15,.22,.36,.36,.39,.58,.12,1.19,.3,1.77,.25,6.87-.51,12.97-2.85,18.03-7.64,1.03,.32,1.87,.93,2.09,2.01,.22,1.12-.51,1.94-1.3,2.58-6.33,5.11-13.39,8.62-21.64,8.95-6.72,.26-13.45,.15-20.17,.21Zm20.07-12.33c4.07-.12,7.53-1.19,10.91-2.55,.74-.3,1.44-.73,2.11-1.17,.54-.36,.77-.97,.46-1.53-.35-.63-1.02-.53-1.57-.27-3.7,1.69-7.53,2.85-11.6,3.22-.57,.05-1.17,.35-1.65,.68-.26,.18-.32,.66-.41,1.03-.02,.08,.23,.29,.38,.33,.58,.14,1.16,.23,1.37,.27Z"/>
  <path class="cls-2" d="M291.13,102.86c-3.08,2.81-4.5,6.72-6.59,10.16-4.01,6.61-7.74,13.39-11.67,20.05-1.15,1.95-2.37,3.81-2.39,6.17-3.09,1-5.47-.67-7.92-2.08-5.76-3.33-5.8-3.48-2.54-9.31,1.48-2.65,2.96-5.3,4.44-7.95,.94-.51,1.33-1.34,1.34-2.38,1.51-1.88,2.63-3.98,3.46-6.24-.07-.29,0-.55,.18-.79,3.27-3.67,5.67-7.85,7.38-12.45,.4-.44,.81-.87,1.19-1.32,2.37-2.79,2.58-2.88,5.44-1.35,1.77,.94,3.45,2.05,5.2,3.02,1.77,.98,2.53,2.48,2.48,4.46Z"/>
  <path class="cls-3" d="M113.68,401.27c-2.69,2.79-5.46,5.52-8.05,8.4-1.5,1.66-3.19,2.31-5.39,2.26-6.12-.16-12.24-.19-18.36-.27,.91-4.47-.72-8.75-.96-13.13,2.51-.34,4.82,.71,7.2,1.12,6.45,1.11,12.93,1.43,19.46,1.37,2.03-.02,4.06,.16,6.09,.26Z"/>
  <path class="cls-3" d="M276.81,98.05c-1.71,4.59-4.11,8.78-7.38,12.44-.3-.51-.49-1.14-.91-1.51-3.35-2.86-4.24-6.59-3.92-10.77,.11-1.39,.58-2.83,.32-4.13-.3-1.49-1.35-.89-2.14-.15-2.14-.57-4.35-.93-6.28-2.15-2.61-1.66-2.72-4.23-.18-5.77,3.69-2.23,7.73-2.12,11.79-1.5,1.25,.19,2.1,1.23,2.74,2.26,1.07,1.72,2.06,3.49,3,5.28,1.03,1.97,1.98,3.99,2.96,5.99Z"/>
  <path class="cls-3" d="M320.65,392.92c-1.86-.29-3.37-1.36-4.92-2.29-8.33-5-16.68-9.98-25.32-14.44-.52-.27-.93-.75-1.39-1.14,.89-1.38,1.77-2.77,2.66-4.16,1.74,.52,3.57,.85,5.21,1.61,8.47,3.94,16.9,7.97,25.32,12.02,.89,.43,1.64,1.14,2.46,1.72-1.01,2.42-2.23,4.72-4.01,6.68Z"/>
  <path class="cls-3" d="M49.84,334.41c-3.36-2.27-5.65-5.78-9.24-7.81-1.64-.93-1.57-2.68-1.57-4.33-.02-6.07-.06-12.15-.09-18.22,2.81-.11,5.62-.22,8.42-.32,1.35,10.18,2.26,20.4,2.47,30.68Z"/>
  <path class="cls-3" d="M416.49,400.83c-4.27-.06-8.53-.1-12.8-.17-7.11-.11-14.22-.23-21.32-.34-.04-1.05-.09-2.1-.14-3.15,1.49-.69,3.04-.97,4.68-.98,9.86-.05,19.73-.15,29.59-.24,0,1.63,0,3.25-.01,4.88Z"/>
  <path class="cls-7" d="M415.29,161.49c-2-.5-3.52,.73-5.18,1.43-11.03,4.7-22.62,6.8-34.51,7.48-.79,.04-1.59-.17-2.38-.26,.07-1.6,1.22-1.57,2.16-1.68,6.08-.69,12.17-1.29,18.16-2.62,6.6-1.46,13.03-3.35,19.09-6.42,.7-.36,1.55-.42,2.34-.63,.11,.9,.21,1.79,.32,2.69Z"/>
  <path class="cls-7" d="M315.56,112.45c1.69,2.78,2.78,5.82,3.53,8.96,.37,1.55,.52,3.17,.64,4.77,.1,1.49-.27,2.86-1.89,3.4-1.4,.46-3.26-.53-3.86-2.17-.41-1.11-.66-2.34-.66-3.52,0-2.41,.16-4.83,.34-7.24,.09-1.24,.17-2.41-.85-3.34,.92-.29,1.83-.58,2.75-.86Zm-.74,9.1c0,1.02-.04,1.62,0,2.21,.19,2.25,1.54,3.99,2.49,3.26,1.51-1.16,.35-2.55,.14-3.82-.16-.98-.41-1.95-.74-2.88-.1-.29-.58-.48-.92-.65-.45-.22-.73-.01-.8,.53-.08,.59-.15,1.18-.18,1.35Z"/>
  <path class="cls-12" d="M117.36,58c-4.42-.66-8.68-1.81-12.3-4.59-.89-.68-2.04-1.32-1.79-3.07,2.5,.69,4.93,1.61,7.45,2,2.57,.4,5.22,.29,7.83,.4,.21,1.51,.42,3.02,.62,4.53-.6,.25-1.21,.49-1.81,.74Z"/>
  <path class="cls-12" d="M211.59,166.51c-5.06,4.79-11.17,7.13-18.03,7.64-.58,.04-1.18-.13-1.77-.25-.14-.03-.27-.24-.36-.39-.28-.45-.17-.82,.34-.98,.95-.31,1.9-.73,2.88-.86,5.12-.64,9.84-2.26,13.87-5.57,.86-.71,1.8-.81,2.82-.76,.17,.37,.25,.76,.25,1.18Z"/>
  <path class="cls-12" d="M262.78,93.94c.79-.74,1.84-1.34,2.14,.15,.26,1.3-.21,2.75-.32,4.13-.32,4.18,.57,7.91,3.92,10.77,.42,.36,.61,.99,.91,1.51-.19,.24-.25,.5-.18,.79-1.83,.1-2.96-1.09-4.1-2.26-.68-.7-1.18-1.7-2.44-1.29,0,0,0-.04,0-.04,.57-.25,.96-.54,.66-1.28-1.64-4.09-1.67-8.26-.6-12.48Z"/>
  <path class="cls-12" d="M124.68,26.55c-1.23-.04-2.38,.19-3.46,.86-.95,.59-1.54,1.27-1.27,2.43,.32,1.38,.75,2.73,.98,4.12,.13,.77,.02,1.61-.13,2.39-.06,.28-.54,.52-.87,.7-.46,.26-.84,.1-.95-.41-.59-2.54-1.21-5.08-1.7-7.64-.09-.49,.19-1.38,.57-1.59,2.14-1.2,3.47-4.11,6.61-3.25,.49,.75,.38,1.56,.23,2.38Z"/>
  <path class="cls-10" d="M269.14,375.32c.32,1.28,1.2,2.01,2.31,2.66,2.27,1.34,4.48,2.78,6.68,4.23,.25,.17,.28,.67,.42,1.02-.36,.14-.82,.49-1.07,.38-4.39-2.04-8.8-4.07-12.2-7.69,1.16-1.04,2.51-.8,3.87-.59Z"/>
  <path class="cls-7" d="M258.19,97.85c.99,.04,1.68,.22,1.55,.9-.09,.47-.69,1.1-1.15,1.18-3.36,.62-6.73,1.27-10.12,1.57-1.32,.11-2.86,1.92-4.14-.13,.88-1.66,2.71-1.65,4.12-1.98,3.31-.78,6.73-1.09,9.74-1.54Z"/>
  <path class="cls-7" d="M265.79,117.52c0,1.04-.39,1.86-1.34,2.38-.68-.9-1.57-1.17-2.66-.91-2.73,.65-5.45,1.36-8.2,1.9-1.71,.33-3.49,.73-5.16-.23,.28-.99,1.11-1.41,1.83-1.49,5.17-.62,10.22-2.36,15.52-1.64Z"/>
  <path class="cls-7" d="M254.09,79.3c.9,.22,1.29,.3,1.65,.43,.17,.06,.46,.29,.44,.35-.12,.36-.26,.77-.52,1.03-.27,.27-.67,.5-1.04,.56-4.34,.75-8.69,1.47-13.04,2.15-.28,.04-.82-.3-.89-.56-.08-.27,.2-.91,.42-.97,4.48-1.07,8.97-2.08,12.99-2.99Z"/>
  <path class="cls-10" d="M256.87,376.58c.03,1.83,1.3,2.8,2.58,3.8,1.09,.85,2.14,1.75,3.17,2.66,.1,.09,.09,.46,0,.57-.24,.25-.61,.63-.85,.58-.56-.11-1.1-.39-1.59-.7-1.85-1.15-3.68-2.35-5.52-3.52,0,0,.05,.06,.05,.06-.45-.49-.91-.99-1.36-1.48-.38-.51-.76-1.01-1.13-1.52,1.54-.32,3.07-.77,4.67-.44Z"/>
  <path class="cls-7" d="M262.71,107.7s0,.04,0,.04c-.61,.53-1.16,1.42-1.84,1.53-4.51,.71-8.88,2.68-14.67,1.77,5.91-2.57,11.1-3.48,16.51-3.34Z"/>
  <path class="cls-7" d="M382.42,56.22c-.05-.49-.1-.99-.15-1.48,5.19,.05,10.38,.11,15.57,.16-.81,1.2-2.06,1.12-3.27,1.13-4.05,.06-8.1,.12-12.15,.18Z"/>
  <path class="cls-12" d="M123.76,21.96c-1.16-.03-2.32-.05-3.47-.11-.87-.04-1.38-.55-1.54-1.4,1.27-1.05,2.82-1.29,4.36-1.55,.48,.96,1.12,1.89,.65,3.06Z"/>
  <path class="cls-7" d="M417.84,174.08q-.9,1.59-1.87,.22c.62-.07,1.25-.15,1.87-.22Z"/>
  <path class="cls-10" d="M148.01,259.02c.2,15.05-.84,26.84-2.11,38.61-.61,5.68-.94,11.39-1.53,17.07-.77,7.3-1.67,14.58-2.56,21.87-.07,.53-.25,1.27-1.12,1.12-.71-.12-.99-.66-.92-1.29,.29-2.83,.64-5.66,.96-8.49,.68-6.08,1.31-12.16,2.05-18.23,.57-4.66,.76-9.34,1.33-14.01,2.11-17.49,2.15-35.09,1.17-52.64-.62-11.23-.6-22.45-.87-33.68-.04-1.59-.37-3.3,.89-4.67,.57-.61,1.27-1.16,2.08-.83,.66,.27,.51,1.07,.19,1.56-1.09,1.67-.87,3.53-.85,5.35,.08,9.4-.13,18.82,.37,28.2,.41,7.75,.83,15.49,.92,20.05Z"/>
  <path class="cls-10" d="M73.39,342.71c1.72-9.25,.67-18.7,2.02-28,.64-4.41,.42-8.95,.5-13.43,.06-3.27,.6-6.47,1.28-9.65,.11-.5,.47-.71,.93-.45,.31,.17,.76,.53,.74,.79-.35,6.91-.72,13.81-1.14,20.72-.14,2.23-.51,4.44-.63,6.67-.51,8.94-.97,17.89-1.46,26.83-.02,.41-.05,.82-.15,1.21-.14,.58-.32,1.13-1.04,1.29-.98,.22-.98-.62-1.01-1.08-.09-1.62-.04-3.26-.04-4.89Z"/>
  <path class="cls-7" d="M116.68,177.31c-3.62-2.18-7.87-3.13-11.22-5.82-.78-.63-1.6-1.22-2.32-1.91-.25-.24-.48-.86-.35-1.07,.36-.58,1.06-.54,1.58-.24,1.92,1.1,3.76,2.35,5.71,3.38,2.84,1.5,5.68,3.03,8.9,3.66,1.36,.27,2.79,.63,3.31,2.24-1.9,.41-3.76,.1-5.62-.26Z"/>
  <path class="cls-10" d="M90.81,204.24c-1.82-.42-3.61-.79-5.36-1.26-.27-.07-.58-.59-.6-.91-.04-.77,.62-1.05,1.19-.86,4.31,1.41,8.41,.66,12.44-1.1,.56-.25,1.34-.14,1.41,.47,.05,.44-.49,1.11-.94,1.4-2.48,1.58-5.38,1.69-8.13,2.27Z"/>
  <path class="cls-10" d="M152.81,199.74c.23,.27,.68,.62,.62,.78-.54,1.44-1.69,2.21-3.13,2.52-.27,.06-.66-.3-.95-.53-.06-.05,.05-.39,.14-.56,.72-1.32,1.76-2.17,3.32-2.21Z"/>
  <path class="cls-10" d="M107.17,193.46c-.14,.64-.51,1.11-1.17,1.05-.2-.02-.53-.53-.51-.81,.03-.63,.4-1.15,1.11-1.02,.23,.04,.39,.51,.58,.78Z"/>
  <path class="cls-10" d="M103.51,196.74c.3-.39,.68-.97,1.16-.48,.46,.46-.03,.9-.47,1.2-.23-.24-.46-.48-.69-.72Z"/>
  <path class="cls-10" d="M102.28,198c.41-.42,.82-.84,1.23-1.26,.22,.24,.45,.48,.68,.72-.41,.41-.82,.82-1.23,1.23-.22-.23-.45-.46-.68-.69Z"/>
  <path class="cls-10" d="M102.96,198.69c-.39,.48-.79,1.08-1.35,.24-.07-.11,.44-.6,.68-.92,.23,.22,.45,.45,.67,.68Z"/>
  <path class="cls-10" d="M357.39,286c1.28-.34,2.57-.54,3.87-.09-1.35,1.53-1.18,3.4-1.24,5.23-.02,.59-.14,1.22-.38,1.76-.12,.26-.65,.5-.95,.46-.31-.04-.82-.4-.84-.66-.2-2.23-.31-4.47-.45-6.71Z"/>
  <path class="cls-4" d="M151.92,370.42c0-.51,0-1.03,0-1.54,16.66,.05,33.32,.1,50.91,.16-1.91,1.52-3.25,1.22-4.47,1.22-13.03,.02-26.07,0-39.1,.02-2.44,0-4.88,.09-7.33,.15Z"/>
  <path class="cls-4" d="M235.63,368.86c1.78,.13,3.56,.24,5.34,.39,.53,.04,.74,.4,.52,.84-.16,.31-.45,.8-.69,.8-3.38,.07-6.76,.09-10.14,.06-.27,0-.64-.44-.77-.75-.34-.87,.47-1.06,.95-1.08,1.59-.09,3.19-.03,4.78-.03,0-.08,0-.15,0-.23Z"/>
  <path class="cls-13" d="M253.33,378.54c.45,.49,.91,.99,1.36,1.48-.82-.15-1.17-.75-1.36-1.48Z"/>
  <path class="cls-6" d="M145.71,102c.1,2.37-.75,4.05-2.98,4.72-2.49,.75-5.1,1.18-7.69,1.52-1.21,.16-2.32-.59-3.14-1.57-2.55-3.08-1.24-7.63,2.56-8.71,1.75-.5,3.53-.94,5.33-1.17,3.54-.45,5.79,1.59,5.93,5.21Z"/>
  <path class="cls-7" d="M125.75,120.17c-2.6-2.51-5.17-5.05-8.33-6.91-1.95-1.15-3.27-2.96-4.21-5.03-.44-.96-.49-1.93-.26-2.95,.34-1.51,2.15-2.33,3.28-1.38,1.54,1.28,3.24,2.55,2.44,5-1.13-.04-1.54-1.1-2.31-1.66-.44-.32-.73-.33-.9,.1-.06,.17-.14,.42-.06,.54,.54,.79,.98,1.78,1.73,2.28,1.68,1.13,1.02-.83,1.5-1.31,.53,.13,1.34,.08,1.56,.42,2.18,3.3,4.26,6.67,6.37,10.02-.28,.28-.56,.57-.83,.87Z"/>
  <path class="cls-7" d="M150.62,106.59c.03-1.12,.15-1.75,.81-1.89,.74-.16,1.14,.47,1.25,1.05,.97,5.21,1.89,10.42,2.82,15.64,.18,1,.38,2.01,.46,3.02,.03,.34-.2,.9-.46,1.01-.65,.29-1.2-.14-1.34-.75-.81-3.78-1.59-7.57-2.34-11.36-.47-2.4-.87-4.81-1.21-6.72Z"/>
  <path class="cls-7" d="M88.6,154.43c.36,.03,.87-.09,1.07,.11,3.89,3.85,7.76,7.73,11.6,11.64,.19,.2,.22,.79,.07,1.04-.45,.71-1.14,.35-1.58,.01-4.04-3.11-7.52-6.81-10.82-10.67-.37-.43-.5-1.08-.68-1.65-.03-.11,.22-.31,.34-.47Z"/>
  <path class="cls-7" d="M105.51,67.49c-.35,.15-.88,.6-1.35,.54-2.83-.33-5.35-1.51-7.68-3.12-.48-.33-1.06-.76-.82-1.45,.38-1.1,1.18-.66,1.88-.37,2.57,1.05,5.15,2.11,7.71,3.18,.47,.19,.58,.55,.25,1.21Z"/>
  <path class="cls-7" d="M141.3,136.08c-.12,.16-.23,.42-.37,.45-.36,.06-.9,.18-1.1,0-2.23-2.08-4.49-4.15-6.05-6.83-.26-.44-.21-.87,.25-1.05,.31-.12,.86-.13,1.08,.06,2.26,2.05,4.47,4.16,6.11,6.77,.1,.16,.06,.4,.08,.6Z"/>
  <path class="cls-7" d="M177.52,153.87c-1.82,2.41-4.51,3.42-7.17,4.49-.03-1.18-.14-2.38-.07-3.56,.06-1.17,.89-1.77,1.98-1.76,1.78,0,3.59,.02,5.25,.83Z"/>
  <path class="cls-7" d="M126.58,119.3c2.68,2.04,5.58,4.04,6.35,7.53,.44,1.97-3.42-1.1-7.18-6.66,.27-.29,.55-.58,.83-.87Z"/>
  <path class="cls-7" d="M86.98,153.07c-.85-.33-1.33-.84-.99-1.76,.17-.45,.6-.57,.95-.19,.37,.4,.62,.93,.84,1.44,.02,.05-.53,.35-.79,.52Z"/>
  <path class="cls-2" d="M354.99,170.09c.53-4.9-1.13-9.55-1.63-14.33-.48-4.59-1.39-9.14-2.12-13.7-.18-2.82-1.42-5.52-.97-8.42,.16-1.05,.38-2.12,1.53-2.36,2.77-.57,5.55-1.14,8.36-1.42,1.93-.19,3.04,.76,3.45,2.71,.9,4.36,1.75,8.74,2.46,13.13,1.26,7.79,2.44,15.59,3.54,23.4,.22,1.58-.02,3.23-.06,4.85-3.09,.07-6.11,.54-9.1,1.32-1.33-.1-2.67-.2-4-.29,.06-1.8-.47-3.41-1.47-4.89Z"/>
  <path class="cls-7" d="M338.72,141.95c-.4-.09-.81-.18-1.21-.26-.41-9.17-2.28-18.17-3.34-27.26-1.05-9,1.62-17.34,5.54-25.33,.09-.18,.24-.35,.41-.44,.35-.19,.72-.32,1.09-.48,.13,.36,.45,.78,.37,1.08-.33,1.17-.73,2.33-1.22,3.44-4.18,9.44-5.2,19.15-3.05,29.29,1.14,5.36,2.26,10.79,1.9,16.36-.08,1.21-.32,2.41-.49,3.61Z"/>
  <path class="cls-7" d="M391.4,116.88c-.29,.97-.78,2.1,.98,1.95,1-.09,1.96-.49,2.96-.64,.33-.05,.91,.11,1.02,.34,.29,.58,.04,1.16-.6,1.39-5.33,1.93-10.66,3.85-16,5.73-.25,.09-.87-.2-.94-.43-.1-.3,.09-.96,.32-1.05,3.15-1.17,4.55-3.79,5.75-6.65,.3-.72,.94-1.31,1.42-1.96,.3,.28,.6,.56,.9,.84,.15,.47,.29,.93,.44,1.4,.85-.28,.82-.9,.64-1.6,0,0-.05,.05-.05,.05,.81,.41,1.54-.04,2.29-.24,.29,.28,.59,.57,.88,.85Z"/>
  <path class="cls-7" d="M361.05,64.41c.98,.24,1.97,.44,2.93,.74,4.22,1.32,8.34,.93,12.42-.62,1.46-.56,2.81-1.71,4.56-.99-2.34,3.77-6.38,3.91-10.09,4.51-3.24,.53-6.44-.35-9.53-1.32-1.18-.37-1.29-1.4-.29-2.31Z"/>
  <path class="cls-7" d="M390.49,109.87c.95-1.37,2.24-1.58,3.52-.72,1.07,.72,1.17,1.91,.79,3.14-.42,1.35-1.14,2.46-2.28,3.3-.27-.27-.56-.54-.84-.8,.33-.73,.68-1.44,.98-2.18,.64-1.59,0-2.21-1.6-2.05-.18-.24-.37-.47-.56-.7Z"/>
  <path class="cls-7" d="M387.69,113.31c.31-.88,.66-1.74,1.58-2.18,.2,.18,.41,.36,.62,.54-.21,.91-.5,1.78-1.3,2.37-.3-.25-.59-.49-.89-.73Z"/>
  <path class="cls-7" d="M380.94,63.55c-.59-1.46,.39-2.21,1.35-2.97,.48,1.41,.23,2.49-1.35,2.97Z"/>
  <path class="cls-7" d="M386.3,115.57c.46-.75,.93-1.5,1.39-2.26,.3,.24,.59,.49,.89,.73-.12,.74-.24,1.48-.36,2.22,0,0,.05-.05,.05-.05-.36,.04-.72,.1-1.08,.19-.3-.28-.6-.56-.9-.84Z"/>
  <path class="cls-7" d="M392.52,115.59c-.38,.43-.75,.86-1.13,1.29-.29-.28-.58-.57-.88-.85,.39-.41,.77-.83,1.16-1.24,.29,.26,.57,.53,.84,.8Z"/>
  <path class="cls-7" d="M389.27,111.13c.41-.42,.82-.84,1.23-1.26,.19,.23,.38,.46,.56,.69-.39,.37-.78,.74-1.16,1.12-.21-.18-.42-.36-.62-.54Z"/>
  <path class="cls-8" d="M356.46,174.99c1.33,.1,2.66,.2,4,.29,1.3,6.96,2.53,13.94,3.9,20.89,2.13,10.74,4.37,21.45,6.51,32.19,.32,1.59,.49,3.22,.51,4.84,.09,5.04-2.65,7.95-7.69,8.2-1.2,.06-2.42-.14-3.63-.22,.1-.17,.17-.4,.32-.52,3.9-3.12,3.93-7.39,3.08-11.64-2.98-15-6.16-29.96-9.26-44.94-.47-2.27-.41-4.37,1.21-6.3,.6-.72,.71-1.85,1.04-2.79Z"/>
  <path class="cls-6" d="M417.4,189.23c5.62,1.49,10.49,3.93,14.94,7.17,1.82,1.33,3.44,2.86,4.77,4.69,.85,1.16,1.49,2.44,1.57,3.91,.09,1.67,0,3.37-1.51,4.4-1.64,1.12-3.08,.06-4.47-.78-.35-.21-.69-.44-.99-.7-5.99-5.26-10.61-11.58-14.3-18.69Z"/>
  <path class="cls-6" d="M417.3,184.35c-.23-.3-.63-.6-.65-.91-.03-.58,0-1.25,.29-1.73,2.76-4.78,5.92-9.26,10.13-12.88,1.37-1.17,2.99-2.09,4.59-2.94,1.49-.79,3.13-.76,4.74-.22,2.59,.87,3.36,3.1,1.67,5.21-1.01,1.26-2.2,2.41-3.46,3.41-4.95,3.94-10.45,6.99-16.15,9.72-.36,.17-.78,.23-1.17,.34Z"/>
  <path class="cls-5" d="M394.07,192.37c-.98-.02-3.2-.09-5.1-1.55-1.89-1.45-2.02-3.66-.25-5.16,3.63-3.07,10.92-3.67,14.9-1.22,2.15,1.33,2.31,3.98,.31,5.6-2.52,2.04-5.5,2.41-9.85,2.33Z"/>
  <path class="cls-12" d="M328.76,177.01c-1.39-4.25-.8-8.41,.64-12.5,.47-1.34,1.12-2.63,2.33-3.48,.29-.2,.81-.33,1.09-.2,.27,.13,.4,.61,.52,.97,.06,.17,.03,.44-.07,.58-2.56,3.48-2.88,7.5-2.8,11.61,.02,1.03-.07,2.03-.73,2.88,0,0-.51,0-.51,0l-.48,.15Z"/>
  <path class="cls-12" d="M321.9,172.69c.17-4.04,.08-8.12,1.39-12.02,.38-1.13,.98-2.19,1.57-3.23,.13-.22,.74-.35,1.03-.24,.29,.11,.57,.54,.63,.87,.06,.36-.09,.79-.23,1.16-1.28,3.46-1.84,7.03-1.82,10.71,0,1.4,.06,2.87-1.18,3.92-.46-.39-.93-.78-1.39-1.17Z"/>
  <path class="cls-10" d="M412.29,415.57c-.1,.15-.19,.43-.29,.43-.56,.02-1.19,.12-1.69-.08-6.3-2.44-12.56-3.01-18.8,.23-.55,.29-1.21,.08-1.39-.59-.09-.31,.14-.77,.36-1.07,.23-.32,.57-.6,.93-.76,6.93-3.07,13.75-2.85,20.4,.84,.26,.15,.33,.66,.48,1Z"/>
  <path class="cls-10" d="M401.05,421.76c-2.83-.56-5.46,1.16-8.27,2.22-.31,.12-.87,0-1.09-.22-.53-.55-.11-1.08,.33-1.43,3.02-2.33,6.52-3.19,10.23-2.87,3.21,.28,6.36,1.02,9.35,2.31,1.26,.54,2.08,1.64,1.54,2.03-.79,.57-1.54,.17-2.29-.05-3.08-.92-6.11-2.1-9.79-1.99Z"/>
  <path class="cls-12" d="M360.09,30.34c-1.03,.15-2.03,.02-2.12-1.21-.14-1.7,.17-3.49-1.49-4.68q.16-2.27,2.37-2.67c.03,.59-.17,1.39,.14,1.74,1.84,2.12,1.41,4.5,1.01,6.91l.09-.1Z"/>
  <path class="cls-3" d="M372.56,20.27c1,.07,1.96,.24,2.55,1.19-.38,.35-.76,.69-1.14,1.04-.48-.71-1.72-.76-1.65-1.94l.24-.29Z"/>
  <path class="cls-12" d="M372.42,40.6c-.29,1.87-1.63,3.31-3.5,4.25-1.76,.88-4.21,.21-5.44-1.43-.38-.5-.34-1.23,.25-1.59,2.25-1.4,4.79-2.05,7.34-2.63,.71-.16,1.02,.44,1.34,1.4Z"/>
  <path class="cls-12" d="M390.29,38.65c-1.45,.24-2.86,.36-4.19,.74-.9,.26-1.81,1.33-2.56,.15-.42-.66,.31-1.51,.87-2.12,.97-1.04,1.91-2.11,2.93-3.1,.55-.53,1.04-1.48,1.96-1.14,1.49,.55,.38,1.61,.39,2.49,.01,.95,.36,1.9,.59,2.97Z"/>
  <path class="cls-12" d="M360.01,30.44c.69-.33,1.36-.75,2.09-.97,.53-.16,1.41-.13,1.26,.68-.46,2.53-1.65,4.9-1.55,7.56,0,.25-.44,.63-.75,.74-.81,.28-1.12-.46-1.12-.95-.01-2.38,.1-4.77,.17-7.15,0,0-.09,.1-.09,.1Z"/>
  <path class="cls-12" d="M371.09,24.23c-.41,2.12,.78,4.31-.29,6.41-.22,.44-.46,.7-.91,.52-.32-.12-.81-.34-.84-.57-.21-1.36-.25-2.74-.45-4.1-.34-2.23,1.45-1.8,2.6-2.18,0,0-.11-.08-.11-.08Z"/>
  <path class="cls-12" d="M372.32,20.56c-.07,1.17,1.17,1.23,1.65,1.94q-.29,1.82-2.88,1.73s.11,.08,.11,.08c-.23-.3-.4-.71-.7-.88-.65-.36-1.78-.4-1.66-1.33,.15-1.23,1.31-1.26,2.33-1.3,.39-.01,.77-.16,1.16-.24Z"/>
  <path class="cls-12" d="M237.84,137.43c2.67-.07,4.96-.98,7.28-1.75,1.54-.51,3.04-1.12,4.59-1.59,.19-.06,.74,.4,.79,.69,.15,.8,.67,0,.1,.6-.28,.29-.56,.63-.92,.8-1.66,.77-3.3,1.6-5.02,2.19q-7.44,2.56-13.51-2.75c-1.53-1.34-2.96-2.79-4.38-4.25-.21-.21-.24-.85-.07-1.11,.16-.24,.86-.46,1.02-.32,3.85,3.32,8.01,2.01,12.14,.83,1.36-.39,2.63-1.13,3.99-1.52,1.36-.39,3.15-2.67,4.03-.52,.68,1.66-1.97,2.17-3.37,2.72-2.65,1.04-5.41,1.78-8.09,2.74-.5,.18-1.18,.8-1.18,1.21,.01,.47,.63,1.01,1.1,1.36,.47,.35,1.09,.5,1.49,.67Z"/>
  <path class="cls-12" d="M108.69,23.96c.14,.95,.76,1.29,1.65,1.31,1,.02,2.04-.01,2.8,.77,.25,.26,.46,.69,.44,1.03-.02,.28-.39,.73-.64,.75-1.19,.09-2.6,.47-3.53-.01-1.83-.95-3.19-.8-4.84,.38-3.24,2.31-6.83,3.2-10.84,2.2-1.32-.33-2.78-.1-4.17-.13,6.15-2.8,12.42-5.22,19.13-6.31Z"/>
  <path class="cls-12" d="M94.66,38.72c-1.25-.54-2.32,.22-3.47,.45-.59,.12-1.19,.19-1.6-.35-.49-.65,0-1.12,.46-1.47,1.37-1.06,.82-1.93-.17-2.85-.47-.43-.58-1.04-.11-1.51,.5-.51,1.18-.31,1.64,.04,1.59,1.2,3.17,2.43,4.66,3.75,.37,.33,.62,1.08,.54,1.57-.1,.61-.74,.76-1.37,.53-.19-.07-.38-.11-.58-.16Z"/>
  <path class="cls-12" d="M115.51,42.34c-.24,.28-.48,.8-.72,.8-2.69-.03-5.01-1.78-5.74-4.23-.04-.15,.06-.36,.14-.53,.19-.45,.58-.63,.98-.35,1.77,1.24,3.51,2.51,5.25,3.79,.1,.08,.06,.35,.08,.53Z"/>
  <path class="cls-12" d="M190.63,167.93c-.21-.04-.8-.13-1.37-.27-.15-.04-.4-.25-.38-.33,.09-.36,.15-.85,.41-1.03,.48-.33,1.08-.63,1.65-.68,4.07-.37,7.9-1.53,11.6-3.22,.55-.25,1.23-.35,1.57,.27,.31,.56,.09,1.18-.46,1.53-.67,.44-1.37,.87-2.11,1.17-3.38,1.36-6.84,2.43-10.91,2.55Z"/>
  <path class="cls-8" d="M314.82,121.55c.02-.17,.1-.76,.18-1.35,.07-.54,.36-.75,.8-.53,.34,.17,.81,.36,.92,.65,.33,.93,.58,1.9,.74,2.88,.21,1.28,1.37,2.66-.14,3.82-.95,.73-2.31-1.01-2.49-3.26-.05-.59,0-1.19,0-2.21Z"/>
  <path class="cls-2" d="M118.64,108.86c-.49,.48,.18,2.44-1.5,1.31-.75-.5-1.18-1.49-1.73-2.28-.08-.11,0-.37,.06-.54,.17-.43,.46-.43,.9-.1,.76,.56,1.17,1.62,2.31,1.66,0,0-.04-.04-.04-.04Z"/>
  <path class="cls-8" d="M389.89,111.68c.39-.38,.77-.75,1.16-1.12,1.62-.16,2.25,.47,1.61,2.05-.3,.74-.65,1.46-.98,2.18-.39,.41-.77,.82-1.16,1.24-.75,.2-1.48,.64-2.29,.23,.12-.74,.24-1.48,.36-2.22,.81-.58,1.1-1.45,1.3-2.37Z"/>
  <path class="cls-8" d="M387.2,116.4c.35-.09,.71-.16,1.08-.19,.19,.69,.21,1.32-.64,1.6-.15-.47-.29-.93-.44-1.4Z"/>
</svg>